<svg width="525" height="89" viewBox="0 0 525 89" fill="none" xmlns="http://www.w3.org/2000/svg">
<path d="M0 83.8889V8.1543H48.3861V18.5152H10.992V39.763H42.0748V50.1239H10.992V73.528H48.3861V83.8889H0ZM76.3741 83.8889L55.7574 27.0879H66.8545L81.9489 70.1094L97.0433 27.0879H108.14L87.5238 83.8889H76.3741ZM140.754 85.4667C135.109 85.4667 130.148 84.2395 125.87 81.7851C121.628 79.2958 118.314 75.842 115.93 71.4242C113.581 66.9714 112.406 61.8172 112.406 55.9617C112.406 49.7558 113.563 44.3736 115.877 39.8155C118.227 35.2574 121.487 31.7337 125.66 29.2442C129.832 26.7547 134.689 25.5101 140.228 25.5101C146.013 25.5101 150.94 26.86 155.008 29.5598C159.075 32.2245 162.107 36.0287 164.105 40.9726C166.139 45.9164 166.946 51.7893 166.525 58.5915H155.533V54.5942C155.463 48.0025 154.201 43.129 151.746 39.9733C149.327 36.8177 145.628 35.2399 140.649 35.2399C135.144 35.2399 131.007 36.9754 128.237 40.4467C125.467 43.9178 124.082 48.9317 124.082 55.4883C124.082 61.7295 125.467 66.5681 128.237 70.0042C131.007 73.4052 135.005 75.1058 140.228 75.1058C143.665 75.1058 146.627 74.3344 149.117 72.7916C151.641 71.2138 153.605 68.9698 155.008 66.0597L165.788 69.4783C163.579 74.5623 160.231 78.5068 155.743 81.3119C151.255 84.0817 146.259 85.4667 140.754 85.4667ZM120.506 58.5915V50.0186H161.056V58.5915H120.506ZM216.651 83.8889V55.9617C216.651 53.7528 216.458 51.4912 216.072 49.1772C215.721 46.828 215.019 44.6542 213.968 42.6555C212.951 40.6571 211.496 39.0442 209.603 37.8169C207.745 36.5898 205.308 35.9762 202.292 35.9762C200.329 35.9762 198.469 36.3093 196.718 36.9754C194.964 37.6067 193.421 38.641 192.088 40.0785C190.791 41.5161 189.758 43.4094 188.986 45.7585C188.249 48.1078 187.881 50.9654 187.881 54.3314L181.045 51.7542C181.045 46.6001 182.008 42.0595 183.937 38.1325C185.865 34.1705 188.635 31.085 192.246 28.8761C195.858 26.6671 200.223 25.5627 205.343 25.5627C209.27 25.5627 212.565 26.1938 215.23 27.456C217.895 28.7183 220.051 30.3837 221.699 32.4525C223.383 34.4861 224.662 36.7126 225.538 39.1319C226.415 41.5512 227.011 43.9178 227.327 46.2319C227.643 48.5461 227.799 50.5797 227.799 52.3328V83.8889H216.651ZM176.731 83.8889V27.0879H186.566V43.4971H187.881V83.8889H176.731ZM274.001 83.8889C270.425 84.5902 266.919 84.8881 263.483 84.783C260.047 84.6778 256.979 84.0116 254.28 82.7844C251.58 81.5572 249.546 79.6288 248.178 76.9991C246.951 74.65 246.285 72.2658 246.179 69.8465C246.109 67.3921 246.074 64.6221 246.074 61.5366V11.3099H257.119V61.0108C257.119 63.2897 257.136 65.2708 257.171 66.9537C257.242 68.6368 257.61 70.0567 258.275 71.2138C259.538 73.3877 261.537 74.6325 264.272 74.9481C267.042 75.2285 270.285 75.1058 274.001 74.5798V83.8889ZM235.187 35.9236V27.0879H274.001V35.9236H235.187Z" fill="#25254C"/>
<path d="M380.287 83.8889V8.1543H408.163C408.898 8.1543 409.652 8.18925 410.424 8.25943C411.195 8.29453 412.054 8.39967 413 8.57499C416.648 9.13592 419.804 10.4683 422.468 12.5721C425.168 14.6407 427.236 17.2705 428.673 20.4611C430.147 23.6167 430.882 27.0879 430.882 30.8746C430.882 34.6614 430.147 38.1501 428.673 41.3408C427.236 44.4963 425.168 47.126 422.468 49.2298C419.804 51.2984 416.648 52.6132 413 53.1743C412.054 53.3145 411.195 53.4197 410.424 53.4899C409.652 53.5599 408.898 53.595 408.163 53.595H384.705V83.8889H380.287ZM384.705 49.1772H408.163C408.758 49.1772 409.46 49.1421 410.266 49.0719C411.107 49.0019 411.949 48.8966 412.791 48.7564C415.7 48.1955 418.137 47.0384 420.101 45.2853C422.099 43.5322 423.608 41.4108 424.624 38.9215C425.641 36.397 426.15 33.7147 426.15 30.8746C426.15 28.0346 425.641 25.3699 424.624 22.8804C423.608 20.356 422.099 18.2171 420.101 16.464C418.137 14.7109 415.7 13.5538 412.791 12.9928C411.949 12.8176 411.107 12.7123 410.266 12.6772C409.46 12.6072 408.758 12.5721 408.163 12.5721H384.705V49.1772ZM441.407 83.8889V27.0879H445.509V40.6571L444.142 38.8689C444.738 37.3261 445.491 35.8885 446.404 34.5561C447.316 33.2238 448.209 32.1369 449.086 31.2954C450.628 29.7877 452.452 28.6482 454.555 27.8767C456.694 27.0703 458.833 26.6145 460.973 26.5094C463.11 26.3691 465.005 26.5619 466.652 27.0879V31.2954C464.303 30.7694 461.813 30.6818 459.184 31.0324C456.555 31.348 454.099 32.5576 451.82 34.6614C449.823 36.5196 448.402 38.6585 447.56 41.0778C446.754 43.4971 446.263 46.004 446.088 48.5987C445.912 51.1582 445.825 53.595 445.825 55.9092V83.8889H441.407ZM498.439 85.4667C492.829 85.4667 488.096 84.187 484.239 81.6274C480.381 79.0677 477.454 75.5264 475.456 71.0035C473.458 66.4805 472.458 61.2736 472.458 55.3832C472.458 49.4226 473.475 44.1984 475.509 39.7103C477.542 35.2223 480.488 31.7337 484.344 29.2442C488.236 26.7547 492.934 25.5101 498.439 25.5101C504.084 25.5101 508.834 26.7898 512.692 29.3494C516.549 31.8739 519.459 35.3802 521.423 39.8681C523.421 44.3561 524.421 49.5277 524.421 55.3832C524.421 61.3789 523.421 66.6382 521.423 71.1612C519.424 75.6492 516.478 79.1554 512.587 81.68C508.73 84.2044 504.014 85.4667 498.439 85.4667ZM498.439 81.0489C505.592 81.0489 510.922 78.6821 514.427 73.9487C517.933 69.1802 519.687 62.9918 519.687 55.3832C519.687 47.6344 517.917 41.4635 514.375 36.8703C510.869 32.2421 505.557 29.9279 498.439 29.9279C493.635 29.9279 489.656 31.0148 486.501 33.1887C483.38 35.3625 481.048 38.3604 479.506 42.1823C477.963 46.004 477.191 50.4043 477.191 55.3832C477.191 63.0969 478.979 69.303 482.555 74.0012C486.167 78.6996 491.461 81.0489 498.439 81.0489Z" fill="#25254C"/>
<path fill-rule="evenodd" clip-rule="evenodd" d="M351.76 56.896L340.108 45.2754C339.922 48.5607 338.588 51.8436 336.048 54.3553L329.479 60.9237L357.554 88.9996C357.554 72.328 358.577 63.8062 351.852 56.989L351.76 56.896Z" fill="url(#paint0_linear_335_2134)"/>
<path fill-rule="evenodd" clip-rule="evenodd" d="M340.108 43.7234L351.76 32.0723C358.608 25.2239 357.554 16.734 357.554 0L329.479 28.0447L336.048 34.645C338.588 37.1552 339.922 40.4076 340.108 43.7234Z" fill="url(#paint1_linear_335_2134)"/>
<path fill-rule="evenodd" clip-rule="evenodd" d="M313.057 44.5008C321.889 49.8935 326.073 55.9661 323.376 60.4604L294.836 89C294.836 78.9607 292.946 64.5809 300.632 56.8957L313.057 44.5008Z" fill="url(#paint2_linear_335_2134)"/>
<path fill-rule="evenodd" clip-rule="evenodd" d="M323.376 60.4589C324.988 56.4289 320.836 52.2772 313.058 44.4992L300.632 32.0723C293.784 25.2239 294.837 16.734 294.837 0L332.766 37.9294C336.391 41.5246 336.391 47.4442 332.766 51.069L323.376 60.4589Z" fill="url(#paint3_linear_335_2134)"/>
<path fill-rule="evenodd" clip-rule="evenodd" d="M340.108 43.7244L344.137 39.6969C343.331 36.6285 341.72 33.7469 339.333 31.3295L332.764 24.7598L329.479 28.0451L336.048 34.6452C338.588 37.1555 339.922 40.4086 340.108 43.7244Z" fill="url(#paint4_linear_335_2134)"/>
<path fill-rule="evenodd" clip-rule="evenodd" d="M336.048 54.3546L329.479 60.9229L332.764 64.2082L339.333 57.6391C341.72 55.2531 343.331 52.3713 344.137 49.303L340.108 45.2754C339.923 48.5607 338.59 51.8436 336.049 54.3555L336.048 54.3546Z" fill="url(#paint5_linear_335_2134)"/>
<path fill-rule="evenodd" clip-rule="evenodd" d="M313.055 44.5C320.833 52.2782 324.985 56.4297 323.373 60.4597C322.909 54.6642 317.393 51.4102 306.826 50.6967L313.055 44.5Z" fill="url(#paint6_linear_335_2134)"/>
<path fill-rule="evenodd" clip-rule="evenodd" d="M306.828 50.6953C317.395 51.4086 322.911 54.6628 323.375 60.4582C317.953 63.4937 311.94 65.1984 305.837 65.4779C306.828 60.6439 307.168 55.686 306.828 50.6953Z" fill="url(#paint7_linear_335_2134)"/>
<path fill-rule="evenodd" clip-rule="evenodd" d="M306.83 50.6953C307.17 55.686 306.83 60.6432 305.839 65.4779C302.616 65.6324 299.361 65.3849 296.171 64.766C297.07 61.7602 298.464 59.0642 300.632 56.895L306.83 50.6953Z" fill="url(#paint8_linear_335_2134)"/>
<path fill-rule="evenodd" clip-rule="evenodd" d="M305.84 65.4806C311.944 65.2011 317.956 63.4972 323.378 60.4609L294.838 89.0005C300.353 82.0911 304.072 74.0041 305.84 65.4806Z" fill="url(#paint9_linear_335_2134)"/>
<path fill-rule="evenodd" clip-rule="evenodd" d="M323.375 60.4578C328.054 53.5476 327.341 43.7224 321.206 30.9863C327.559 34.085 332.703 37.7738 334.779 40.9654C336.174 44.3124 335.492 48.3399 332.764 51.0679L323.375 60.4578Z" fill="url(#paint10_linear_335_2134)"/>
<path fill-rule="evenodd" clip-rule="evenodd" d="M334.779 40.968C332.703 37.7764 327.559 34.0884 321.206 30.9889C319.595 27.6732 317.642 24.1717 315.318 20.4531L332.764 37.9309C333.664 38.7988 334.345 39.8526 334.779 40.968Z" fill="url(#paint11_linear_335_2134)"/>
<path fill-rule="evenodd" clip-rule="evenodd" d="M321.207 30.9892C327.343 43.7252 328.055 53.5505 323.375 60.4607C324.987 56.4308 320.835 52.279 313.057 44.501L300.631 32.0741C298.307 29.7497 296.881 27.2403 296.045 24.2656C304.039 24.3905 313.523 27.2714 321.207 30.9892Z" fill="url(#paint12_linear_335_2134)"/>
<defs>
<linearGradient id="paint0_linear_335_2134" x1="372.858" y1="67.1379" x2="329.362" y2="67.1379" gradientUnits="userSpaceOnUse">
<stop stop-color="#D58BDB"/>
<stop offset="0.3" stop-color="#C66ACB"/>
<stop offset="0.66" stop-color="#9D4AC5"/>
<stop offset="1" stop-color="#6416C2"/>
</linearGradient>
<linearGradient id="paint1_linear_335_2134" x1="372.858" y1="21.8609" x2="329.362" y2="21.8609" gradientUnits="userSpaceOnUse">
<stop stop-color="#D58BDB"/>
<stop offset="0.3" stop-color="#C66ACB"/>
<stop offset="0.66" stop-color="#9D4AC5"/>
<stop offset="1" stop-color="#6416C2"/>
</linearGradient>
<linearGradient id="paint2_linear_335_2134" x1="340.145" y1="66.7508" x2="293.236" y2="66.7508" gradientUnits="userSpaceOnUse">
<stop stop-color="#662D80"/>
<stop offset="0.49" stop-color="#C10067"/>
<stop offset="1" stop-color="#FF644B"/>
</linearGradient>
<linearGradient id="paint3_linear_335_2134" x1="315.132" y1="61.154" x2="315.132" y2="0.480392" gradientUnits="userSpaceOnUse">
<stop stop-color="#C41F1B"/>
<stop offset="0.33" stop-color="#D36D1D"/>
<stop offset="0.66" stop-color="#DBA21D"/>
<stop offset="1" stop-color="#E2DD86"/>
</linearGradient>
<linearGradient id="paint4_linear_335_2134" x1="390.756" y1="34.2417" x2="329.159" y2="34.2417" gradientUnits="userSpaceOnUse">
<stop stop-color="#D58BDB"/>
<stop offset="0.3" stop-color="#C66ACB"/>
<stop offset="0.66" stop-color="#9D4AC5"/>
<stop offset="1" stop-color="#6416C2"/>
</linearGradient>
<linearGradient id="paint5_linear_335_2134" x1="390.755" y1="54.7414" x2="329.158" y2="54.7414" gradientUnits="userSpaceOnUse">
<stop stop-color="#D58BDB"/>
<stop offset="0.3" stop-color="#C66ACB"/>
<stop offset="0.66" stop-color="#9D4AC5"/>
<stop offset="1" stop-color="#6416C2"/>
</linearGradient>
<linearGradient id="paint6_linear_335_2134" x1="328.287" y1="52.4799" x2="273.004" y2="52.4799" gradientUnits="userSpaceOnUse">
<stop stop-color="#662D80"/>
<stop offset="0.49" stop-color="#C10067"/>
<stop offset="1" stop-color="#FF644B"/>
</linearGradient>
<linearGradient id="paint7_linear_335_2134" x1="340.144" y1="58.0866" x2="278.952" y2="58.0866" gradientUnits="userSpaceOnUse">
<stop stop-color="#662D80"/>
<stop offset="0.49" stop-color="#C10067"/>
<stop offset="1" stop-color="#FF644B"/>
</linearGradient>
<linearGradient id="paint8_linear_335_2134" x1="340.146" y1="58.1094" x2="290.811" y2="58.1094" gradientUnits="userSpaceOnUse">
<stop stop-color="#662D80"/>
<stop offset="0.49" stop-color="#C10067"/>
<stop offset="1" stop-color="#FF644B"/>
</linearGradient>
<linearGradient id="paint9_linear_335_2134" x1="340.147" y1="74.7311" x2="287.145" y2="74.7311" gradientUnits="userSpaceOnUse">
<stop stop-color="#662D80"/>
<stop offset="0.49" stop-color="#C10067"/>
<stop offset="1" stop-color="#FF644B"/>
</linearGradient>
<linearGradient id="paint10_linear_335_2134" x1="328.345" y1="61.1528" x2="328.345" y2="-31.3569" gradientUnits="userSpaceOnUse">
<stop stop-color="#C41F1B"/>
<stop offset="0.33" stop-color="#D36D1D"/>
<stop offset="0.66" stop-color="#DBA21D"/>
<stop offset="1" stop-color="#E2DD86"/>
</linearGradient>
<linearGradient id="paint11_linear_335_2134" x1="325.049" y1="61.1555" x2="325.049" y2="-18.8513" gradientUnits="userSpaceOnUse">
<stop stop-color="#C41F1B"/>
<stop offset="0.33" stop-color="#D36D1D"/>
<stop offset="0.66" stop-color="#DBA21D"/>
<stop offset="1" stop-color="#E2DD86"/>
</linearGradient>
<linearGradient id="paint12_linear_335_2134" x1="311.231" y1="61.155" x2="311.231" y2="-8.11203" gradientUnits="userSpaceOnUse">
<stop stop-color="#C41F1B"/>
<stop offset="0.33" stop-color="#D36D1D"/>
<stop offset="0.66" stop-color="#DBA21D"/>
<stop offset="1" stop-color="#E2DD86"/>
</linearGradient>
</defs>
</svg>
