<svg width="88" height="89" viewBox="0 0 88 89" fill="none" xmlns="http://www.w3.org/2000/svg">
<path d="M87.1 0.429688H0V88.9397H87.1V0.429688Z" fill="#B2282D"/>
<path d="M11.58 55.3122C11.58 55.3122 9.53997 52.8822 12.16 51.9122C12.16 51.9122 14 51.3522 15.36 53.1222C16.34 54.4022 17.5 54.5322 17.5 54.5322C17.5 54.5322 13.77 54.3122 11.58 55.3122Z" fill="white"/>
<path d="M13.1299 64.3915C13.1299 64.3915 14.7699 62.0215 15.9999 64.1015C15.9999 64.1015 16.7599 65.8115 14.9799 66.6815C14.9799 66.6815 11.7399 67.8115 11.4499 64.1315C11.4499 64.1315 11.5199 61.9915 13.7799 61.1815C13.7799 61.1815 16.2299 60.3715 17.7999 62.1615C17.7999 62.1615 19.3199 63.7115 18.9199 66.2115C18.9199 66.2115 18.1399 70.1415 13.7199 70.4315C13.7199 70.4315 7.74992 70.3915 7.20992 63.8415C7.20992 63.8415 6.69992 59.4715 11.0699 56.7815C11.0699 56.7815 17.3299 52.8115 23.5199 58.7415C23.5199 58.7415 20.5699 54.6315 14.4899 55.1415C14.4899 55.1415 7.13992 56.0115 6.80992 63.6215C6.80992 63.6215 6.69992 70.4615 13.6899 70.8315C13.6899 70.8315 18.1499 70.8315 19.2899 66.3515C19.2899 66.3515 19.7299 63.6215 18.0499 61.8715C18.0499 61.8715 16.2699 59.8315 13.6499 60.8115C13.6499 60.8115 11.2099 61.5015 11.1399 64.1215C11.1399 64.1215 11.2899 67.9415 15.0699 66.9915C15.0699 66.9915 17.1799 66.3315 16.3099 64.0115C16.3099 64.0115 14.9599 61.5715 13.1399 64.3715" fill="white"/>
<path d="M22.0098 55.8409C22.0098 55.8409 21.8598 54.1709 20.0398 53.0709C20.0398 53.0709 17.7598 52.0109 18.3698 54.0909C18.3698 54.0909 18.8298 55.1009 22.0098 55.8409Z" fill="white"/>
<path d="M31.33 71.022L29.66 69.382L29.04 69.132L28.24 68.112C28.24 68.112 27.11 66.222 25.47 66.802C25.47 66.802 26.71 67.052 26.74 68.112C26.74 68.112 25.28 67.602 23.5 69.712C23.5 69.712 26.23 69.162 31.32 71.022" fill="white"/>
<path d="M25.0999 67.5624C25.0999 67.5624 21.5299 66.5824 20.9099 69.5324C20.9099 69.5324 22.2899 70.0024 25.0999 67.5624Z" fill="white"/>
<path d="M20.7 57.5898C20.7 57.5898 22.26 57.6998 23.5 59.7698C23.5 59.7698 22.2299 60.8298 21.7199 59.7698C21.7199 59.7698 20.96 58.8898 20.7 57.5898Z" fill="white"/>
<path d="M21.5 60.5692C21.5 60.5692 22.99 61.6592 24.27 59.9492C24.27 59.9492 25.58 63.3292 27.22 65.5892C27.22 65.5892 26.27 66.0992 25.8 65.9492C25.8 65.9492 26.42 65.6192 26.13 64.9292C26.13 64.9292 24.27 64.7092 23.51 63.7692C23.51 63.7692 24.13 63.6092 24.37 62.9592C24.37 62.9592 22.28 62.2692 21.51 60.5592" fill="white"/>
<path d="M20.9199 65.2308C20.9199 65.2308 21.1399 64.3908 23.1799 64.8708C23.1799 64.8708 22.5599 65.7608 20.9199 65.2308Z" fill="white"/>
<path d="M23.01 66.1392C23.01 66.1392 24.08 65.1492 25.25 66.6792C25.25 66.6792 23.47 66.6792 23.01 66.1392Z" fill="white"/>
<path d="M16.3699 39.1012C16.3699 39.1012 17.5699 39.2513 17.7199 37.0312C17.7199 37.0312 19.6699 41.0013 22.0099 51.9913C22.0099 51.9913 21.5399 50.1313 19.8999 49.3313C19.8999 49.3313 20.2999 46.3113 19.6799 45.2913C19.6799 45.2913 18.9499 46.1613 17.0199 46.2013C17.0199 46.2013 19.3499 45.1113 19.1899 42.8213C19.1899 42.8213 18.1199 42.5313 17.7899 42.0913C17.7899 42.0913 18.1899 41.7612 17.9699 40.4212C17.9699 40.4212 17.0599 40.0913 16.3699 39.1113" fill="white"/>
<path d="M21.4998 52.7112C21.4998 52.7112 21.1098 49.5113 20.1198 50.4913C20.1198 50.4913 19.3098 51.3612 21.4998 52.7112Z" fill="white"/>
<path d="M14.3998 49.0008C14.3998 49.0008 9.9198 48.2708 9.7798 43.9108C9.7798 43.9108 10.1098 39.9408 13.7798 39.8708C13.7798 39.8708 16.8698 39.6208 17.0598 43.0008C17.0598 43.0008 16.7698 45.5408 14.5898 45.6908C14.5898 45.6908 12.5298 45.6508 12.5898 43.4708C12.5898 43.4708 12.6798 42.0508 14.1698 42.0108C14.1698 42.0108 15.3598 42.0108 15.3598 43.3908C15.3598 43.3908 14.8898 44.6608 13.7198 43.6108C13.7198 43.6108 14.6398 45.2608 15.6898 43.5008C15.6898 43.5008 16.1298 42.1008 14.4198 41.6108C14.4198 41.6108 12.6598 41.3608 12.2598 43.3708C12.2598 43.3708 12.0098 45.8308 14.5298 46.0108C14.5298 46.0108 17.0398 46.1908 17.5098 43.0608C17.5098 43.0608 17.5098 39.2608 13.6498 39.4608C13.6498 39.4608 9.7898 39.4208 9.4298 43.8308C9.4298 43.8308 9.2098 48.6008 14.4198 49.0008" fill="white"/>
<path d="M15.95 32.6992H16.83C16.83 32.6992 19.12 33.8592 20.92 41.6192C20.92 41.6192 25.09 60.9892 32.68 68.0392C32.68 68.0392 25.25 64.1892 20.46 41.8992C20.46 41.8992 19.69 36.8392 16.72 33.1992H15.95V32.6992Z" fill="white"/>
<path d="M17.9299 52.8696C17.9299 52.8696 19.6299 50.5396 21.6699 53.5596C21.6699 53.5596 23.0799 55.4296 26.3199 61.7396C26.3199 61.7396 30.1599 69.1496 34.5299 71.4496C34.5299 71.4496 30.5999 70.5796 25.9799 61.9496C25.9799 61.9496 24.1299 57.8396 21.4999 53.8296C21.4999 53.8296 19.8799 51.1096 17.9299 52.8596" fill="white"/>
<path d="M75.5199 55.3122C75.5199 55.3122 77.5599 52.8822 74.9399 51.9122C74.9399 51.9122 73.0999 51.3522 71.7399 53.1222C70.7599 54.4022 69.6099 54.5322 69.6099 54.5322C69.6099 54.5322 73.3399 54.3122 75.5299 55.3122" fill="white"/>
<path d="M73.9698 64.3915C73.9698 64.3915 72.3298 62.0215 71.0998 64.1015C71.0998 64.1015 70.3398 65.8115 72.1198 66.6815C72.1198 66.6815 75.3598 67.8115 75.6498 64.1315C75.6498 64.1315 75.5798 61.9915 73.3198 61.1815C73.3198 61.1815 70.8698 60.3715 69.2998 62.1615C69.2998 62.1615 67.7798 63.7115 68.1798 66.2115C68.1798 66.2115 68.9598 70.1415 73.3798 70.4315C73.3798 70.4315 79.3498 70.3915 79.8898 63.8415C79.8898 63.8415 80.3998 59.4715 76.0298 56.7815C76.0298 56.7815 69.7698 52.8115 63.5798 58.7415C63.5798 58.7415 66.5298 54.6315 72.6098 55.1415C72.6098 55.1415 79.9598 56.0115 80.2898 63.6215C80.2898 63.6215 80.3998 70.4615 73.4098 70.8315C73.4098 70.8315 68.9498 70.8315 67.8098 66.3515C67.8098 66.3515 67.3698 63.6215 69.0498 61.8715C69.0498 61.8715 70.8298 59.8315 73.4498 60.8115C73.4498 60.8115 75.8898 61.5015 75.9598 64.1215C75.9598 64.1215 75.8098 67.9415 72.0298 66.9915C72.0298 66.9915 69.9198 66.3315 70.7898 64.0115C70.7898 64.0115 72.1398 61.5715 73.9598 64.3715" fill="white"/>
<path d="M65.0898 55.8409C65.0898 55.8409 65.2398 54.1709 67.0598 53.0709C67.0598 53.0709 69.3399 52.0109 68.7299 54.0909C68.7299 54.0909 68.2698 55.1009 65.0898 55.8409Z" fill="white"/>
<path d="M55.77 71.022L57.44 69.382L58.06 69.132L58.86 68.112C58.86 68.112 59.99 66.222 61.63 66.802C61.63 66.802 60.39 67.052 60.36 68.112C60.36 68.112 61.82 67.602 63.6 69.712C63.6 69.712 60.87 69.162 55.78 71.022" fill="white"/>
<path d="M62 67.5624C62 67.5624 65.57 66.5824 66.19 69.5324C66.19 69.5324 64.81 70.0024 62 67.5624Z" fill="white"/>
<path d="M66.3999 57.5898C66.3999 57.5898 64.8399 57.6998 63.5999 59.7698C63.5999 59.7698 64.8699 60.8298 65.3799 59.7698C65.3799 59.7698 66.1399 58.8898 66.3999 57.5898Z" fill="white"/>
<path d="M65.5999 60.5692C65.5999 60.5692 64.1099 61.6592 62.8299 59.9492C62.8299 59.9492 61.5199 63.3292 59.8799 65.5892C59.8799 65.5892 60.8299 66.0992 61.2999 65.9492C61.2999 65.9492 60.6799 65.6192 60.9699 64.9292C60.9699 64.9292 62.8299 64.7092 63.5899 63.7692C63.5899 63.7692 62.9699 63.6092 62.7299 62.9592C62.7299 62.9592 64.8199 62.2692 65.5899 60.5592" fill="white"/>
<path d="M66.1799 65.2308C66.1799 65.2308 65.9599 64.3908 63.9199 64.8708C63.9199 64.8708 64.5399 65.7608 66.1799 65.2308Z" fill="white"/>
<path d="M64.0899 66.1392C64.0899 66.1392 63.0199 65.1492 61.8499 66.6792C61.8499 66.6792 63.6299 66.6792 64.0899 66.1392Z" fill="white"/>
<path d="M70.7299 39.1012C70.7299 39.1012 69.5298 39.2513 69.3798 37.0312C69.3798 37.0312 67.4298 41.0013 65.0898 51.9913C65.0898 51.9913 65.5598 50.1313 67.1998 49.3313C67.1998 49.3313 66.7998 46.3113 67.4198 45.2913C67.4198 45.2913 68.1498 46.1613 70.0798 46.2013C70.0798 46.2013 67.7499 45.1113 67.9099 42.8213C67.9099 42.8213 68.9798 42.5313 69.3098 42.0913C69.3098 42.0913 68.9098 41.7612 69.1298 40.4212C69.1298 40.4212 70.0399 40.0913 70.7299 39.1113" fill="white"/>
<path d="M65.5999 52.7112C65.5999 52.7112 65.9899 49.5113 66.9799 50.4913C66.9799 50.4913 67.7899 51.3612 65.5999 52.7112Z" fill="white"/>
<path d="M72.6998 49.0008C72.6998 49.0008 77.1798 48.2708 77.3198 43.9108C77.3198 43.9108 76.9898 39.9408 73.3198 39.8708C73.3198 39.8708 70.2298 39.6208 70.0398 43.0008C70.0398 43.0008 70.3298 45.5408 72.5098 45.6908C72.5098 45.6908 74.5698 45.6508 74.5098 43.4708C74.5098 43.4708 74.4198 42.0508 72.9298 42.0108C72.9298 42.0108 71.7398 42.0108 71.7398 43.3908C71.7398 43.3908 72.2098 44.6608 73.3798 43.6108C73.3798 43.6108 72.4599 45.2608 71.4099 43.5008C71.4099 43.5008 70.9698 42.1008 72.6798 41.6108C72.6798 41.6108 74.4398 41.3608 74.8398 43.3708C74.8398 43.3708 75.0898 45.8308 72.5698 46.0108C72.5698 46.0108 70.0598 46.1908 69.5898 43.0608C69.5898 43.0608 69.5898 39.2608 73.4498 39.4608C73.4498 39.4608 77.3098 39.4208 77.6698 43.8308C77.6698 43.8308 77.8898 48.6008 72.6798 49.0008" fill="white"/>
<path d="M71.1499 32.6992H70.2699C70.2699 32.6992 67.9799 33.8592 66.1799 41.6192C66.1799 41.6192 62.0099 60.9892 54.4199 68.0392C54.4199 68.0392 61.8499 64.1892 66.6399 41.8992C66.6399 41.8992 67.4099 36.8392 70.3799 33.1992H71.1499V32.6992Z" fill="white"/>
<path d="M69.1698 52.8696C69.1698 52.8696 67.4698 50.5396 65.4298 53.5596C65.4298 53.5596 64.0198 55.4296 60.7798 61.7396C60.7798 61.7396 56.9398 69.1496 52.5698 71.4496C52.5698 71.4496 56.4998 70.5796 61.1198 61.9496C61.1198 61.9496 62.9698 57.8396 65.5998 53.8296C65.5998 53.8296 67.2198 51.1096 69.1698 52.8596" fill="white"/>
<path d="M43.5499 72.4295C42.9499 72.0695 22.8199 59.9795 24.4499 32.7295C24.4499 32.7295 31.4999 29.2495 43.5499 29.2495C55.5899 29.2495 62.6499 32.7295 62.6499 32.7295C64.2899 59.9895 44.1499 72.0695 43.5499 72.4295ZM65.0799 30.8995C65.0799 30.8995 57.1299 27.0195 43.5499 27.0195C29.9699 27.0195 22.0199 30.8995 22.0199 30.8995C20.1799 61.2795 42.8799 74.7495 43.5499 75.1495C44.2199 74.7495 66.9199 61.2795 65.0799 30.8995Z" fill="white"/>
<path d="M43.5499 70.7827C42.9899 70.4527 24.7699 59.1427 25.5799 33.8827C25.5799 33.8827 32.2199 30.6527 43.5499 30.6427H43.5599C54.8899 30.6427 61.5299 33.8827 61.5299 33.8827C62.4199 58.9527 44.1199 70.4527 43.5599 70.7727M61.9099 33.5327C61.9099 33.5327 55.1299 30.2327 43.5499 30.2227H43.5399C31.9599 30.2227 25.1799 33.5327 25.1799 33.5327C24.3599 59.3427 42.9699 70.8827 43.5399 71.2227C44.1099 70.8827 62.8099 59.1427 61.8999 33.5227" fill="white"/>
<path d="M60.75 34.5605C60.75 34.5605 54.39 31.4805 43.54 31.4805H43.53C32.68 31.4805 26.32 34.5605 26.32 34.5605C26.22 58.6505 42.99 69.3505 43.53 69.6605C44.07 69.3405 61 58.6905 60.74 34.5505" fill="white"/>
<path d="M37.7 26.5009C37.81 26.4909 37.92 26.4809 38.03 26.4709C38.05 26.4709 38.06 26.4709 38.08 26.4709C39.85 26.3009 41.74 26.2009 43.7 26.2009C45.66 26.2009 47.55 26.3009 49.3 26.4709C49.11 25.8609 48.48 22.6409 52.26 16.8209C52.26 16.8209 50.06 19.1509 47.89 19.3009C47.89 19.3009 49.25 21.0309 48.04 23.2309C48.04 23.2309 46.89 25.7409 46.25 24.1709C46.25 24.1709 45.92 23.2509 46.81 22.7609C46.81 22.7609 46.21 22.6209 46.17 21.5309C46.17 21.5309 45.9 22.5309 45.19 22.4609C45.19 22.4609 46.28 23.8509 44.79 24.3809C44.79 24.3809 44.28 24.4209 44.37 22.6209C44.37 22.6209 44.19 19.6609 46.42 17.7209C46.42 17.7209 44.32 16.5209 43.51 14.2109C42.7 16.5209 40.6 17.7209 40.6 17.7209C42.83 19.6609 42.65 22.6209 42.65 22.6209C42.74 24.4209 42.23 24.3809 42.23 24.3809C40.74 23.8509 41.83 22.4609 41.83 22.4609C41.12 22.5309 40.85 21.5309 40.85 21.5309C40.81 22.6209 40.21 22.7609 40.21 22.7609C41.1 23.2509 40.77 24.1709 40.77 24.1709C40.13 25.7409 38.98 23.2309 38.98 23.2309C37.78 21.0209 39.13 19.3009 39.13 19.3009C36.96 19.1509 34.76 16.8209 34.76 16.8209C38.62 22.7609 37.87 25.9909 37.71 26.5009" fill="white"/>
<path d="M40.52 46.0505C40.52 43.3905 40.52 42.9105 40.49 42.3505C40.46 41.7605 40.32 41.4805 39.74 41.3505C39.6 41.3105 39.3 41.3005 39.06 41.3005C38.87 41.3005 38.76 41.2705 38.76 41.1405C38.76 41.0105 38.88 40.9805 39.14 40.9805C40.07 40.9805 41.17 41.0305 41.66 41.0305C42.38 41.0305 43.39 40.9805 44.19 40.9805C46.37 40.9805 47.16 41.7105 47.44 41.9805C47.82 42.3505 48.31 43.1305 48.31 44.0605C48.31 46.5405 46.49 48.2905 44.01 48.2905C43.92 48.2905 43.73 48.2905 43.64 48.2705C43.55 48.2505 43.43 48.2305 43.43 48.1105C43.43 47.9705 43.55 47.9205 43.92 47.9205C44.9 47.9205 46.26 46.8205 46.26 45.0405C46.26 44.4605 46.21 43.2905 45.23 42.4205C44.6 41.8405 43.89 41.7405 43.48 41.7405C43.22 41.7405 42.96 41.7605 42.8 41.8105C42.71 41.8405 42.66 41.9505 42.66 42.1405V49.1305C42.66 50.7405 42.66 52.1205 42.75 52.8705C42.8 53.3605 42.91 53.7405 43.43 53.8105C43.67 53.8405 44.06 53.8805 44.32 53.8805C44.51 53.8805 44.6 53.9305 44.6 54.0205C44.6 54.1405 44.46 54.1905 44.27 54.1905C43.12 54.1905 42.02 54.1405 41.56 54.1405C41.16 54.1405 40.06 54.1905 39.36 54.1905C39.13 54.1905 39.01 54.1405 39.01 54.0205C39.01 53.9305 39.08 53.8805 39.29 53.8805C39.55 53.8805 39.76 53.8405 39.92 53.8105C40.27 53.7405 40.36 53.3605 40.43 52.8505C40.52 52.1205 40.52 50.7405 40.52 49.1305V46.0605V46.0505Z" fill="#B2282D"/>
</svg>
