<svg width="490" height="89" viewBox="0 0 490 89" fill="none" xmlns="http://www.w3.org/2000/svg">
<g clip-path="url(#clip0_356_2248)">
<path d="M87.1 0.429688H0V88.9397H87.1V0.429688Z" fill="#B2282D"/>
<path d="M182.25 0.429688H95.1499V88.9397H182.25V0.429688Z" fill="#B2282D"/>
<path d="M138.7 23.812C150.08 23.812 159.71 30.312 162.75 39.172H164.34C161.26 29.612 150.96 22.582 138.71 22.582C126.46 22.582 116.16 29.612 113.08 39.172H114.67C117.71 30.312 127.33 23.812 138.72 23.812H138.7Z" fill="white"/>
<path d="M115.53 39.1725H124.95C126.24 32.6125 129.58 27.3525 133.87 25.0625C125.13 26.5625 118.1 32.0525 115.53 39.1725Z" fill="white"/>
<path d="M138.28 24.6602C132.39 24.9302 127.45 30.9702 125.8 39.1702H138.28V24.6602Z" fill="white"/>
<path d="M143.52 25.0508C147.81 27.3408 151.15 32.6108 152.44 39.1608H161.86C159.29 32.0408 152.26 26.5508 143.52 25.0508Z" fill="white"/>
<path d="M139.11 24.6602V39.1702H151.59C149.94 30.9702 145 24.9302 139.11 24.6602Z" fill="white"/>
<path d="M138.15 39.9219H134.51V41.3919H138.15V39.9219Z" fill="white"/>
<path d="M133.43 39.9219H129.79V41.3919H133.43V39.9219Z" fill="white"/>
<path d="M114.52 39.9219H110.87V41.3919H114.52V39.9219Z" fill="white"/>
<path d="M119.25 39.9219H115.61V41.3919H119.25V39.9219Z" fill="white"/>
<path d="M123.98 39.9219H120.34V41.3919H123.98V39.9219Z" fill="white"/>
<path d="M128.7 39.9219H125.06V41.3919H128.7V39.9219Z" fill="white"/>
<path d="M157.06 39.9219H153.42V41.3919H157.06V39.9219Z" fill="white"/>
<path d="M161.78 39.9219H158.14V41.3919H161.78V39.9219Z" fill="white"/>
<path d="M166.52 39.9219H162.87V41.3919H166.52V39.9219Z" fill="white"/>
<path d="M147.61 39.9219H143.97V41.3919H147.61V39.9219Z" fill="white"/>
<path d="M152.33 39.9219H148.69V41.3919H152.33V39.9219Z" fill="white"/>
<path d="M142.88 39.9219H139.24V41.3919H142.88V39.9219Z" fill="white"/>
<path d="M170.81 43.162H106.59L105.75 42.082H171.64L170.81 43.162Z" fill="white"/>
<path d="M170.71 43.6523H106.68V44.1723H170.71V43.6523Z" fill="white"/>
<path d="M170.71 44.5625H106.68V45.0825H170.71V44.5625Z" fill="white"/>
<path d="M170.71 45.4727H106.68V45.9927H170.71V45.4727Z" fill="white"/>
<path d="M170.71 46.3711H106.68V46.8911H170.71V46.3711Z" fill="white"/>
<path d="M170.71 47.2812H106.68V47.8013H170.71V47.2812Z" fill="white"/>
<path d="M170.71 69.7031H106.68V70.6731H170.71V69.7031Z" fill="white"/>
<path d="M165.4 49.2514V48.1914H164.06H163.74V49.4414H162.4V68.4814H163.74V69.7914H165.4V68.7414H164.06V49.2514H165.4Z" fill="white"/>
<path d="M157.18 49.25H163.03V48.2H157.18V49.25Z" fill="white"/>
<path d="M157.18 69.7812H163.03V68.7312H157.18V69.7812Z" fill="white"/>
<path d="M158.52 68.8828H161.69V48.1928H158.52V68.8828Z" fill="white"/>
<path d="M114.99 68.4814V49.4414H113.65V48.1914H113.33H111.99V49.2514H113.33V68.7414H111.99V69.7914H113.65V68.4814H114.99Z" fill="white"/>
<path d="M120.21 48.1914H114.36V49.2414H120.21V48.1914Z" fill="white"/>
<path d="M120.21 68.7422H114.36V69.7922H120.21V68.7422Z" fill="white"/>
<path d="M118.87 48.1914H115.7V68.8814H118.87V48.1914Z" fill="white"/>
<path d="M120.21 48.1914H114.36V49.2414H120.21V48.1914Z" fill="white"/>
<path d="M120.21 68.7422H114.36V69.7922H120.21V68.7422Z" fill="white"/>
<path d="M118.87 48.1914H115.7V68.8814H118.87V48.1914Z" fill="white"/>
<path d="M138.45 48.1914H132.6V49.2414H138.45V48.1914Z" fill="white"/>
<path d="M138.45 68.7422H132.6V69.7922H138.45V68.7422Z" fill="white"/>
<path d="M137.11 48.1914H133.94V68.8814H137.11V48.1914Z" fill="white"/>
<path d="M144.79 48.1914H138.94V49.2414H144.79V48.1914Z" fill="white"/>
<path d="M144.79 68.7422H138.94V69.7922H144.79V68.7422Z" fill="white"/>
<path d="M143.45 48.1914H140.28V68.8814H143.45V48.1914Z" fill="white"/>
<path d="M139.06 20.1211H138.33V22.9911H139.06V20.1211Z" fill="white"/>
<path d="M141.89 19.8514V18.6914H135.49V19.8514H141.89Z" fill="white"/>
<path d="M137.06 20.1211H136.33V22.9911H137.06V20.1211Z" fill="white"/>
<path d="M141.06 20.1211H140.33V22.9911H141.06V20.1211Z" fill="white"/>
<path d="M11.58 55.3122C11.58 55.3122 9.53997 52.8822 12.16 51.9122C12.16 51.9122 14 51.3522 15.36 53.1222C16.34 54.4022 17.5 54.5322 17.5 54.5322C17.5 54.5322 13.77 54.3122 11.58 55.3122Z" fill="white"/>
<path d="M13.1299 64.3915C13.1299 64.3915 14.7699 62.0215 15.9999 64.1015C15.9999 64.1015 16.7599 65.8115 14.9799 66.6815C14.9799 66.6815 11.7399 67.8115 11.4499 64.1315C11.4499 64.1315 11.5199 61.9915 13.7799 61.1815C13.7799 61.1815 16.2299 60.3715 17.7999 62.1615C17.7999 62.1615 19.3199 63.7115 18.9199 66.2115C18.9199 66.2115 18.1399 70.1415 13.7199 70.4315C13.7199 70.4315 7.74992 70.3915 7.20992 63.8415C7.20992 63.8415 6.69992 59.4715 11.0699 56.7815C11.0699 56.7815 17.3299 52.8115 23.5199 58.7415C23.5199 58.7415 20.5699 54.6315 14.4899 55.1415C14.4899 55.1415 7.13992 56.0115 6.80992 63.6215C6.80992 63.6215 6.69992 70.4615 13.6899 70.8315C13.6899 70.8315 18.1499 70.8315 19.2899 66.3515C19.2899 66.3515 19.7299 63.6215 18.0499 61.8715C18.0499 61.8715 16.2699 59.8315 13.6499 60.8115C13.6499 60.8115 11.2099 61.5015 11.1399 64.1215C11.1399 64.1215 11.2899 67.9415 15.0699 66.9915C15.0699 66.9915 17.1799 66.3315 16.3099 64.0115C16.3099 64.0115 14.9599 61.5715 13.1399 64.3715" fill="white"/>
<path d="M22.0098 55.8409C22.0098 55.8409 21.8598 54.1709 20.0398 53.0709C20.0398 53.0709 17.7598 52.0109 18.3698 54.0909C18.3698 54.0909 18.8298 55.1009 22.0098 55.8409Z" fill="white"/>
<path d="M31.33 71.022L29.66 69.382L29.04 69.132L28.24 68.112C28.24 68.112 27.11 66.222 25.47 66.802C25.47 66.802 26.71 67.052 26.74 68.112C26.74 68.112 25.28 67.602 23.5 69.712C23.5 69.712 26.23 69.162 31.32 71.022" fill="white"/>
<path d="M25.0999 67.5624C25.0999 67.5624 21.5299 66.5824 20.9099 69.5324C20.9099 69.5324 22.2899 70.0024 25.0999 67.5624Z" fill="white"/>
<path d="M20.7 57.5898C20.7 57.5898 22.26 57.6998 23.5 59.7698C23.5 59.7698 22.2299 60.8298 21.7199 59.7698C21.7199 59.7698 20.96 58.8898 20.7 57.5898Z" fill="white"/>
<path d="M21.5 60.5692C21.5 60.5692 22.99 61.6592 24.27 59.9492C24.27 59.9492 25.58 63.3292 27.22 65.5892C27.22 65.5892 26.27 66.0992 25.8 65.9492C25.8 65.9492 26.42 65.6192 26.13 64.9292C26.13 64.9292 24.27 64.7092 23.51 63.7692C23.51 63.7692 24.13 63.6092 24.37 62.9592C24.37 62.9592 22.28 62.2692 21.51 60.5592" fill="white"/>
<path d="M20.9199 65.2308C20.9199 65.2308 21.1399 64.3908 23.1799 64.8708C23.1799 64.8708 22.5599 65.7608 20.9199 65.2308Z" fill="white"/>
<path d="M23.01 66.1392C23.01 66.1392 24.08 65.1492 25.25 66.6792C25.25 66.6792 23.47 66.6792 23.01 66.1392Z" fill="white"/>
<path d="M16.3699 39.1012C16.3699 39.1012 17.5699 39.2513 17.7199 37.0312C17.7199 37.0312 19.6699 41.0013 22.0099 51.9913C22.0099 51.9913 21.5399 50.1313 19.8999 49.3313C19.8999 49.3313 20.2999 46.3113 19.6799 45.2913C19.6799 45.2913 18.9499 46.1613 17.0199 46.2013C17.0199 46.2013 19.3499 45.1113 19.1899 42.8213C19.1899 42.8213 18.1199 42.5313 17.7899 42.0913C17.7899 42.0913 18.1899 41.7612 17.9699 40.4212C17.9699 40.4212 17.0599 40.0913 16.3699 39.1113" fill="white"/>
<path d="M21.4998 52.7112C21.4998 52.7112 21.1098 49.5113 20.1198 50.4913C20.1198 50.4913 19.3098 51.3612 21.4998 52.7112Z" fill="white"/>
<path d="M14.3998 49.0008C14.3998 49.0008 9.9198 48.2708 9.7798 43.9108C9.7798 43.9108 10.1098 39.9408 13.7798 39.8708C13.7798 39.8708 16.8698 39.6208 17.0598 43.0008C17.0598 43.0008 16.7698 45.5408 14.5898 45.6908C14.5898 45.6908 12.5298 45.6508 12.5898 43.4708C12.5898 43.4708 12.6798 42.0508 14.1698 42.0108C14.1698 42.0108 15.3598 42.0108 15.3598 43.3908C15.3598 43.3908 14.8898 44.6608 13.7198 43.6108C13.7198 43.6108 14.6398 45.2608 15.6898 43.5008C15.6898 43.5008 16.1298 42.1008 14.4198 41.6108C14.4198 41.6108 12.6598 41.3608 12.2598 43.3708C12.2598 43.3708 12.0098 45.8308 14.5298 46.0108C14.5298 46.0108 17.0398 46.1908 17.5098 43.0608C17.5098 43.0608 17.5098 39.2608 13.6498 39.4608C13.6498 39.4608 9.7898 39.4208 9.4298 43.8308C9.4298 43.8308 9.2098 48.6008 14.4198 49.0008" fill="white"/>
<path d="M15.95 32.6992H16.83C16.83 32.6992 19.12 33.8592 20.92 41.6192C20.92 41.6192 25.09 60.9892 32.68 68.0392C32.68 68.0392 25.25 64.1892 20.46 41.8992C20.46 41.8992 19.69 36.8392 16.72 33.1992H15.95V32.6992Z" fill="white"/>
<path d="M17.9299 52.8696C17.9299 52.8696 19.6299 50.5396 21.6699 53.5596C21.6699 53.5596 23.0799 55.4296 26.3199 61.7396C26.3199 61.7396 30.1599 69.1496 34.5299 71.4496C34.5299 71.4496 30.5999 70.5796 25.9799 61.9496C25.9799 61.9496 24.1299 57.8396 21.4999 53.8296C21.4999 53.8296 19.8799 51.1096 17.9299 52.8596" fill="white"/>
<path d="M75.5199 55.3122C75.5199 55.3122 77.5599 52.8822 74.9399 51.9122C74.9399 51.9122 73.0999 51.3522 71.7399 53.1222C70.7599 54.4022 69.6099 54.5322 69.6099 54.5322C69.6099 54.5322 73.3399 54.3122 75.5299 55.3122" fill="white"/>
<path d="M73.9698 64.3915C73.9698 64.3915 72.3298 62.0215 71.0998 64.1015C71.0998 64.1015 70.3398 65.8115 72.1198 66.6815C72.1198 66.6815 75.3598 67.8115 75.6498 64.1315C75.6498 64.1315 75.5798 61.9915 73.3198 61.1815C73.3198 61.1815 70.8698 60.3715 69.2998 62.1615C69.2998 62.1615 67.7798 63.7115 68.1798 66.2115C68.1798 66.2115 68.9598 70.1415 73.3798 70.4315C73.3798 70.4315 79.3498 70.3915 79.8898 63.8415C79.8898 63.8415 80.3998 59.4715 76.0298 56.7815C76.0298 56.7815 69.7698 52.8115 63.5798 58.7415C63.5798 58.7415 66.5298 54.6315 72.6098 55.1415C72.6098 55.1415 79.9598 56.0115 80.2898 63.6215C80.2898 63.6215 80.3998 70.4615 73.4098 70.8315C73.4098 70.8315 68.9498 70.8315 67.8098 66.3515C67.8098 66.3515 67.3698 63.6215 69.0498 61.8715C69.0498 61.8715 70.8298 59.8315 73.4498 60.8115C73.4498 60.8115 75.8898 61.5015 75.9598 64.1215C75.9598 64.1215 75.8098 67.9415 72.0298 66.9915C72.0298 66.9915 69.9198 66.3315 70.7898 64.0115C70.7898 64.0115 72.1398 61.5715 73.9598 64.3715" fill="white"/>
<path d="M65.0898 55.8409C65.0898 55.8409 65.2398 54.1709 67.0598 53.0709C67.0598 53.0709 69.3399 52.0109 68.7299 54.0909C68.7299 54.0909 68.2698 55.1009 65.0898 55.8409Z" fill="white"/>
<path d="M55.77 71.022L57.44 69.382L58.06 69.132L58.86 68.112C58.86 68.112 59.99 66.222 61.63 66.802C61.63 66.802 60.39 67.052 60.36 68.112C60.36 68.112 61.82 67.602 63.6 69.712C63.6 69.712 60.87 69.162 55.78 71.022" fill="white"/>
<path d="M62 67.5624C62 67.5624 65.57 66.5824 66.19 69.5324C66.19 69.5324 64.81 70.0024 62 67.5624Z" fill="white"/>
<path d="M66.3999 57.5898C66.3999 57.5898 64.8399 57.6998 63.5999 59.7698C63.5999 59.7698 64.8699 60.8298 65.3799 59.7698C65.3799 59.7698 66.1399 58.8898 66.3999 57.5898Z" fill="white"/>
<path d="M65.5999 60.5692C65.5999 60.5692 64.1099 61.6592 62.8299 59.9492C62.8299 59.9492 61.5199 63.3292 59.8799 65.5892C59.8799 65.5892 60.8299 66.0992 61.2999 65.9492C61.2999 65.9492 60.6799 65.6192 60.9699 64.9292C60.9699 64.9292 62.8299 64.7092 63.5899 63.7692C63.5899 63.7692 62.9699 63.6092 62.7299 62.9592C62.7299 62.9592 64.8199 62.2692 65.5899 60.5592" fill="white"/>
<path d="M66.1799 65.2308C66.1799 65.2308 65.9599 64.3908 63.9199 64.8708C63.9199 64.8708 64.5399 65.7608 66.1799 65.2308Z" fill="white"/>
<path d="M64.0899 66.1392C64.0899 66.1392 63.0199 65.1492 61.8499 66.6792C61.8499 66.6792 63.6299 66.6792 64.0899 66.1392Z" fill="white"/>
<path d="M70.7299 39.1012C70.7299 39.1012 69.5298 39.2513 69.3798 37.0312C69.3798 37.0312 67.4298 41.0013 65.0898 51.9913C65.0898 51.9913 65.5598 50.1313 67.1998 49.3313C67.1998 49.3313 66.7998 46.3113 67.4198 45.2913C67.4198 45.2913 68.1498 46.1613 70.0798 46.2013C70.0798 46.2013 67.7499 45.1113 67.9099 42.8213C67.9099 42.8213 68.9798 42.5313 69.3098 42.0913C69.3098 42.0913 68.9098 41.7612 69.1298 40.4212C69.1298 40.4212 70.0399 40.0913 70.7299 39.1113" fill="white"/>
<path d="M65.5999 52.7112C65.5999 52.7112 65.9899 49.5113 66.9799 50.4913C66.9799 50.4913 67.7899 51.3612 65.5999 52.7112Z" fill="white"/>
<path d="M72.6998 49.0008C72.6998 49.0008 77.1798 48.2708 77.3198 43.9108C77.3198 43.9108 76.9898 39.9408 73.3198 39.8708C73.3198 39.8708 70.2298 39.6208 70.0398 43.0008C70.0398 43.0008 70.3298 45.5408 72.5098 45.6908C72.5098 45.6908 74.5698 45.6508 74.5098 43.4708C74.5098 43.4708 74.4198 42.0508 72.9298 42.0108C72.9298 42.0108 71.7398 42.0108 71.7398 43.3908C71.7398 43.3908 72.2098 44.6608 73.3798 43.6108C73.3798 43.6108 72.4599 45.2608 71.4099 43.5008C71.4099 43.5008 70.9698 42.1008 72.6798 41.6108C72.6798 41.6108 74.4398 41.3608 74.8398 43.3708C74.8398 43.3708 75.0898 45.8308 72.5698 46.0108C72.5698 46.0108 70.0598 46.1908 69.5898 43.0608C69.5898 43.0608 69.5898 39.2608 73.4498 39.4608C73.4498 39.4608 77.3098 39.4208 77.6698 43.8308C77.6698 43.8308 77.8898 48.6008 72.6798 49.0008" fill="white"/>
<path d="M71.1499 32.6992H70.2699C70.2699 32.6992 67.9799 33.8592 66.1799 41.6192C66.1799 41.6192 62.0099 60.9892 54.4199 68.0392C54.4199 68.0392 61.8499 64.1892 66.6399 41.8992C66.6399 41.8992 67.4099 36.8392 70.3799 33.1992H71.1499V32.6992Z" fill="white"/>
<path d="M69.1698 52.8696C69.1698 52.8696 67.4698 50.5396 65.4298 53.5596C65.4298 53.5596 64.0198 55.4296 60.7798 61.7396C60.7798 61.7396 56.9398 69.1496 52.5698 71.4496C52.5698 71.4496 56.4998 70.5796 61.1198 61.9496C61.1198 61.9496 62.9698 57.8396 65.5998 53.8296C65.5998 53.8296 67.2198 51.1096 69.1698 52.8596" fill="white"/>
<path d="M43.5499 72.4295C42.9499 72.0695 22.8199 59.9795 24.4499 32.7295C24.4499 32.7295 31.4999 29.2495 43.5499 29.2495C55.5899 29.2495 62.6499 32.7295 62.6499 32.7295C64.2899 59.9895 44.1499 72.0695 43.5499 72.4295ZM65.0799 30.8995C65.0799 30.8995 57.1299 27.0195 43.5499 27.0195C29.9699 27.0195 22.0199 30.8995 22.0199 30.8995C20.1799 61.2795 42.8799 74.7495 43.5499 75.1495C44.2199 74.7495 66.9199 61.2795 65.0799 30.8995Z" fill="white"/>
<path d="M43.5499 70.7827C42.9899 70.4527 24.7699 59.1427 25.5799 33.8827C25.5799 33.8827 32.2199 30.6527 43.5499 30.6427H43.5599C54.8899 30.6427 61.5299 33.8827 61.5299 33.8827C62.4199 58.9527 44.1199 70.4527 43.5599 70.7727M61.9099 33.5327C61.9099 33.5327 55.1299 30.2327 43.5499 30.2227H43.5399C31.9599 30.2227 25.1799 33.5327 25.1799 33.5327C24.3599 59.3427 42.9699 70.8827 43.5399 71.2227C44.1099 70.8827 62.8099 59.1427 61.8999 33.5227" fill="white"/>
<path d="M60.75 34.5605C60.75 34.5605 54.39 31.4805 43.54 31.4805H43.53C32.68 31.4805 26.32 34.5605 26.32 34.5605C26.22 58.6505 42.99 69.3505 43.53 69.6605C44.07 69.3405 61 58.6905 60.74 34.5505" fill="white"/>
<path d="M37.7 26.5009C37.81 26.4909 37.92 26.4809 38.03 26.4709C38.05 26.4709 38.06 26.4709 38.08 26.4709C39.85 26.3009 41.74 26.2009 43.7 26.2009C45.66 26.2009 47.55 26.3009 49.3 26.4709C49.11 25.8609 48.48 22.6409 52.26 16.8209C52.26 16.8209 50.06 19.1509 47.89 19.3009C47.89 19.3009 49.25 21.0309 48.04 23.2309C48.04 23.2309 46.89 25.7409 46.25 24.1709C46.25 24.1709 45.92 23.2509 46.81 22.7609C46.81 22.7609 46.21 22.6209 46.17 21.5309C46.17 21.5309 45.9 22.5309 45.19 22.4609C45.19 22.4609 46.28 23.8509 44.79 24.3809C44.79 24.3809 44.28 24.4209 44.37 22.6209C44.37 22.6209 44.19 19.6609 46.42 17.7209C46.42 17.7209 44.32 16.5209 43.51 14.2109C42.7 16.5209 40.6 17.7209 40.6 17.7209C42.83 19.6609 42.65 22.6209 42.65 22.6209C42.74 24.4209 42.23 24.3809 42.23 24.3809C40.74 23.8509 41.83 22.4609 41.83 22.4609C41.12 22.5309 40.85 21.5309 40.85 21.5309C40.81 22.6209 40.21 22.7609 40.21 22.7609C41.1 23.2509 40.77 24.1709 40.77 24.1709C40.13 25.7409 38.98 23.2309 38.98 23.2309C37.78 21.0209 39.13 19.3009 39.13 19.3009C36.96 19.1509 34.76 16.8209 34.76 16.8209C38.62 22.7609 37.87 25.9909 37.71 26.5009" fill="white"/>
<path d="M40.52 46.0505C40.52 43.3905 40.52 42.9105 40.49 42.3505C40.46 41.7605 40.32 41.4805 39.74 41.3505C39.6 41.3105 39.3 41.3005 39.06 41.3005C38.87 41.3005 38.76 41.2705 38.76 41.1405C38.76 41.0105 38.88 40.9805 39.14 40.9805C40.07 40.9805 41.17 41.0305 41.66 41.0305C42.38 41.0305 43.39 40.9805 44.19 40.9805C46.37 40.9805 47.16 41.7105 47.44 41.9805C47.82 42.3505 48.31 43.1305 48.31 44.0605C48.31 46.5405 46.49 48.2905 44.01 48.2905C43.92 48.2905 43.73 48.2905 43.64 48.2705C43.55 48.2505 43.43 48.2305 43.43 48.1105C43.43 47.9705 43.55 47.9205 43.92 47.9205C44.9 47.9205 46.26 46.8205 46.26 45.0405C46.26 44.4605 46.21 43.2905 45.23 42.4205C44.6 41.8405 43.89 41.7405 43.48 41.7405C43.22 41.7405 42.96 41.7605 42.8 41.8105C42.71 41.8405 42.66 41.9505 42.66 42.1405V49.1305C42.66 50.7405 42.66 52.1205 42.75 52.8705C42.8 53.3605 42.91 53.7405 43.43 53.8105C43.67 53.8405 44.06 53.8805 44.32 53.8805C44.51 53.8805 44.6 53.9305 44.6 54.0205C44.6 54.1405 44.46 54.1905 44.27 54.1905C43.12 54.1905 42.02 54.1405 41.56 54.1405C41.16 54.1405 40.06 54.1905 39.36 54.1905C39.13 54.1905 39.01 54.1405 39.01 54.0205C39.01 53.9305 39.08 53.8805 39.29 53.8805C39.55 53.8805 39.76 53.8405 39.92 53.8105C40.27 53.7405 40.36 53.3605 40.43 52.8505C40.52 52.1205 40.52 50.7405 40.52 49.1305V46.0605V46.0505Z" fill="#B2282D"/>
<path d="M200.93 12.7109C200.93 6.42094 200.93 5.26094 200.85 3.93094C200.77 2.52094 200.44 1.86094 199.07 1.57094C198.74 1.49094 198.04 1.45094 197.46 1.45094C197 1.45094 196.76 1.37094 196.76 1.08094C196.76 0.790938 197.05 0.710938 197.67 0.710938C199.86 0.710938 202.47 0.830938 203.63 0.830938C205.33 0.830938 207.73 0.710938 209.63 0.710938C214.81 0.710938 216.67 2.45094 217.33 3.07094C218.24 3.94094 219.4 5.80094 219.4 8.00094C219.4 13.8809 215.09 18.0209 209.22 18.0209C209.01 18.0209 208.56 18.0209 208.35 17.9809C208.14 17.9409 207.85 17.9009 207.85 17.6109C207.85 17.2809 208.14 17.1509 209.01 17.1509C211.33 17.1509 214.56 14.5409 214.56 10.3209C214.56 8.95094 214.44 6.18094 212.12 4.11094C210.63 2.74094 208.93 2.50094 207.98 2.50094C207.36 2.50094 206.74 2.54094 206.37 2.67094C206.16 2.75094 206.04 3.00094 206.04 3.46094V20.0209C206.04 23.8309 206.04 27.1009 206.25 28.8809C206.37 30.0409 206.62 30.9509 207.86 31.1209C208.44 31.2009 209.35 31.2909 209.97 31.2909C210.42 31.2909 210.63 31.4109 210.63 31.6209C210.63 31.9109 210.3 32.0309 209.84 32.0309C207.11 32.0309 204.5 31.9109 203.42 31.9109C202.47 31.9109 199.86 32.0309 198.2 32.0309C197.66 32.0309 197.37 31.9109 197.37 31.6209C197.37 31.4109 197.54 31.2909 198.03 31.2909C198.65 31.2909 199.15 31.2109 199.52 31.1209C200.35 30.9509 200.55 30.0409 200.72 28.8409C200.93 27.1009 200.93 23.8309 200.93 20.0209V12.7309V12.7109Z" fill="#B2282D"/>
<path d="M230.69 15.9809C230.69 16.4309 230.77 16.6009 231.06 16.7209C231.93 17.0109 233.17 17.1309 234.2 17.1309C235.86 17.1309 236.4 16.9709 237.14 16.4309C238.38 15.5209 239.58 13.6209 239.58 10.2209C239.58 4.34094 235.69 2.64094 233.24 2.64094C232.21 2.64094 231.46 2.68094 231.05 2.81094C230.76 2.89094 230.68 3.06094 230.68 3.39094V15.9809H230.69ZM225.81 12.7109C225.81 6.42094 225.81 5.26094 225.73 3.93094C225.65 2.52094 225.32 1.86094 223.95 1.57094C223.62 1.49094 222.92 1.45094 222.34 1.45094C221.88 1.45094 221.63 1.37094 221.63 1.08094C221.63 0.790938 221.92 0.710938 222.54 0.710938C224.73 0.710938 227.34 0.830938 228.21 0.830938C229.62 0.830938 232.77 0.710938 234.05 0.710938C236.66 0.710938 239.43 0.960938 241.67 2.49094C242.83 3.28094 244.49 5.39094 244.49 8.16094C244.49 11.2209 243.21 14.0409 239.02 17.4309C242.71 22.0709 245.56 25.7509 248 28.3209C250.32 30.7209 252.02 31.0109 252.64 31.1409C253.1 31.2209 253.47 31.2609 253.8 31.2609C254.13 31.2609 254.3 31.3809 254.3 31.5909C254.3 31.9209 254.01 32.0009 253.51 32.0009H249.58C247.26 32.0009 246.23 31.7909 245.15 31.2109C243.37 30.2609 241.8 28.3109 239.48 25.1209C237.82 22.8409 235.92 20.0309 235.38 19.4109C235.17 19.1609 234.93 19.1209 234.64 19.1209L231.04 19.0409C230.83 19.0409 230.71 19.1209 230.71 19.3709V19.9509C230.71 23.8009 230.71 27.0709 230.92 28.8109C231.04 30.0109 231.29 30.9209 232.53 31.0909C233.15 31.1709 234.06 31.2609 234.56 31.2609C234.89 31.2609 235.06 31.3809 235.06 31.5909C235.06 31.8809 234.77 32.0009 234.23 32.0009C231.83 32.0009 228.77 31.8809 228.15 31.8809C227.36 31.8809 224.75 32.0009 223.1 32.0009C222.56 32.0009 222.27 31.8809 222.27 31.5909C222.27 31.3809 222.44 31.2609 222.93 31.2609C223.55 31.2609 224.05 31.1809 224.42 31.0909C225.25 30.9209 225.45 30.0109 225.62 28.8109C225.83 27.0709 225.83 23.8009 225.83 19.9909V12.7009L225.81 12.7109Z" fill="#B2282D"/>
<path d="M279.62 17.1411C279.62 7.87109 274.28 2.11109 267.49 2.11109C262.73 2.11109 257.31 4.76109 257.31 15.0711C257.31 23.6811 262.07 30.5111 270.02 30.5111C272.92 30.5111 279.63 29.1011 279.63 17.1411M251.59 16.3511C251.59 9.27109 256.27 0.121094 268.69 0.121094C279 0.121094 285.42 6.12109 285.42 15.6011C285.42 25.0811 278.8 32.5711 268.28 32.5711C256.4 32.5711 251.6 23.6711 251.6 16.3411" fill="#B2282D"/>
<path d="M289.01 4.76094C288.06 2.48094 287.35 2.03094 285.86 1.61094C285.24 1.45094 284.58 1.45094 284.25 1.45094C283.88 1.45094 283.75 1.33094 283.75 1.08094C283.75 0.750938 284.2 0.710938 284.83 0.710938C287.02 0.710938 289.38 0.830938 290.83 0.830938C291.87 0.830938 293.85 0.710938 295.92 0.710938C296.42 0.710938 296.87 0.790938 296.87 1.08094C296.87 1.37094 296.62 1.45094 296.25 1.45094C295.59 1.45094 294.97 1.49094 294.63 1.74094C294.34 1.95094 294.22 2.24094 294.22 2.61094C294.22 3.15094 294.59 4.31094 295.17 5.80094L302.29 24.6009H302.46C304.24 20.0509 309.62 6.71094 310.62 3.98094C310.83 3.44094 310.99 2.82094 310.99 2.45094C310.99 2.12094 310.83 1.79094 310.45 1.66094C309.95 1.49094 309.33 1.45094 308.79 1.45094C308.42 1.45094 308.09 1.41094 308.09 1.12094C308.09 0.790938 308.46 0.710938 309.25 0.710938C311.32 0.710938 313.06 0.830938 313.6 0.830938C314.3 0.830938 316.25 0.710938 317.49 0.710938C318.03 0.710938 318.36 0.790938 318.36 1.08094C318.36 1.37094 318.11 1.45094 317.7 1.45094C317.29 1.45094 316.42 1.45094 315.67 1.95094C315.13 2.32094 314.51 3.03094 313.39 5.68094C311.78 9.57094 310.66 11.8109 308.42 16.9009C305.77 22.9409 303.83 27.4609 302.91 29.5309C301.83 31.9309 301.58 32.5909 301.01 32.5909C300.47 32.5909 300.22 32.0109 299.44 30.0609L289.01 4.76094Z" fill="#B2282D"/>
<path d="M324.22 12.7092C324.22 6.41922 324.22 5.25922 324.14 3.92922C324.06 2.51922 323.64 1.81922 322.73 1.60922C322.27 1.48922 321.74 1.43922 321.24 1.43922C320.83 1.43922 320.58 1.35922 320.58 1.02922C320.58 0.779219 320.91 0.699219 321.57 0.699219C323.14 0.699219 325.75 0.819219 326.95 0.819219C327.99 0.819219 330.43 0.699219 332 0.699219C332.54 0.699219 332.87 0.779219 332.87 1.02922C332.87 1.35922 332.62 1.43922 332.21 1.43922C331.8 1.43922 331.47 1.47922 330.97 1.55922C329.85 1.76922 329.52 2.46922 329.44 3.91922C329.36 5.24922 329.36 6.39922 329.36 12.6992V19.9892C329.36 24.0092 329.36 27.2792 329.52 29.0592C329.64 30.1792 329.93 30.9192 331.18 31.0892C331.76 31.1692 332.67 31.2592 333.29 31.2592C333.74 31.2592 333.95 31.3792 333.95 31.5892C333.95 31.8792 333.62 31.9992 333.16 31.9992C330.43 31.9992 327.82 31.8792 326.7 31.8792C325.75 31.8792 323.14 31.9992 321.48 31.9992C320.94 31.9992 320.65 31.8792 320.65 31.5892C320.65 31.3792 320.81 31.2592 321.31 31.2592C321.93 31.2592 322.43 31.1792 322.8 31.0892C323.63 30.9192 323.88 30.2192 324 29.0192C324.21 27.2792 324.21 24.0092 324.21 19.9992V12.7092H324.22Z" fill="#B2282D"/>
<path d="M346.99 17.2609C346.99 21.6509 347.03 24.8409 347.07 25.6209C347.11 26.6509 347.19 28.3109 347.53 28.7709C348.07 29.5609 349.68 30.4309 352.95 30.4309C357.17 30.4309 359.99 29.6009 362.47 27.4509C365.12 25.1709 365.95 21.4109 365.95 17.1409C365.95 11.8809 363.76 8.49094 361.98 6.79094C358.17 3.15094 353.45 2.65094 350.22 2.65094C349.39 2.65094 347.86 2.77094 347.53 2.94094C347.16 3.11094 347.03 3.31094 347.03 3.77094C346.99 5.18094 346.99 8.78094 346.99 12.0509V17.2709V17.2609ZM341.81 12.7109C341.81 6.42094 341.81 5.26094 341.73 3.93094C341.65 2.52094 341.32 1.86094 339.95 1.57094C339.62 1.49094 338.92 1.45094 338.34 1.45094C337.88 1.45094 337.64 1.37094 337.64 1.08094C337.64 0.790938 337.93 0.710938 338.55 0.710938C340.74 0.710938 343.35 0.830938 344.51 0.830938C345.79 0.830938 348.4 0.710938 350.89 0.710938C356.06 0.710938 362.98 0.710938 367.49 5.43094C369.56 7.58094 371.51 11.0209 371.51 15.9509C371.51 21.1709 369.32 25.1409 367 27.5009C365.1 29.4509 360.79 32.3909 353.13 32.3909C351.64 32.3909 349.94 32.2709 348.37 32.1409C346.8 32.0209 345.35 31.8909 344.31 31.8909C343.86 31.8909 342.94 31.8909 341.95 31.9309C341 31.9309 339.92 32.0109 339.09 32.0109C338.55 32.0109 338.26 31.8909 338.26 31.6009C338.26 31.3909 338.43 31.2709 338.92 31.2709C339.54 31.2709 340.04 31.1909 340.41 31.1009C341.24 30.9309 341.44 30.0209 341.61 28.8209C341.82 27.0809 341.82 23.8109 341.82 20.0009V12.7109H341.81Z" fill="#B2282D"/>
<path d="M378.2 12.7089C378.2 6.41891 378.2 5.25891 378.12 3.92891C378.04 2.51891 377.71 1.85891 376.34 1.56891C376.01 1.48891 375.31 1.44891 374.73 1.44891C374.27 1.44891 374.03 1.36891 374.03 1.07891C374.03 0.788906 374.32 0.708906 374.94 0.708906C376.06 0.708906 377.26 0.748906 378.29 0.748906C379.37 0.788906 380.32 0.828906 380.9 0.828906C382.23 0.828906 390.46 0.828906 391.25 0.788906C392.04 0.708906 392.7 0.618906 393.03 0.538906C393.24 0.498906 393.49 0.378906 393.69 0.378906C393.89 0.378906 393.94 0.538906 393.94 0.748906C393.94 1.03891 393.73 1.53891 393.61 3.43891C393.57 3.84891 393.49 5.67891 393.4 6.16891C393.36 6.37891 393.28 6.62891 392.99 6.62891C392.7 6.62891 392.62 6.41891 392.62 6.04891C392.62 5.75891 392.58 5.05891 392.37 4.55891C392.08 3.81891 391.67 3.31891 389.6 3.06891C388.9 2.98891 384.55 2.89891 383.72 2.89891C383.51 2.89891 383.43 3.01891 383.43 3.30891V13.7789C383.43 14.0689 383.47 14.2389 383.72 14.2389C384.63 14.2389 389.39 14.2389 390.35 14.1589C391.34 14.0789 391.96 13.9489 392.34 13.5389C392.63 13.2089 392.8 12.9989 393 12.9989C393.17 12.9989 393.29 13.0789 393.29 13.3289C393.29 13.5789 393.13 14.2389 392.96 16.3489C392.92 17.1789 392.79 18.8289 392.79 19.1189C392.79 19.4489 392.79 19.9089 392.42 19.9089C392.13 19.9089 392.05 19.7389 392.05 19.5389C392.01 19.1289 392.01 18.5889 391.88 18.0489C391.67 17.2189 391.09 16.5989 389.56 16.4289C388.77 16.3489 384.67 16.3089 383.68 16.3089C383.47 16.3089 383.43 16.4789 383.43 16.7189V19.9889C383.43 21.3989 383.39 25.2089 383.43 26.4089C383.51 29.2689 384.17 29.8889 388.4 29.8889C389.48 29.8889 391.22 29.8889 392.29 29.3889C393.37 28.8889 393.86 28.0189 394.15 26.3289C394.23 25.8689 394.31 25.7089 394.6 25.7089C394.93 25.7089 394.93 26.0389 394.93 26.4589C394.93 27.4089 394.6 30.2289 394.39 31.0589C394.1 32.1389 393.73 32.1389 392.16 32.1389C389.05 32.1389 386.78 32.0589 385 32.0189C383.22 31.9389 381.94 31.8989 380.69 31.8989C380.23 31.8989 379.32 31.8989 378.33 31.9389C377.38 31.9389 376.3 32.0189 375.47 32.0189C374.93 32.0189 374.64 31.8989 374.64 31.6089C374.64 31.3989 374.81 31.2789 375.3 31.2789C375.92 31.2789 376.42 31.1989 376.79 31.1089C377.62 30.9389 377.82 30.0289 377.99 28.8289C378.2 27.0889 378.2 23.8189 378.2 20.0089V12.7189V12.7089Z" fill="#B2282D"/>
<path d="M405.79 26.37C405.87 29.6 406.41 30.68 407.24 30.97C407.94 31.22 408.73 31.26 409.39 31.26C409.85 31.26 410.09 31.34 410.09 31.59C410.09 31.92 409.72 32 409.14 32C406.45 32 404.79 31.88 404.01 31.88C403.64 31.88 401.69 32 399.54 32C399 32 398.63 31.96 398.63 31.59C398.63 31.34 398.88 31.26 399.29 31.26C399.83 31.26 400.57 31.22 401.15 31.05C402.23 30.72 402.39 29.52 402.43 25.92L402.8 1.41C402.8 0.58 402.92 0 403.34 0C403.8 0 404.17 0.54 404.87 1.28C405.37 1.82 411.66 8.57 417.7 14.57C420.52 17.38 426.1 23.35 426.81 24.01H427.02L426.61 5.42C426.57 2.89 426.2 2.11 425.2 1.69C424.58 1.44 423.59 1.44 423 1.44C422.5 1.44 422.34 1.32 422.34 1.07C422.34 0.74 422.79 0.7 423.42 0.7C425.57 0.7 427.56 0.82 428.43 0.82C428.89 0.82 430.46 0.7 432.49 0.7C433.03 0.7 433.44 0.74 433.44 1.07C433.44 1.32 433.19 1.44 432.69 1.44C432.28 1.44 431.95 1.44 431.45 1.56C430.29 1.89 429.96 2.76 429.92 5.08L429.46 31.21C429.46 32.12 429.3 32.49 428.92 32.49C428.47 32.49 427.97 32.03 427.51 31.58C424.9 29.1 419.6 23.67 415.3 19.41C410.79 14.94 406.19 9.76 405.45 8.98H405.33L405.79 26.37Z" fill="#B2282D"/>
<path d="M441.35 28.0689C437.29 24.5089 436.22 19.8689 436.22 15.8589C436.22 13.0389 437.09 8.15891 441.06 4.51891C444.04 1.78891 447.97 0.128906 454.14 0.128906C456.71 0.128906 458.24 0.298906 460.14 0.538906C461.71 0.748906 463.04 1.11891 464.28 1.23891C464.74 1.27891 464.9 1.48891 464.9 1.73891C464.9 2.06891 464.78 2.56891 464.69 4.01891C464.61 5.38891 464.65 7.65891 464.57 8.48891C464.53 9.10891 464.45 9.43891 464.07 9.43891C463.74 9.43891 463.66 9.10891 463.66 8.52891C463.62 7.24891 463.08 5.79891 462.05 4.71891C460.68 3.26891 457.45 2.14891 453.65 2.14891C450.05 2.14891 447.69 3.05891 445.87 4.71891C442.85 7.48891 442.06 11.4289 442.06 15.4389C442.06 25.2889 449.55 30.1789 455.1 30.1789C458.78 30.1789 461.02 29.7689 462.68 27.8589C463.38 27.0689 463.92 25.8689 464.09 25.1289C464.21 24.4689 464.3 24.2989 464.63 24.2989C464.92 24.2989 465 24.5889 465 24.9189C465 25.4189 464.5 29.0189 464.09 30.4289C463.88 31.1289 463.72 31.3389 463.01 31.6289C461.35 32.2889 458.21 32.5789 455.56 32.5789C449.89 32.5789 445.13 31.3389 441.36 28.0689" fill="#B2282D"/>
<path d="M473.16 12.7089C473.16 6.41891 473.16 5.25891 473.08 3.92891C473 2.51891 472.67 1.85891 471.3 1.56891C470.97 1.48891 470.27 1.44891 469.69 1.44891C469.23 1.44891 468.99 1.36891 468.99 1.07891C468.99 0.788906 469.28 0.708906 469.9 0.708906C471.02 0.708906 472.22 0.748906 473.25 0.748906C474.33 0.788906 475.28 0.828906 475.86 0.828906C477.19 0.828906 485.42 0.828906 486.21 0.788906C487 0.708906 487.66 0.618906 487.99 0.538906C488.2 0.498906 488.45 0.378906 488.65 0.378906C488.85 0.378906 488.9 0.538906 488.9 0.748906C488.9 1.03891 488.69 1.53891 488.57 3.43891C488.53 3.84891 488.45 5.67891 488.36 6.16891C488.32 6.37891 488.24 6.62891 487.95 6.62891C487.66 6.62891 487.58 6.41891 487.58 6.04891C487.58 5.75891 487.54 5.05891 487.33 4.55891C487.04 3.81891 486.63 3.31891 484.56 3.06891C483.86 2.98891 479.51 2.89891 478.68 2.89891C478.47 2.89891 478.39 3.01891 478.39 3.30891V13.7789C478.39 14.0689 478.43 14.2389 478.68 14.2389C479.59 14.2389 484.35 14.2389 485.3 14.1589C486.29 14.0789 486.92 13.9489 487.29 13.5389C487.58 13.2089 487.75 12.9989 487.95 12.9989C488.11 12.9989 488.24 13.0789 488.24 13.3289C488.24 13.5789 488.08 14.2389 487.91 16.3489C487.87 17.1789 487.74 18.8289 487.74 19.1189C487.74 19.4489 487.74 19.9089 487.37 19.9089C487.08 19.9089 487 19.7389 487 19.5389C486.96 19.1289 486.96 18.5889 486.83 18.0489C486.62 17.2189 486.04 16.5989 484.51 16.4289C483.72 16.3489 479.62 16.3089 478.63 16.3089C478.42 16.3089 478.38 16.4789 478.38 16.7189V19.9889C478.38 21.3989 478.34 25.2089 478.38 26.4089C478.46 29.2689 479.12 29.8889 483.35 29.8889C484.43 29.8889 486.17 29.8889 487.24 29.3889C488.32 28.8889 488.81 28.0189 489.1 26.3289C489.18 25.8689 489.26 25.7089 489.56 25.7089C489.89 25.7089 489.89 26.0389 489.89 26.4589C489.89 27.4089 489.56 30.2289 489.35 31.0589C489.06 32.1389 488.69 32.1389 487.12 32.1389C484.02 32.1389 481.74 32.0589 479.96 32.0189C478.18 31.9389 476.9 31.8989 475.65 31.8989C475.2 31.8989 474.28 31.8989 473.29 31.9389C472.34 31.9389 471.26 32.0189 470.43 32.0189C469.89 32.0189 469.6 31.8989 469.6 31.6089C469.6 31.3989 469.76 31.2789 470.26 31.2789C470.88 31.2789 471.38 31.1989 471.75 31.1089C472.58 30.9389 472.78 30.0289 472.95 28.8289C473.16 27.0889 473.16 23.8189 473.16 20.0089V12.7189V12.7089Z" fill="#B2282D"/>
<path d="M199.55 50.04C197.82 48.48 197.37 46.44 197.37 44.67C197.37 43.43 197.74 41.29 199.43 39.68C200.7 38.48 202.37 37.75 205 37.75C206.09 37.75 206.74 37.82 207.55 37.93C208.22 38.02 208.78 38.18 209.31 38.24C209.5 38.26 209.57 38.35 209.57 38.46C209.57 38.61 209.52 38.82 209.48 39.46C209.44 40.06 209.46 41.06 209.43 41.42C209.41 41.69 209.38 41.84 209.22 41.84C209.08 41.84 209.04 41.69 209.04 41.44C209.02 40.88 208.79 40.24 208.35 39.77C207.77 39.13 206.39 38.64 204.77 38.64C203.24 38.64 202.23 39.04 201.46 39.77C200.17 40.99 199.84 42.72 199.84 44.48C199.84 48.81 203.03 50.96 205.39 50.96C206.96 50.96 207.91 50.78 208.61 49.94C208.91 49.59 209.14 49.07 209.21 48.74C209.26 48.45 209.3 48.38 209.44 48.38C209.56 48.38 209.6 48.51 209.6 48.65C209.6 48.87 209.39 50.45 209.21 51.07C209.12 51.38 209.05 51.47 208.75 51.6C208.05 51.89 206.71 52.02 205.58 52.02C203.17 52.02 201.14 51.47 199.54 50.04H199.55Z" fill="white"/>
<path d="M212.51 44.8917C212.51 41.7817 214.5 37.7617 219.79 37.7617C224.18 37.7617 226.91 40.4017 226.91 44.5617C226.91 48.7217 224.09 52.0217 219.62 52.0217C214.56 52.0217 212.52 48.1117 212.52 44.8917H212.51ZM224.44 45.2417C224.44 41.1617 222.17 38.6417 219.28 38.6417C217.25 38.6417 214.95 39.8017 214.95 44.3317C214.95 48.1217 216.98 51.1217 220.36 51.1217C221.59 51.1217 224.45 50.5017 224.45 45.2417H224.44Z" fill="white"/>
<path d="M233.84 46.4913C233.84 48.8213 233.84 50.0813 234.21 50.4013C234.51 50.6713 234.97 50.8013 236.34 50.8013C237.27 50.8013 237.96 50.7813 238.4 50.2913C238.61 50.0513 238.82 49.5413 238.86 49.2013C238.88 49.0413 238.91 48.9313 239.05 48.9313C239.17 48.9313 239.19 49.0213 239.19 49.2413C239.19 49.4413 239.07 50.8013 238.93 51.3313C238.82 51.7313 238.74 51.8213 237.82 51.8213C236.55 51.8213 235.64 51.7813 234.84 51.7713C234.05 51.7313 233.41 51.7213 232.69 51.7213C232.5 51.7213 232.11 51.7213 231.69 51.7413C231.29 51.7413 230.83 51.7812 230.47 51.7812C230.24 51.7812 230.12 51.7312 230.12 51.6012C230.12 51.5112 230.19 51.4513 230.4 51.4513C230.66 51.4513 230.88 51.4113 231.03 51.3813C231.38 51.3113 231.47 50.9113 231.54 50.3813C231.63 49.6213 231.63 48.1813 231.63 46.5013V43.3013C231.63 40.5313 231.63 40.0312 231.6 39.4412C231.56 38.8212 231.42 38.5313 230.84 38.4013C230.7 38.3613 230.49 38.3512 230.26 38.3512C230.07 38.3512 229.96 38.3112 229.96 38.1912C229.96 38.0712 230.08 38.0312 230.35 38.0312C231.18 38.0312 232.29 38.0813 232.76 38.0813C233.18 38.0813 234.47 38.0312 235.16 38.0312C235.41 38.0312 235.53 38.0712 235.53 38.1912C235.53 38.3112 235.42 38.3512 235.21 38.3512C235.02 38.3512 234.73 38.3713 234.52 38.4013C234.04 38.4913 233.9 38.8012 233.87 39.4412C233.83 40.0212 233.83 40.5313 233.83 43.3013V46.5013L233.84 46.4913Z" fill="white"/>
<path d="M245.55 46.4913C245.55 48.8213 245.55 50.0813 245.92 50.4013C246.22 50.6713 246.68 50.8013 248.05 50.8013C248.98 50.8013 249.67 50.7813 250.11 50.2913C250.32 50.0513 250.53 49.5413 250.57 49.2013C250.59 49.0413 250.62 48.9313 250.76 48.9313C250.88 48.9313 250.9 49.0213 250.9 49.2413C250.9 49.4413 250.78 50.8013 250.64 51.3313C250.53 51.7313 250.45 51.8213 249.53 51.8213C248.26 51.8213 247.35 51.7813 246.55 51.7713C245.76 51.7313 245.12 51.7213 244.4 51.7213C244.21 51.7213 243.82 51.7213 243.4 51.7413C243 51.7413 242.54 51.7812 242.19 51.7812C241.96 51.7812 241.84 51.7312 241.84 51.6012C241.84 51.5112 241.91 51.4513 242.12 51.4513C242.38 51.4513 242.6 51.4113 242.75 51.3813C243.1 51.3113 243.19 50.9113 243.26 50.3813C243.35 49.6213 243.35 48.1813 243.35 46.5013V43.3013C243.35 40.5313 243.35 40.0312 243.32 39.4412C243.29 38.8212 243.14 38.5313 242.56 38.4013C242.42 38.3613 242.21 38.3512 241.98 38.3512C241.79 38.3512 241.68 38.3112 241.68 38.1912C241.68 38.0712 241.8 38.0312 242.07 38.0312C242.9 38.0312 244.01 38.0813 244.48 38.0813C244.9 38.0813 246.19 38.0312 246.88 38.0312C247.13 38.0312 247.25 38.0712 247.25 38.1912C247.25 38.3112 247.14 38.3512 246.93 38.3512C246.74 38.3512 246.45 38.3713 246.24 38.4013C245.76 38.4913 245.62 38.8012 245.59 39.4412C245.56 40.0212 245.56 40.5313 245.56 43.3013V46.5013L245.55 46.4913Z" fill="white"/>
<path d="M255.06 43.2889C255.06 40.5189 255.06 40.0189 255.03 39.4289C255 38.8089 254.85 38.5189 254.27 38.3889C254.13 38.3489 253.83 38.3389 253.58 38.3389C253.39 38.3389 253.28 38.2989 253.28 38.1789C253.28 38.0589 253.4 38.0189 253.67 38.0189C254.15 38.0189 254.66 38.0389 255.1 38.0389C255.56 38.0589 255.96 38.0789 256.21 38.0789C256.77 38.0789 260.28 38.0789 260.61 38.0589C260.95 38.0189 261.23 37.9889 261.37 37.9489C261.46 37.9289 261.56 37.8789 261.65 37.8789C261.74 37.8789 261.76 37.9489 261.76 38.0389C261.76 38.1689 261.67 38.3889 261.62 39.2189C261.6 39.3989 261.57 40.1989 261.53 40.4189C261.51 40.5089 261.48 40.6189 261.35 40.6189C261.22 40.6189 261.19 40.5289 261.19 40.3689C261.19 40.2389 261.17 39.9289 261.08 39.7089C260.96 39.3789 260.78 39.1589 259.9 39.0489C259.6 39.0089 257.75 38.9789 257.4 38.9789C257.31 38.9789 257.28 39.0289 257.28 39.1589V43.7589C257.28 43.8889 257.3 43.9589 257.4 43.9589C257.79 43.9589 259.81 43.9589 260.22 43.9189C260.64 43.8789 260.91 43.8289 261.07 43.6489C261.19 43.4989 261.26 43.4089 261.35 43.4089C261.42 43.4089 261.47 43.4489 261.47 43.5589C261.47 43.6689 261.4 43.9589 261.33 44.8889C261.31 45.2489 261.26 45.9789 261.26 46.1089C261.26 46.2589 261.26 46.4589 261.1 46.4589C260.98 46.4589 260.94 46.3889 260.94 46.2989C260.92 46.1189 260.92 45.8789 260.87 45.6489C260.78 45.2889 260.54 45.0089 259.88 44.9389C259.54 44.8989 257.8 44.8889 257.38 44.8889C257.29 44.8889 257.27 44.9589 257.27 45.0689V46.5089C257.27 47.1289 257.25 48.7989 257.27 49.3289C257.3 50.5889 257.59 50.8589 259.38 50.8589C259.84 50.8589 260.58 50.8589 261.04 50.6389C261.5 50.4189 261.71 50.0389 261.83 49.2889C261.86 49.0889 261.9 49.0189 262.02 49.0189C262.16 49.0189 262.16 49.1589 262.16 49.3489C262.16 49.7689 262.02 51.0089 261.93 51.3689C261.81 51.8389 261.65 51.8389 260.98 51.8389C259.66 51.8389 258.69 51.7989 257.93 51.7889C257.17 51.7489 256.63 51.7389 256.1 51.7389C255.91 51.7389 255.52 51.7389 255.1 51.7589C254.7 51.7589 254.24 51.7989 253.89 51.7989C253.66 51.7989 253.54 51.7489 253.54 51.6189C253.54 51.5289 253.61 51.4689 253.82 51.4689C254.08 51.4689 254.3 51.4289 254.45 51.3989C254.8 51.3289 254.89 50.9289 254.96 50.3989C255.05 49.6389 255.05 48.1989 255.05 46.5189V43.3189L255.06 43.2889Z" fill="white"/>
<path d="M277.94 50.5517C277.94 51.0417 277.92 51.0817 277.71 51.2017C276.56 51.8217 274.84 52.0217 273.46 52.0217C269.14 52.0217 265.32 49.9117 265.32 44.8917C265.32 41.9817 266.78 39.9417 268.39 38.9417C270.08 37.8817 271.65 37.7617 273.13 37.7617C274.35 37.7617 275.9 37.9817 276.25 38.0517C276.62 38.1217 277.24 38.2317 277.64 38.2517C277.85 38.2717 277.89 38.3417 277.89 38.4717C277.89 38.6717 277.77 39.1817 277.77 41.4517C277.77 41.7417 277.72 41.8317 277.58 41.8317C277.46 41.8317 277.42 41.7417 277.4 41.5917C277.35 41.1717 277.26 40.5917 276.8 40.0817C276.27 39.5017 274.86 38.6617 272.87 38.6617C271.9 38.6617 270.61 38.7317 269.38 39.7917C268.39 40.6517 267.76 42.0117 267.76 44.2517C267.76 48.1617 270.17 51.0917 273.89 51.0917C274.35 51.0917 274.97 51.0917 275.39 50.8917C275.65 50.7617 275.73 50.5317 275.73 50.2217V48.5117C275.73 47.6017 275.73 46.9117 275.71 46.3617C275.69 45.7417 275.53 45.4517 274.95 45.3217C274.81 45.2817 274.51 45.2717 274.26 45.2717C274.1 45.2717 274 45.2317 274 45.1217C274 44.9717 274.12 44.9417 274.37 44.9417C275.29 44.9417 276.4 44.9917 276.92 44.9917C277.44 44.9917 278.4 44.9417 278.98 44.9417C279.21 44.9417 279.33 44.9817 279.33 45.1217C279.33 45.2317 279.22 45.2717 279.1 45.2717C278.96 45.2717 278.84 45.2917 278.62 45.3217C278.14 45.4117 277.97 45.7217 277.95 46.3617C277.93 46.9117 277.93 47.6317 277.93 48.5417V50.5417L277.94 50.5517Z" fill="white"/>
<path d="M283.91 43.2889C283.91 40.5189 283.91 40.0189 283.88 39.4289C283.84 38.8089 283.7 38.5189 283.12 38.3889C282.98 38.3489 282.68 38.3389 282.43 38.3389C282.24 38.3389 282.13 38.2989 282.13 38.1789C282.13 38.0589 282.25 38.0189 282.52 38.0189C283 38.0189 283.51 38.0389 283.95 38.0389C284.41 38.0589 284.81 38.0789 285.06 38.0789C285.62 38.0789 289.13 38.0789 289.46 38.0589C289.8 38.0189 290.08 37.9889 290.22 37.9489C290.31 37.9289 290.41 37.8789 290.5 37.8789C290.59 37.8789 290.6 37.9489 290.6 38.0389C290.6 38.1689 290.51 38.3889 290.46 39.2189C290.44 39.3989 290.41 40.1989 290.37 40.4189C290.35 40.5089 290.32 40.6189 290.19 40.6189C290.06 40.6189 290.03 40.5289 290.03 40.3689C290.03 40.2389 290.01 39.9289 289.92 39.7089C289.8 39.3789 289.62 39.1589 288.74 39.0489C288.44 39.0089 286.59 38.9789 286.24 38.9789C286.15 38.9789 286.12 39.0289 286.12 39.1589V43.7589C286.12 43.8889 286.14 43.9589 286.24 43.9589C286.63 43.9589 288.65 43.9589 289.06 43.9189C289.48 43.8789 289.75 43.8289 289.91 43.6489C290.03 43.4989 290.1 43.4089 290.19 43.4089C290.26 43.4089 290.31 43.4489 290.31 43.5589C290.31 43.6689 290.24 43.9589 290.17 44.8889C290.15 45.2489 290.1 45.9789 290.1 46.1089C290.1 46.2589 290.1 46.4589 289.94 46.4589C289.82 46.4589 289.78 46.3889 289.78 46.2989C289.76 46.1189 289.76 45.8789 289.71 45.6489C289.62 45.2889 289.38 45.0089 288.72 44.9389C288.38 44.8989 286.64 44.8889 286.22 44.8889C286.13 44.8889 286.11 44.9589 286.11 45.0689V46.5089C286.11 47.1289 286.09 48.7989 286.11 49.3289C286.14 50.5889 286.43 50.8589 288.22 50.8589C288.68 50.8589 289.42 50.8589 289.88 50.6389C290.34 50.4189 290.55 50.0389 290.67 49.2889C290.7 49.0889 290.74 49.0189 290.86 49.0189C291 49.0189 291 49.1589 291 49.3489C291 49.7689 290.86 51.0089 290.77 51.3689C290.65 51.8389 290.49 51.8389 289.82 51.8389C288.5 51.8389 287.53 51.7989 286.77 51.7889C286.01 51.7489 285.47 51.7389 284.94 51.7389C284.75 51.7389 284.36 51.7389 283.93 51.7589C283.53 51.7589 283.07 51.7989 282.72 51.7989C282.49 51.7989 282.37 51.7489 282.37 51.6189C282.37 51.5289 282.44 51.4689 282.65 51.4689C282.91 51.4689 283.13 51.4289 283.28 51.3989C283.63 51.3289 283.72 50.9289 283.79 50.3989C283.88 49.6389 283.88 48.1989 283.88 46.5189V43.3189L283.91 43.2889Z" fill="white"/>
<path d="M300.52 44.8917C300.52 41.7817 302.51 37.7617 307.8 37.7617C312.19 37.7617 314.92 40.4017 314.92 44.5617C314.92 48.7217 312.1 52.0217 307.63 52.0217C302.57 52.0217 300.53 48.1117 300.53 44.8917H300.52ZM312.45 45.2417C312.45 41.1617 310.18 38.6417 307.29 38.6417C305.26 38.6417 302.96 39.8017 302.96 44.3317C302.96 48.1217 304.99 51.1217 308.37 51.1217C309.6 51.1217 312.46 50.5017 312.46 45.2417H312.45Z" fill="white"/>
<path d="M321.87 46.4911C321.87 48.2411 321.87 49.6011 321.96 50.3711C322.01 50.9011 322.12 51.3011 322.65 51.3711C322.9 51.4111 323.28 51.4411 323.53 51.4411C323.76 51.4411 323.83 51.4911 323.83 51.5911C323.83 51.7211 323.71 51.7711 323.44 51.7711C322.33 51.7711 321.22 51.7211 320.76 51.7211C320.3 51.7211 319.19 51.7711 318.52 51.7711C318.27 51.7711 318.15 51.7311 318.15 51.5911C318.15 51.5011 318.22 51.4411 318.41 51.4411C318.67 51.4411 318.89 51.4011 319.04 51.3711C319.39 51.3011 319.48 50.9011 319.55 50.3711C319.64 49.6111 319.64 48.2411 319.64 46.4911V43.2911C319.64 40.5211 319.64 40.0211 319.61 39.4311C319.58 38.8111 319.43 38.5211 318.85 38.3911C318.71 38.3511 318.41 38.3411 318.16 38.3411C317.98 38.3411 317.86 38.3011 317.86 38.1911C317.86 38.0411 318 38.0111 318.26 38.0111C318.72 38.0111 319.23 38.0311 319.69 38.0311C320.15 38.0511 320.55 38.0711 320.8 38.0711C321.47 38.0711 325.05 38.0711 325.45 38.0511C325.79 38.0311 326 38.0311 326.17 37.9811C326.28 37.9411 326.36 37.8711 326.45 37.8711C326.52 37.8711 326.57 37.9411 326.57 38.0311C326.57 38.1611 326.48 38.3811 326.43 38.8511C326.41 39.0311 326.38 40.1111 326.34 40.3211C326.32 40.4711 326.29 40.5711 326.16 40.5711C326.03 40.5711 326 40.4811 325.98 40.2811C325.98 40.1311 325.98 39.8411 325.87 39.5911C325.75 39.3411 325.38 39.0611 324.71 39.0411L322 38.9911C321.89 38.9911 321.84 39.0411 321.84 39.2411V43.7911C321.84 43.9011 321.86 43.9511 321.96 43.9511L324.22 43.9311C324.52 43.9311 324.77 43.9311 325.01 43.9111C325.35 43.8911 325.59 43.8211 325.77 43.5811C325.86 43.4711 325.89 43.4011 326 43.4011C326.07 43.4011 326.11 43.4511 326.11 43.5611C326.11 43.6711 326.02 44.1211 325.97 44.6911C325.93 45.0511 325.9 45.8911 325.9 46.0211C325.9 46.1811 325.9 46.3711 325.72 46.3711C325.61 46.3711 325.58 46.2411 325.58 46.1211C325.58 46.0011 325.54 45.7711 325.47 45.5611C325.38 45.3111 325.12 44.9811 324.57 44.9011C324.13 44.8511 322.26 44.8511 321.96 44.8511C321.87 44.8511 321.84 44.8911 321.84 45.0111V46.4811L321.87 46.4911Z" fill="white"/>
<path d="M338 43.2889C338 40.5189 338 40.0189 337.97 39.4289C337.93 38.8089 337.79 38.5189 337.21 38.3889C337.07 38.3489 336.77 38.3389 336.52 38.3389C336.33 38.3389 336.22 38.2989 336.22 38.1789C336.22 38.0589 336.34 38.0189 336.61 38.0189C337.09 38.0189 337.6 38.0389 338.04 38.0389C338.5 38.0589 338.9 38.0789 339.15 38.0789C339.71 38.0789 343.22 38.0789 343.55 38.0589C343.89 38.0189 344.17 37.9889 344.31 37.9489C344.4 37.9289 344.5 37.8789 344.59 37.8789C344.68 37.8789 344.69 37.9489 344.69 38.0389C344.69 38.1689 344.6 38.3889 344.55 39.2189C344.53 39.3989 344.5 40.1989 344.46 40.4189C344.44 40.5089 344.41 40.6189 344.28 40.6189C344.15 40.6189 344.12 40.5289 344.12 40.3689C344.12 40.2389 344.1 39.9289 344.01 39.7089C343.89 39.3789 343.71 39.1589 342.83 39.0489C342.53 39.0089 340.68 38.9789 340.33 38.9789C340.24 38.9789 340.21 39.0289 340.21 39.1589V43.7589C340.21 43.8889 340.23 43.9589 340.33 43.9589C340.72 43.9589 342.74 43.9589 343.15 43.9189C343.57 43.8789 343.84 43.8289 344 43.6489C344.12 43.4989 344.19 43.4089 344.28 43.4089C344.35 43.4089 344.4 43.4489 344.4 43.5589C344.4 43.6689 344.33 43.9589 344.26 44.8889C344.24 45.2489 344.19 45.9789 344.19 46.1089C344.19 46.2589 344.19 46.4589 344.03 46.4589C343.91 46.4589 343.87 46.3889 343.87 46.2989C343.85 46.1189 343.85 45.8789 343.8 45.6489C343.71 45.2889 343.47 45.0089 342.81 44.9389C342.47 44.8989 340.73 44.8889 340.31 44.8889C340.22 44.8889 340.2 44.9589 340.2 45.0689V46.5089C340.2 47.1289 340.18 48.7989 340.2 49.3289C340.23 50.5889 340.52 50.8589 342.31 50.8589C342.77 50.8589 343.51 50.8589 343.97 50.6389C344.43 50.4189 344.64 50.0389 344.76 49.2889C344.79 49.0889 344.83 49.0189 344.95 49.0189C345.09 49.0189 345.09 49.1589 345.09 49.3489C345.09 49.7689 344.95 51.0089 344.86 51.3689C344.74 51.8389 344.58 51.8389 343.91 51.8389C342.59 51.8389 341.62 51.7989 340.86 51.7889C340.1 51.7489 339.56 51.7389 339.03 51.7389C338.84 51.7389 338.45 51.7389 338.02 51.7589C337.62 51.7589 337.16 51.7989 336.81 51.7989C336.58 51.7989 336.46 51.7489 336.46 51.6189C336.46 51.5289 336.53 51.4689 336.74 51.4689C337 51.4689 337.22 51.4289 337.37 51.3989C337.72 51.3289 337.81 50.9289 337.88 50.3989C337.97 49.6389 337.97 48.1989 337.97 46.5189V43.3189L338 43.2889Z" fill="white"/>
<path d="M351.17 49.29C351.2 50.71 351.43 51.18 351.79 51.31C352.09 51.42 352.42 51.44 352.71 51.44C352.9 51.44 353.01 51.48 353.01 51.59C353.01 51.74 352.85 51.77 352.6 51.77C351.45 51.77 350.75 51.72 350.42 51.72C350.26 51.72 349.43 51.77 348.52 51.77C348.29 51.77 348.13 51.75 348.13 51.59C348.13 51.48 348.23 51.44 348.41 51.44C348.64 51.44 348.96 51.42 349.2 51.35C349.66 51.2 349.73 50.68 349.75 49.09L349.91 38.37C349.91 38.01 349.96 37.75 350.14 37.75C350.33 37.75 350.49 37.99 350.79 38.31C351 38.55 353.68 41.46 356.25 44.1C357.45 45.34 359.83 47.96 360.13 48.25H360.22L360.04 40.08C360.02 38.97 359.86 38.62 359.44 38.44C359.18 38.33 358.75 38.33 358.51 38.33C358.3 38.33 358.23 38.28 358.23 38.17C358.23 38.02 358.42 38.01 358.69 38.01C359.61 38.01 360.45 38.06 360.82 38.06C361.01 38.06 361.68 38.01 362.55 38.01C362.78 38.01 362.95 38.03 362.95 38.17C362.95 38.28 362.84 38.33 362.63 38.33C362.45 38.33 362.31 38.33 362.1 38.38C361.61 38.53 361.47 38.91 361.45 39.93L361.26 51.41C361.26 51.81 361.19 51.97 361.03 51.97C360.84 51.97 360.62 51.77 360.43 51.57C359.32 50.48 357.06 48.1 355.23 46.22C353.31 44.25 351.35 42.04 351.04 41.69H350.99L351.18 49.28L351.17 49.29Z" fill="white"/>
<path d="M378.44 50.5517C378.44 51.0417 378.42 51.0817 378.21 51.2017C377.06 51.8217 375.34 52.0217 373.96 52.0217C369.64 52.0217 365.82 49.9117 365.82 44.8917C365.82 41.9817 367.28 39.9417 368.89 38.9417C370.58 37.8817 372.15 37.7617 373.63 37.7617C374.85 37.7617 376.4 37.9817 376.75 38.0517C377.12 38.1217 377.74 38.2317 378.14 38.2517C378.35 38.2717 378.39 38.3417 378.39 38.4717C378.39 38.6717 378.27 39.1817 378.27 41.4517C378.27 41.7417 378.22 41.8317 378.08 41.8317C377.96 41.8317 377.92 41.7417 377.9 41.5917C377.85 41.1717 377.76 40.5917 377.3 40.0817C376.77 39.5017 375.36 38.6617 373.37 38.6617C372.4 38.6617 371.11 38.7317 369.88 39.7917C368.89 40.6517 368.26 42.0117 368.26 44.2517C368.26 48.1617 370.67 51.0917 374.39 51.0917C374.85 51.0917 375.47 51.0917 375.89 50.8917C376.15 50.7617 376.23 50.5317 376.23 50.2217V48.5117C376.23 47.6017 376.23 46.9117 376.21 46.3617C376.19 45.7417 376.03 45.4517 375.45 45.3217C375.31 45.2817 375.01 45.2717 374.76 45.2717C374.6 45.2717 374.5 45.2317 374.5 45.1217C374.5 44.9717 374.62 44.9417 374.87 44.9417C375.79 44.9417 376.9 44.9917 377.42 44.9917C377.94 44.9917 378.9 44.9417 379.48 44.9417C379.71 44.9417 379.83 44.9817 379.83 45.1217C379.83 45.2317 379.72 45.2717 379.6 45.2717C379.46 45.2717 379.34 45.2917 379.12 45.3217C378.64 45.4117 378.47 45.7217 378.45 46.3617C378.43 46.9117 378.43 47.6317 378.43 48.5417V50.5417L378.44 50.5517Z" fill="white"/>
<path d="M384.41 43.2917C384.41 40.5217 384.41 40.0217 384.38 39.4317C384.35 38.8117 384.17 38.5017 383.78 38.4117C383.59 38.3617 383.36 38.3417 383.15 38.3417C382.97 38.3417 382.87 38.3017 382.87 38.1617C382.87 38.0517 383.01 38.0117 383.29 38.0117C383.96 38.0117 385.07 38.0617 385.58 38.0617C386.02 38.0617 387.06 38.0117 387.73 38.0117C387.96 38.0117 388.1 38.0517 388.1 38.1617C388.1 38.3117 388 38.3417 387.82 38.3417C387.64 38.3417 387.5 38.3617 387.29 38.3917C386.81 38.4817 386.67 38.7917 386.64 39.4317C386.61 40.0117 386.61 40.5217 386.61 43.2917V46.4917C386.61 48.2617 386.61 49.6917 386.68 50.4817C386.73 50.9717 386.86 51.3017 387.39 51.3717C387.64 51.4117 388.02 51.4417 388.29 51.4417C388.48 51.4417 388.57 51.4917 388.57 51.5917C388.57 51.7217 388.43 51.7717 388.23 51.7717C387.07 51.7717 385.96 51.7217 385.48 51.7217C385.08 51.7217 383.96 51.7717 383.26 51.7717C383.03 51.7717 382.91 51.7217 382.91 51.5917C382.91 51.5017 382.98 51.4417 383.19 51.4417C383.45 51.4417 383.67 51.4017 383.82 51.3717C384.17 51.3017 384.28 50.9917 384.33 50.4617C384.42 49.7017 384.42 48.2617 384.42 46.4917V43.2917H384.41Z" fill="white"/>
<path d="M394.41 49.29C394.44 50.71 394.67 51.18 395.03 51.31C395.33 51.42 395.66 51.44 395.95 51.44C396.14 51.44 396.25 51.48 396.25 51.59C396.25 51.74 396.09 51.77 395.84 51.77C394.69 51.77 393.99 51.72 393.66 51.72C393.5 51.72 392.67 51.77 391.76 51.77C391.53 51.77 391.37 51.75 391.37 51.59C391.37 51.48 391.47 51.44 391.65 51.44C391.88 51.44 392.2 51.42 392.44 51.35C392.9 51.2 392.97 50.68 392.99 49.09L393.15 38.37C393.15 38.01 393.2 37.75 393.38 37.75C393.57 37.75 393.73 37.99 394.03 38.31C394.24 38.55 396.92 41.46 399.49 44.1C400.69 45.34 403.07 47.96 403.37 48.25H403.46L403.28 40.08C403.26 38.97 403.1 38.62 402.68 38.44C402.42 38.33 401.99 38.33 401.75 38.33C401.54 38.33 401.47 38.28 401.47 38.17C401.47 38.02 401.66 38.01 401.93 38.01C402.85 38.01 403.69 38.06 404.06 38.06C404.25 38.06 404.92 38.01 405.79 38.01C406.02 38.01 406.19 38.03 406.19 38.17C406.19 38.28 406.08 38.33 405.87 38.33C405.69 38.33 405.55 38.33 405.34 38.38C404.85 38.53 404.71 38.91 404.69 39.93L404.5 51.41C404.5 51.81 404.43 51.97 404.27 51.97C404.08 51.97 403.86 51.77 403.67 51.57C402.56 50.48 400.3 48.1 398.47 46.22C396.55 44.25 394.59 42.04 394.28 41.69H394.23L394.42 49.28L394.41 49.29Z" fill="white"/>
<path d="M411.16 43.2889C411.16 40.5189 411.16 40.0189 411.13 39.4289C411.09 38.8089 410.95 38.5189 410.37 38.3889C410.23 38.3489 409.93 38.3389 409.68 38.3389C409.49 38.3389 409.38 38.2989 409.38 38.1789C409.38 38.0589 409.5 38.0189 409.77 38.0189C410.25 38.0189 410.76 38.0389 411.2 38.0389C411.66 38.0589 412.06 38.0789 412.31 38.0789C412.87 38.0789 416.38 38.0789 416.71 38.0589C417.05 38.0189 417.33 37.9889 417.47 37.9489C417.56 37.9289 417.66 37.8789 417.75 37.8789C417.84 37.8789 417.85 37.9489 417.85 38.0389C417.85 38.1689 417.76 38.3889 417.71 39.2189C417.69 39.3989 417.66 40.1989 417.62 40.4189C417.6 40.5089 417.57 40.6189 417.44 40.6189C417.31 40.6189 417.28 40.5289 417.28 40.3689C417.28 40.2389 417.26 39.9289 417.17 39.7089C417.05 39.3789 416.87 39.1589 415.99 39.0489C415.69 39.0089 413.84 38.9789 413.49 38.9789C413.4 38.9789 413.37 39.0289 413.37 39.1589V43.7589C413.37 43.8889 413.39 43.9589 413.49 43.9589C413.88 43.9589 415.9 43.9589 416.31 43.9189C416.73 43.8789 417 43.8289 417.16 43.6489C417.28 43.4989 417.35 43.4089 417.44 43.4089C417.51 43.4089 417.56 43.4489 417.56 43.5589C417.56 43.6689 417.49 43.9589 417.42 44.8889C417.4 45.2489 417.35 45.9789 417.35 46.1089C417.35 46.2589 417.35 46.4589 417.19 46.4589C417.07 46.4589 417.03 46.3889 417.03 46.2989C417.01 46.1189 417.01 45.8789 416.96 45.6489C416.87 45.2889 416.63 45.0089 415.97 44.9389C415.63 44.8989 413.89 44.8889 413.47 44.8889C413.38 44.8889 413.36 44.9589 413.36 45.0689V46.5089C413.36 47.1289 413.34 48.7989 413.36 49.3289C413.39 50.5889 413.68 50.8589 415.47 50.8589C415.93 50.8589 416.67 50.8589 417.13 50.6389C417.59 50.4189 417.8 50.0389 417.92 49.2889C417.95 49.0889 417.99 49.0189 418.11 49.0189C418.25 49.0189 418.25 49.1589 418.25 49.3489C418.25 49.7689 418.11 51.0089 418.02 51.3689C417.9 51.8389 417.74 51.8389 417.07 51.8389C415.75 51.8389 414.78 51.7989 414.02 51.7889C413.26 51.7489 412.72 51.7389 412.19 51.7389C412 51.7389 411.61 51.7389 411.18 51.7589C410.78 51.7589 410.32 51.7989 409.97 51.7989C409.74 51.7989 409.62 51.7489 409.62 51.6189C409.62 51.5289 409.69 51.4689 409.9 51.4689C410.16 51.4689 410.38 51.4289 410.53 51.3989C410.88 51.3289 410.97 50.9289 411.04 50.3989C411.13 49.6389 411.13 48.1989 411.13 46.5189V43.3189L411.16 43.2889Z" fill="white"/>
<path d="M423.35 43.2889C423.35 40.5189 423.35 40.0189 423.32 39.4289C423.28 38.8089 423.14 38.5189 422.56 38.3889C422.42 38.3489 422.12 38.3389 421.87 38.3389C421.68 38.3389 421.57 38.2989 421.57 38.1789C421.57 38.0589 421.69 38.0189 421.96 38.0189C422.44 38.0189 422.95 38.0389 423.39 38.0389C423.85 38.0589 424.25 38.0789 424.5 38.0789C425.06 38.0789 428.57 38.0789 428.9 38.0589C429.24 38.0189 429.52 37.9889 429.66 37.9489C429.75 37.9289 429.85 37.8789 429.94 37.8789C430.03 37.8789 430.04 37.9489 430.04 38.0389C430.04 38.1689 429.95 38.3889 429.9 39.2189C429.88 39.3989 429.85 40.1989 429.81 40.4189C429.79 40.5089 429.76 40.6189 429.63 40.6189C429.5 40.6189 429.47 40.5289 429.47 40.3689C429.47 40.2389 429.45 39.9289 429.36 39.7089C429.24 39.3789 429.06 39.1589 428.18 39.0489C427.88 39.0089 426.03 38.9789 425.68 38.9789C425.59 38.9789 425.56 39.0289 425.56 39.1589V43.7589C425.56 43.8889 425.58 43.9589 425.68 43.9589C426.07 43.9589 428.09 43.9589 428.5 43.9189C428.92 43.8789 429.19 43.8289 429.35 43.6489C429.47 43.4989 429.54 43.4089 429.63 43.4089C429.7 43.4089 429.75 43.4489 429.75 43.5589C429.75 43.6689 429.68 43.9589 429.61 44.8889C429.59 45.2489 429.54 45.9789 429.54 46.1089C429.54 46.2589 429.54 46.4589 429.38 46.4589C429.26 46.4589 429.22 46.3889 429.22 46.2989C429.2 46.1189 429.2 45.8789 429.15 45.6489C429.06 45.2889 428.82 45.0089 428.16 44.9389C427.82 44.8989 426.08 44.8889 425.66 44.8889C425.57 44.8889 425.55 44.9589 425.55 45.0689V46.5089C425.55 47.1289 425.53 48.7989 425.55 49.3289C425.58 50.5889 425.87 50.8589 427.66 50.8589C428.12 50.8589 428.86 50.8589 429.32 50.6389C429.78 50.4189 429.99 50.0389 430.11 49.2889C430.14 49.0889 430.18 49.0189 430.3 49.0189C430.44 49.0189 430.44 49.1589 430.44 49.3489C430.44 49.7689 430.3 51.0089 430.21 51.3689C430.09 51.8389 429.93 51.8389 429.26 51.8389C427.94 51.8389 426.97 51.7989 426.21 51.7889C425.45 51.7489 424.91 51.7389 424.38 51.7389C424.19 51.7389 423.8 51.7389 423.37 51.7589C422.97 51.7589 422.51 51.7989 422.16 51.7989C421.93 51.7989 421.81 51.7489 421.81 51.6189C421.81 51.5289 421.88 51.4689 422.09 51.4689C422.35 51.4689 422.57 51.4289 422.72 51.3989C423.07 51.3289 423.16 50.9289 423.23 50.3989C423.32 49.6389 423.32 48.1989 423.32 46.5189V43.3189L423.35 43.2889Z" fill="white"/>
<path d="M435.53 43.2895C435.53 40.5195 435.53 40.0195 435.5 39.4295C435.47 38.8095 435.32 38.5195 434.74 38.3895C434.6 38.3495 434.3 38.3395 434.05 38.3395C433.86 38.3395 433.75 38.2995 433.75 38.1795C433.75 38.0595 433.87 38.0195 434.14 38.0195C435.07 38.0195 436.18 38.0695 436.55 38.0695C437.15 38.0695 438.49 38.0195 439.03 38.0195C440.14 38.0195 441.32 38.1295 442.27 38.7995C442.76 39.1495 443.47 40.0695 443.47 41.2895C443.47 42.6395 442.92 43.8695 441.15 45.3695C442.72 47.4095 443.93 49.0295 444.97 50.1595C445.96 51.2095 446.68 51.3395 446.94 51.3995C447.13 51.4395 447.29 51.4495 447.43 51.4495C447.57 51.4495 447.64 51.4995 447.64 51.5995C447.64 51.7495 447.52 51.7795 447.3 51.7795H445.63C444.64 51.7795 444.2 51.6895 443.74 51.4295C442.98 51.0095 442.31 50.1595 441.33 48.7595C440.63 47.7595 439.81 46.5195 439.59 46.2495C439.5 46.1395 439.4 46.1195 439.27 46.1195L437.74 46.0795C437.65 46.0795 437.6 46.1195 437.6 46.2295V46.4795C437.6 48.1695 437.6 49.6095 437.69 50.3695C437.74 50.8995 437.85 51.2995 438.38 51.3695C438.64 51.4095 439.03 51.4395 439.24 51.4395C439.38 51.4395 439.45 51.4895 439.45 51.5895C439.45 51.7195 439.33 51.7695 439.1 51.7695C438.08 51.7695 436.77 51.7195 436.51 51.7195C436.17 51.7195 435.06 51.7695 434.36 51.7695C434.13 51.7695 434.01 51.7195 434.01 51.5895C434.01 51.4995 434.08 51.4395 434.29 51.4395C434.55 51.4395 434.77 51.3995 434.92 51.3695C435.27 51.2995 435.36 50.8995 435.43 50.3695C435.52 49.6095 435.52 48.1695 435.52 46.4895V43.2895H435.53ZM437.61 44.7295C437.61 44.9295 437.64 44.9995 437.77 45.0595C438.14 45.1895 438.67 45.2395 439.11 45.2395C439.81 45.2395 440.04 45.1695 440.36 44.9295C440.89 44.5295 441.4 43.6895 441.4 42.1995C441.4 39.6195 439.74 38.8695 438.7 38.8695C438.26 38.8695 437.94 38.8895 437.77 38.9395C437.65 38.9795 437.61 39.0495 437.61 39.1895V44.7195V44.7295Z" fill="white"/>
<path d="M449.89 43.2917C449.89 40.5217 449.89 40.0217 449.86 39.4317C449.83 38.8117 449.65 38.5017 449.26 38.4117C449.07 38.3617 448.84 38.3417 448.63 38.3417C448.45 38.3417 448.35 38.3017 448.35 38.1617C448.35 38.0517 448.49 38.0117 448.77 38.0117C449.44 38.0117 450.55 38.0617 451.06 38.0617C451.5 38.0617 452.54 38.0117 453.21 38.0117C453.44 38.0117 453.58 38.0517 453.58 38.1617C453.58 38.3117 453.48 38.3417 453.3 38.3417C453.12 38.3417 452.98 38.3617 452.77 38.3917C452.29 38.4817 452.15 38.7917 452.12 39.4317C452.09 40.0117 452.09 40.5217 452.09 43.2917V46.4917C452.09 48.2617 452.09 49.6917 452.16 50.4817C452.21 50.9717 452.34 51.3017 452.87 51.3717C453.12 51.4117 453.5 51.4417 453.77 51.4417C453.96 51.4417 454.05 51.4917 454.05 51.5917C454.05 51.7217 453.91 51.7717 453.71 51.7717C452.55 51.7717 451.44 51.7217 450.96 51.7217C450.56 51.7217 449.44 51.7717 448.74 51.7717C448.51 51.7717 448.39 51.7217 448.39 51.5917C448.39 51.5017 448.46 51.4417 448.67 51.4417C448.93 51.4417 449.15 51.4017 449.3 51.3717C449.65 51.3017 449.76 50.9917 449.81 50.4617C449.9 49.7017 449.9 48.2617 449.9 46.4917V43.2917H449.89Z" fill="white"/>
<path d="M459.89 49.29C459.92 50.71 460.15 51.18 460.51 51.31C460.81 51.42 461.14 51.44 461.43 51.44C461.62 51.44 461.73 51.48 461.73 51.59C461.73 51.74 461.57 51.77 461.32 51.77C460.17 51.77 459.47 51.72 459.14 51.72C458.98 51.72 458.15 51.77 457.24 51.77C457.01 51.77 456.85 51.75 456.85 51.59C456.85 51.48 456.95 51.44 457.13 51.44C457.36 51.44 457.68 51.42 457.92 51.35C458.38 51.2 458.45 50.68 458.47 49.09L458.63 38.37C458.63 38.01 458.68 37.75 458.86 37.75C459.05 37.75 459.21 37.99 459.51 38.31C459.72 38.55 462.4 41.46 464.97 44.1C466.17 45.34 468.55 47.96 468.85 48.25H468.94L468.76 40.08C468.74 38.97 468.58 38.62 468.16 38.44C467.9 38.33 467.47 38.33 467.23 38.33C467.02 38.33 466.95 38.28 466.95 38.17C466.95 38.02 467.14 38.01 467.41 38.01C468.33 38.01 469.17 38.06 469.54 38.06C469.73 38.06 470.4 38.01 471.27 38.01C471.5 38.01 471.67 38.03 471.67 38.17C471.67 38.28 471.56 38.33 471.35 38.33C471.17 38.33 471.03 38.33 470.82 38.38C470.33 38.53 470.19 38.91 470.17 39.93L469.98 51.41C469.98 51.81 469.91 51.97 469.75 51.97C469.56 51.97 469.34 51.77 469.15 51.57C468.04 50.48 465.78 48.1 463.95 46.22C462.03 44.25 460.07 42.04 459.76 41.69H459.71L459.9 49.28L459.89 49.29Z" fill="white"/>
<path d="M487.16 50.5517C487.16 51.0417 487.14 51.0817 486.93 51.2017C485.78 51.8217 484.06 52.0217 482.68 52.0217C478.36 52.0217 474.54 49.9117 474.54 44.8917C474.54 41.9817 476 39.9417 477.61 38.9417C479.3 37.8817 480.87 37.7617 482.35 37.7617C483.57 37.7617 485.12 37.9817 485.47 38.0517C485.84 38.1217 486.46 38.2317 486.86 38.2517C487.07 38.2717 487.11 38.3417 487.11 38.4717C487.11 38.6717 486.99 39.1817 486.99 41.4517C486.99 41.7417 486.94 41.8317 486.8 41.8317C486.68 41.8317 486.64 41.7417 486.62 41.5917C486.57 41.1717 486.48 40.5917 486.02 40.0817C485.49 39.5017 484.08 38.6617 482.09 38.6617C481.12 38.6617 479.83 38.7317 478.6 39.7917C477.61 40.6517 476.98 42.0117 476.98 44.2517C476.98 48.1617 479.39 51.0917 483.11 51.0917C483.57 51.0917 484.19 51.0917 484.61 50.8917C484.87 50.7617 484.95 50.5317 484.95 50.2217V48.5117C484.95 47.6017 484.95 46.9117 484.93 46.3617C484.91 45.7417 484.75 45.4517 484.17 45.3217C484.03 45.2817 483.73 45.2717 483.48 45.2717C483.32 45.2717 483.22 45.2317 483.22 45.1217C483.22 44.9717 483.34 44.9417 483.59 44.9417C484.51 44.9417 485.62 44.9917 486.14 44.9917C486.66 44.9917 487.62 44.9417 488.2 44.9417C488.43 44.9417 488.55 44.9817 488.55 45.1217C488.55 45.2317 488.44 45.2717 488.32 45.2717C488.18 45.2717 488.06 45.2917 487.84 45.3217C487.36 45.4117 487.19 45.7217 487.17 46.3617C487.15 46.9117 487.15 47.6317 487.15 48.5417V50.5417L487.16 50.5517Z" fill="white"/>
<path d="M339.37 61.6019C338.63 60.5819 338.49 59.8419 338.47 59.0219C338.45 57.5819 339.69 55.6719 342.75 55.6719C343.61 55.6719 344.41 55.8519 344.88 56.0519C345.18 56.1619 345.18 56.3019 345.18 56.5219C345.18 57.1219 345.04 58.5819 344.99 58.8519C344.96 59.1219 344.88 59.1619 344.78 59.1619C344.68 59.1619 344.66 59.0919 344.66 58.8119C344.66 58.3419 344.54 57.7519 344.15 57.2819C343.8 56.8419 343.18 56.4619 342.2 56.4619C341.46 56.4619 340.31 56.9919 340.31 58.5319C340.31 60.2419 341.83 61.7019 343.23 63.3119C343.83 64.0219 346 66.0419 346.33 66.3519C346.68 65.8419 347.17 64.6619 347.17 63.5519C347.17 63.2819 347.1 62.9519 346.84 62.7119C346.61 62.4919 346.24 62.4419 345.98 62.4419C345.87 62.4419 345.77 62.4019 345.77 62.2919C345.77 62.1419 345.91 62.1119 346.05 62.1119C346.47 62.1119 347.18 62.1319 348.16 62.2419C348.5 62.2819 348.76 62.3819 348.76 62.6019C348.76 64.0019 348.04 65.6919 347.03 66.9119C348.21 67.9119 349 68.4019 349.48 68.6919C350.04 69.0419 351.01 69.3319 351.37 69.3319C351.53 69.3319 351.62 69.3519 351.62 69.4919C351.62 69.6019 351.48 69.6519 351.09 69.6519H349.73C347.72 69.6519 347.09 69.4519 345.57 68.2519C344.99 68.8019 343.81 69.9019 341.39 69.9019C337.62 69.9019 336.49 67.4619 336.49 65.8819C336.49 63.7519 338.31 62.1019 339.36 61.5719L339.37 61.6019ZM344.89 67.7019C343.87 66.7919 342.18 65.0819 341.72 64.5719C341.26 64.0619 340.13 62.7519 339.83 62.3019C339.23 62.7519 338.61 63.6119 338.61 65.0719C338.61 67.3419 340.16 68.8019 341.99 68.8019C343.35 68.8019 344.51 68.0719 344.88 67.7119L344.89 67.7019Z" fill="white"/>
<path d="M227.69 87.3794C227.41 87.2494 227.35 87.1594 227.35 86.7594C227.35 85.7594 227.42 84.6694 227.44 84.3794C227.46 84.1094 227.51 83.9094 227.65 83.9094C227.81 83.9094 227.83 84.0694 227.83 84.2194C227.83 84.4594 227.9 84.8394 227.99 85.1494C228.38 86.4994 229.42 86.9894 230.51 86.9894C232.1 86.9894 232.87 85.8794 232.87 84.9194C232.87 84.0294 232.61 83.1894 231.14 82.0094L230.33 81.3594C228.39 79.7894 227.72 78.5194 227.72 77.0494C227.72 75.0494 229.34 73.6094 231.79 73.6094C232.94 73.6094 233.68 73.7894 234.13 73.9194C234.29 73.9594 234.38 74.0094 234.38 74.1394C234.38 74.3794 234.31 74.8994 234.31 76.3194C234.31 76.7194 234.26 76.8694 234.12 76.8694C234 76.8694 233.94 76.7594 233.94 76.5394C233.94 76.3794 233.85 75.8094 233.48 75.3394C233.22 74.9994 232.71 74.4494 231.56 74.4494C230.26 74.4494 229.46 75.2294 229.46 76.3194C229.46 77.1594 229.87 77.7894 231.33 78.9394L231.82 79.3194C233.95 80.9794 234.71 82.2294 234.71 83.9594C234.71 85.0094 234.32 86.2694 233.05 87.1294C232.17 87.7094 231.18 87.8794 230.25 87.8794C229.23 87.8794 228.44 87.7494 227.68 87.4094L227.69 87.3794Z" fill="white"/>
<path d="M240.23 85.8681C238.5 84.3081 238.04 82.2681 238.04 80.4981C238.04 79.2581 238.41 77.1181 240.1 75.5081C241.37 74.3081 243.04 73.5781 245.67 73.5781C246.76 73.5781 247.41 73.6481 248.22 73.7581C248.89 73.8481 249.45 74.0081 249.98 74.0681C250.17 74.0881 250.24 74.1781 250.24 74.2881C250.24 74.4381 250.19 74.6481 250.15 75.2881C250.12 75.8881 250.13 76.8881 250.1 77.2481C250.08 77.5181 250.05 77.6681 249.89 77.6681C249.75 77.6681 249.71 77.5181 249.71 77.2681C249.69 76.7081 249.46 76.0681 249.02 75.5981C248.44 74.9581 247.06 74.4681 245.44 74.4681C243.91 74.4681 242.9 74.8681 242.13 75.5981C240.84 76.8181 240.51 78.5481 240.51 80.3081C240.51 84.6381 243.7 86.7881 246.06 86.7881C247.63 86.7881 248.58 86.6081 249.28 85.7681C249.58 85.4181 249.81 84.8981 249.88 84.5681C249.93 84.2781 249.97 84.2081 250.11 84.2081C250.23 84.2081 250.27 84.3381 250.27 84.4781C250.27 84.6981 250.06 86.2781 249.88 86.8981C249.79 87.2081 249.72 87.2981 249.42 87.4281C248.72 87.7181 247.38 87.8481 246.25 87.8481C243.84 87.8481 241.81 87.2981 240.21 85.8681H240.23Z" fill="white"/>
<path d="M264.15 79.6281C264.2 79.6281 264.26 79.5881 264.26 79.4981V79.1181C264.26 76.3481 264.26 75.8481 264.23 75.2581C264.19 74.6381 264.05 74.3481 263.47 74.2181C263.33 74.1781 263.03 74.1681 262.78 74.1681C262.59 74.1681 262.48 74.1281 262.48 74.0081C262.48 73.8881 262.6 73.8481 262.85 73.8481C263.8 73.8481 264.91 73.8981 265.39 73.8981C265.81 73.8981 266.92 73.8481 267.61 73.8481C267.86 73.8481 267.98 73.8881 267.98 74.0081C267.98 74.1281 267.87 74.1681 267.66 74.1681C267.52 74.1681 267.36 74.1881 267.15 74.2181C266.67 74.3081 266.53 74.6181 266.5 75.2581C266.47 75.8381 266.47 76.3481 266.47 79.1181V82.3181C266.47 83.9881 266.47 85.4281 266.56 86.2081C266.61 86.7181 266.72 87.1181 267.25 87.1881C267.5 87.2281 267.88 87.2581 268.15 87.2581C268.34 87.2581 268.43 87.3081 268.43 87.4081C268.43 87.5381 268.29 87.5881 268.08 87.5881C266.93 87.5881 265.82 87.5381 265.33 87.5381C264.93 87.5381 263.81 87.5881 263.13 87.5881C262.88 87.5881 262.76 87.5381 262.76 87.4081C262.76 87.3181 262.83 87.2581 263.04 87.2581C263.3 87.2581 263.52 87.2181 263.67 87.1881C264.02 87.1181 264.11 86.7181 264.18 86.1881C264.27 85.4281 264.27 83.9881 264.27 82.3081V80.7081C264.27 80.6381 264.22 80.5981 264.16 80.5981H257.43C257.38 80.5981 257.33 80.6181 257.33 80.7081V82.3081C257.33 83.9781 257.33 85.4181 257.42 86.1981C257.47 86.7081 257.58 87.1081 258.11 87.1781C258.36 87.2181 258.74 87.2481 259.01 87.2481C259.2 87.2481 259.29 87.2981 259.29 87.3981C259.29 87.5281 259.15 87.5781 258.94 87.5781C257.79 87.5781 256.68 87.5281 256.19 87.5281C255.79 87.5281 254.67 87.5781 253.97 87.5781C253.74 87.5781 253.62 87.5281 253.62 87.3981C253.62 87.3081 253.69 87.2481 253.9 87.2481C254.16 87.2481 254.38 87.2081 254.53 87.1781C254.88 87.1081 254.97 86.7081 255.04 86.1781C255.13 85.4181 255.13 83.9781 255.13 82.2981V79.0981C255.13 76.3281 255.13 75.8281 255.1 75.2381C255.07 74.6181 254.92 74.3281 254.34 74.1981C254.2 74.1581 253.9 74.1481 253.65 74.1481C253.46 74.1481 253.35 74.1081 253.35 73.9881C253.35 73.8681 253.47 73.8281 253.72 73.8281C254.67 73.8281 255.78 73.8781 256.26 73.8781C256.68 73.8781 257.79 73.8281 258.48 73.8281C258.73 73.8281 258.85 73.8681 258.85 73.9881C258.85 74.1081 258.74 74.1481 258.53 74.1481C258.39 74.1481 258.23 74.1681 258.02 74.1981C257.54 74.2881 257.4 74.5981 257.37 75.2381C257.34 75.8181 257.34 76.3281 257.34 79.0981V79.4781C257.34 79.5681 257.39 79.6081 257.44 79.6081H264.17L264.15 79.6281Z" fill="white"/>
<path d="M271.19 80.7198C271.19 77.6098 273.18 73.5898 278.47 73.5898C282.86 73.5898 285.59 76.2298 285.59 80.3898C285.59 84.5498 282.77 87.8498 278.3 87.8498C273.24 87.8498 271.2 83.9398 271.2 80.7198H271.19ZM283.12 81.0598C283.12 76.9798 280.85 74.4598 277.96 74.4598C275.93 74.4598 273.63 75.6198 273.63 80.1498C273.63 83.9298 275.66 86.9398 279.04 86.9398C280.27 86.9398 283.13 86.3198 283.13 81.0598H283.12Z" fill="white"/>
<path d="M288.58 80.7198C288.58 77.6098 290.57 73.5898 295.86 73.5898C300.25 73.5898 302.98 76.2298 302.98 80.3898C302.98 84.5498 300.16 87.8498 295.69 87.8498C290.63 87.8498 288.59 83.9398 288.59 80.7198H288.58ZM300.51 81.0598C300.51 76.9798 298.24 74.4598 295.35 74.4598C293.32 74.4598 291.02 75.6198 291.02 80.1498C291.02 83.9298 293.05 86.9398 296.43 86.9398C297.66 86.9398 300.52 86.3198 300.52 81.0598H300.51Z" fill="white"/>
<path d="M309.91 82.3194C309.91 84.6494 309.91 85.8994 310.28 86.2294C310.58 86.4994 311.04 86.6294 312.41 86.6294C313.34 86.6294 314.03 86.6094 314.47 86.1194C314.68 85.8794 314.89 85.3694 314.93 85.0294C314.95 84.8694 314.98 84.7594 315.12 84.7594C315.24 84.7594 315.26 84.8494 315.26 85.0694C315.26 85.2694 315.14 86.6294 315 87.1594C314.89 87.5594 314.81 87.6494 313.89 87.6494C312.62 87.6494 311.71 87.6094 310.91 87.5994C310.12 87.5594 309.48 87.5494 308.76 87.5494C308.57 87.5494 308.18 87.5494 307.75 87.5694C307.35 87.5694 306.89 87.6094 306.54 87.6094C306.31 87.6094 306.19 87.5594 306.19 87.4294C306.19 87.3394 306.26 87.2794 306.47 87.2794C306.73 87.2794 306.95 87.2394 307.1 87.2094C307.45 87.1394 307.54 86.7394 307.61 86.2094C307.7 85.4494 307.7 84.0094 307.7 82.3294V79.1294C307.7 76.3594 307.7 75.8594 307.67 75.2694C307.63 74.6494 307.49 74.3594 306.91 74.2294C306.77 74.1894 306.56 74.1794 306.33 74.1794C306.14 74.1794 306.03 74.1394 306.03 74.0194C306.03 73.8994 306.15 73.8594 306.42 73.8594C307.25 73.8594 308.36 73.9094 308.83 73.9094C309.25 73.9094 310.54 73.8594 311.23 73.8594C311.48 73.8594 311.6 73.8994 311.6 74.0194C311.6 74.1394 311.49 74.1794 311.28 74.1794C311.09 74.1794 310.8 74.1994 310.59 74.2294C310.11 74.3194 309.97 74.6294 309.94 75.2694C309.91 75.8494 309.91 76.3594 309.91 79.1294V82.3294V82.3194Z" fill="white"/>
<path d="M323.84 80.7198C323.84 77.6098 325.83 73.5898 331.12 73.5898C335.51 73.5898 338.24 76.2298 338.24 80.3898C338.24 84.5498 335.42 87.8498 330.95 87.8498C325.89 87.8498 323.85 83.9398 323.85 80.7198H323.84ZM335.77 81.0598C335.77 76.9798 333.5 74.4598 330.61 74.4598C328.58 74.4598 326.28 75.6198 326.28 80.1498C326.28 83.9298 328.31 86.9398 331.69 86.9398C332.92 86.9398 335.78 86.3198 335.78 81.0598H335.77Z" fill="white"/>
<path d="M345.18 82.3192C345.18 84.0692 345.18 85.4292 345.27 86.1992C345.32 86.7292 345.43 87.1292 345.96 87.1992C346.21 87.2392 346.59 87.2692 346.84 87.2692C347.07 87.2692 347.14 87.3192 347.14 87.4192C347.14 87.5492 347.02 87.5992 346.75 87.5992C345.64 87.5992 344.53 87.5492 344.07 87.5492C343.61 87.5492 342.5 87.5992 341.83 87.5992C341.58 87.5992 341.46 87.5592 341.46 87.4192C341.46 87.3292 341.53 87.2692 341.72 87.2692C341.98 87.2692 342.2 87.2292 342.35 87.1992C342.7 87.1292 342.79 86.7292 342.86 86.1992C342.95 85.4392 342.95 84.0692 342.95 82.3192V79.1192C342.95 76.3492 342.95 75.8492 342.92 75.2592C342.88 74.6392 342.74 74.3492 342.16 74.2192C342.02 74.1792 341.72 74.1692 341.47 74.1692C341.29 74.1692 341.17 74.1292 341.17 74.0192C341.17 73.8692 341.31 73.8392 341.57 73.8392C342.03 73.8392 342.54 73.8592 343 73.8592C343.46 73.8792 343.86 73.8992 344.11 73.8992C344.78 73.8992 348.36 73.8992 348.76 73.8792C349.1 73.8592 349.31 73.8592 349.48 73.8092C349.59 73.7692 349.67 73.6992 349.76 73.6992C349.83 73.6992 349.88 73.7692 349.88 73.8592C349.88 73.9892 349.79 74.2092 349.74 74.6792C349.72 74.8592 349.69 75.9292 349.65 76.1492C349.63 76.2992 349.6 76.4092 349.47 76.4092C349.34 76.4092 349.31 76.3192 349.29 76.1192C349.29 75.9692 349.29 75.6792 349.18 75.4292C349.06 75.1792 348.69 74.8992 348.02 74.8792L345.31 74.8292C345.2 74.8292 345.15 74.8792 345.15 75.0792V79.6292C345.15 79.7392 345.17 79.7892 345.27 79.7892L347.53 79.7692C347.83 79.7692 348.08 79.7692 348.32 79.7492C348.66 79.7292 348.9 79.6592 349.08 79.4192C349.17 79.3092 349.2 79.2392 349.31 79.2392C349.38 79.2392 349.42 79.2892 349.42 79.3992C349.42 79.5092 349.33 79.9592 349.28 80.5292C349.24 80.8892 349.21 81.7292 349.21 81.8592C349.21 82.0192 349.21 82.2092 349.03 82.2092C348.92 82.2092 348.89 82.0792 348.89 81.9592C348.89 81.8392 348.85 81.6092 348.78 81.3992C348.69 81.1492 348.43 80.8192 347.88 80.7392C347.44 80.6892 345.57 80.6892 345.27 80.6892C345.18 80.6892 345.15 80.7292 345.15 80.8492V82.3192H345.18Z" fill="white"/>
<path d="M361.32 79.1216C361.32 76.3516 361.32 75.8516 361.29 75.2616C361.26 74.6416 361.11 74.3516 360.53 74.2216C360.39 74.1816 360.09 74.1716 359.84 74.1716C359.65 74.1716 359.54 74.1316 359.54 74.0116C359.54 73.8916 359.66 73.8516 359.93 73.8516C360.86 73.8516 361.97 73.9016 362.33 73.9016C363.19 73.9016 363.88 73.8516 364.48 73.8516C367.67 73.8516 368.23 75.6116 368.23 76.5816C368.23 78.0716 367.4 78.9616 366.43 79.7616C367.87 80.2716 369.64 81.5616 369.64 83.6916C369.64 85.6416 368.18 87.6616 364.94 87.6616C364.73 87.6616 364.22 87.6216 363.71 87.6116C363.18 87.5716 362.65 87.5616 362.39 87.5616C362.2 87.5616 361.81 87.5616 361.39 87.5816C360.99 87.5816 360.53 87.6216 360.18 87.6216C359.95 87.6216 359.83 87.5716 359.83 87.4416C359.83 87.3516 359.9 87.2916 360.11 87.2916C360.37 87.2916 360.59 87.2516 360.74 87.2216C361.09 87.1516 361.18 86.7516 361.25 86.2216C361.34 85.4616 361.34 84.0216 361.34 82.3416V79.1416L361.32 79.1216ZM363.43 79.4316C363.43 79.5816 363.48 79.6116 363.55 79.6316C363.71 79.6716 363.97 79.6816 364.38 79.6816C364.96 79.6816 365.35 79.6116 365.65 79.3316C366.11 78.9516 366.37 78.2916 366.37 77.4016C366.37 76.1816 365.68 74.5816 364.17 74.5816C363.92 74.5816 363.77 74.5816 363.59 74.6216C363.47 74.6616 363.43 74.7316 363.43 74.9316V79.4216V79.4316ZM365.76 80.8816C365.39 80.6116 364.98 80.4816 364.3 80.4416C363.98 80.4216 363.81 80.4216 363.54 80.4216C363.47 80.4216 363.43 80.4616 363.43 80.5516V84.8616C363.43 86.0616 363.48 86.3716 364.05 86.6116C364.53 86.8116 364.93 86.8316 365.34 86.8316C366.13 86.8316 367.47 86.3916 367.47 84.5016C367.47 83.3716 367.1 81.8416 365.76 80.8816Z" fill="white"/>
<path d="M374.07 79.1216C374.07 76.3516 374.07 75.8516 374.04 75.2616C374 74.6416 373.86 74.3516 373.28 74.2216C373.14 74.1816 372.84 74.1716 372.59 74.1716C372.4 74.1716 372.29 74.1316 372.29 74.0116C372.29 73.8916 372.41 73.8516 372.68 73.8516C373.61 73.8516 374.72 73.9016 375.25 73.9016C375.67 73.9016 376.78 73.8516 377.42 73.8516C377.68 73.8516 377.81 73.8916 377.81 74.0116C377.81 74.1316 377.7 74.1716 377.53 74.1716C377.34 74.1716 377.23 74.1916 377.02 74.2216C376.55 74.3116 376.4 74.6216 376.37 75.2616C376.34 75.8416 376.34 76.3516 376.34 79.1216V81.6716C376.34 84.3116 376.85 85.4216 377.71 86.1516C378.5 86.8216 379.31 86.9016 379.91 86.9016C380.68 86.9016 381.64 86.6416 382.34 85.9216C383.31 84.9216 383.36 83.2816 383.36 81.4116V79.1416C383.36 76.3716 383.36 75.8716 383.33 75.2816C383.3 74.6616 383.15 74.3716 382.57 74.2416C382.43 74.2016 382.13 74.1916 381.94 74.1916C381.75 74.1916 381.64 74.1516 381.64 74.0316C381.64 73.9116 381.76 73.8716 382.01 73.8716C382.91 73.8716 384.02 73.9216 384.04 73.9216C384.25 73.9216 385.36 73.8716 386.05 73.8716C386.3 73.8716 386.42 73.9116 386.42 74.0316C386.42 74.1516 386.32 74.1916 386.1 74.1916C385.91 74.1916 385.8 74.2116 385.59 74.2416C385.11 74.3316 384.97 74.6416 384.94 75.2816C384.9 75.8616 384.9 76.3716 384.9 79.1416V81.0916C384.9 83.1116 384.71 85.2616 383.23 86.5716C381.98 87.6816 380.71 87.8816 379.57 87.8816C378.64 87.8816 376.94 87.8316 375.66 86.6316C374.76 85.7916 374.09 84.4516 374.09 81.8116V79.1516L374.07 79.1216Z" fill="white"/>
<path d="M389.92 87.3794C389.64 87.2494 389.59 87.1594 389.59 86.7594C389.59 85.7594 389.66 84.6694 389.68 84.3794C389.7 84.1094 389.75 83.9094 389.89 83.9094C390.05 83.9094 390.07 84.0694 390.07 84.2194C390.07 84.4594 390.14 84.8394 390.23 85.1494C390.62 86.4994 391.66 86.9894 392.75 86.9894C394.33 86.9894 395.11 85.8794 395.11 84.9194C395.11 84.0294 394.85 83.1894 393.38 82.0094L392.57 81.3594C390.63 79.7894 389.96 78.5194 389.96 77.0494C389.96 75.0494 391.58 73.6094 394.03 73.6094C395.18 73.6094 395.92 73.7894 396.37 73.9194C396.53 73.9594 396.62 74.0094 396.62 74.1394C396.62 74.3794 396.55 74.8994 396.55 76.3194C396.55 76.7194 396.5 76.8694 396.36 76.8694C396.24 76.8694 396.18 76.7594 396.18 76.5394C396.18 76.3794 396.09 75.8094 395.72 75.3394C395.45 74.9994 394.94 74.4494 393.8 74.4494C392.5 74.4494 391.7 75.2294 391.7 76.3194C391.7 77.1594 392.1 77.7894 393.57 78.9394L394.06 79.3194C396.19 80.9794 396.95 82.2294 396.95 83.9594C396.95 85.0094 396.56 86.2694 395.29 87.1294C394.41 87.7094 393.42 87.8794 392.49 87.8794C391.47 87.8794 390.67 87.7494 389.92 87.4094V87.3794Z" fill="white"/>
<path d="M402.19 79.1199C402.19 76.3499 402.19 75.8498 402.16 75.2598C402.12 74.6398 401.95 74.3298 401.56 74.2398C401.37 74.1898 401.14 74.1698 400.93 74.1698C400.75 74.1698 400.65 74.1298 400.65 73.9898C400.65 73.8798 400.79 73.8398 401.07 73.8398C401.74 73.8398 402.85 73.8898 403.36 73.8898C403.8 73.8898 404.84 73.8398 405.51 73.8398C405.74 73.8398 405.88 73.8798 405.88 73.9898C405.88 74.1398 405.78 74.1698 405.6 74.1698C405.42 74.1698 405.28 74.1898 405.07 74.2198C404.59 74.3098 404.45 74.6198 404.42 75.2598C404.38 75.8398 404.38 76.3499 404.38 79.1199V82.3198C404.38 84.0798 404.38 85.5199 404.45 86.2999C404.5 86.7899 404.63 87.1198 405.16 87.1898C405.41 87.2298 405.79 87.2598 406.06 87.2598C406.25 87.2598 406.34 87.3099 406.34 87.4099C406.34 87.5399 406.2 87.5898 406 87.5898C404.84 87.5898 403.73 87.5398 403.25 87.5398C402.84 87.5398 401.73 87.5898 401.03 87.5898C400.8 87.5898 400.68 87.5399 400.68 87.4099C400.68 87.3199 400.75 87.2598 400.96 87.2598C401.22 87.2598 401.44 87.2198 401.59 87.1898C401.94 87.1198 402.05 86.8098 402.1 86.2798C402.19 85.5198 402.19 84.0798 402.19 82.3098V79.1098V79.1199Z" fill="white"/>
<path d="M412.2 85.1181C412.23 86.5381 412.46 87.0081 412.82 87.1381C413.12 87.2481 413.45 87.2681 413.74 87.2681C413.93 87.2681 414.04 87.3081 414.04 87.4181C414.04 87.5681 413.88 87.5981 413.63 87.5981C412.48 87.5981 411.78 87.5481 411.45 87.5481C411.29 87.5481 410.46 87.5981 409.55 87.5981C409.32 87.5981 409.16 87.5781 409.16 87.4181C409.16 87.3081 409.26 87.2681 409.44 87.2681C409.67 87.2681 409.99 87.2481 410.23 87.1781C410.69 87.0281 410.76 86.5081 410.78 84.9181L410.94 74.1981C410.94 73.8381 410.99 73.5781 411.17 73.5781C411.36 73.5781 411.52 73.8181 411.82 74.1381C412.03 74.3781 414.71 77.2881 417.28 79.9281C418.48 81.1681 420.86 83.7881 421.16 84.0781H421.25L421.07 75.9081C421.05 74.7981 420.89 74.4481 420.47 74.2681C420.21 74.1581 419.78 74.1581 419.54 74.1581C419.33 74.1581 419.26 74.1081 419.26 73.9981C419.26 73.8481 419.45 73.8381 419.72 73.8381C420.64 73.8381 421.48 73.8881 421.85 73.8881C422.04 73.8881 422.71 73.8381 423.58 73.8381C423.81 73.8381 423.98 73.8581 423.98 73.9981C423.98 74.1081 423.87 74.1581 423.66 74.1581C423.48 74.1581 423.34 74.1581 423.13 74.2081C422.64 74.3581 422.5 74.7381 422.48 75.7581L422.29 87.2381C422.29 87.6381 422.22 87.7981 422.06 87.7981C421.87 87.7981 421.65 87.5981 421.46 87.3981C420.35 86.3081 418.09 83.9281 416.26 82.0481C414.34 80.0881 412.38 77.8681 412.07 77.5181H412.02L412.21 85.1081L412.2 85.1181Z" fill="white"/>
<path d="M428.95 79.1209C428.95 76.3509 428.95 75.8509 428.92 75.2609C428.89 74.6409 428.74 74.3509 428.16 74.2209C428.02 74.1809 427.72 74.1709 427.47 74.1709C427.28 74.1709 427.17 74.1309 427.17 74.0109C427.17 73.8909 427.29 73.8509 427.56 73.8509C428.04 73.8509 428.55 73.8709 428.99 73.8709C429.45 73.8909 429.85 73.9109 430.1 73.9109C430.66 73.9109 434.17 73.9109 434.5 73.8909C434.84 73.8509 435.12 73.8209 435.26 73.7809C435.35 73.7609 435.45 73.7109 435.54 73.7109C435.63 73.7109 435.65 73.7809 435.65 73.8709C435.65 74.0009 435.56 74.2209 435.51 75.0509C435.49 75.2309 435.46 76.0309 435.42 76.2509C435.4 76.3409 435.37 76.4509 435.24 76.4509C435.11 76.4509 435.08 76.3609 435.08 76.2009C435.08 76.0709 435.06 75.7609 434.97 75.5409C434.85 75.2109 434.67 74.9909 433.79 74.8909C433.49 74.8509 431.64 74.8209 431.29 74.8209C431.2 74.8209 431.17 74.8709 431.17 75.0009V79.6009C431.17 79.7309 431.19 79.8009 431.29 79.8009C431.68 79.8009 433.7 79.8009 434.11 79.7609C434.53 79.7209 434.8 79.6709 434.96 79.4909C435.08 79.3409 435.15 79.2509 435.24 79.2509C435.31 79.2509 435.36 79.2909 435.36 79.4009C435.36 79.5109 435.29 79.8009 435.22 80.7309C435.2 81.0909 435.15 81.8209 435.15 81.9509C435.15 82.1009 435.15 82.3009 434.99 82.3009C434.87 82.3009 434.83 82.2309 434.83 82.1409C434.81 81.9609 434.81 81.7209 434.76 81.4909C434.67 81.1309 434.43 80.8509 433.77 80.7809C433.43 80.7409 431.69 80.7309 431.27 80.7309C431.18 80.7309 431.16 80.8009 431.16 80.9109V82.3509C431.16 82.9709 431.14 84.6409 431.16 85.1709C431.19 86.4309 431.48 86.7009 433.27 86.7009C433.73 86.7009 434.47 86.7009 434.93 86.4809C435.39 86.2609 435.6 85.8809 435.72 85.1309C435.75 84.9309 435.79 84.8609 435.91 84.8609C436.05 84.8609 436.05 85.0009 436.05 85.1909C436.05 85.6109 435.91 86.8509 435.82 87.2109C435.7 87.6809 435.54 87.6809 434.87 87.6809C433.55 87.6809 432.58 87.6409 431.82 87.6309C431.06 87.5909 430.52 87.5809 429.99 87.5809C429.8 87.5809 429.41 87.5809 428.99 87.6009C428.59 87.6009 428.13 87.6409 427.78 87.6409C427.55 87.6409 427.43 87.5909 427.43 87.4609C427.43 87.3709 427.5 87.3109 427.71 87.3109C427.97 87.3109 428.19 87.2709 428.34 87.2409C428.69 87.1709 428.78 86.7709 428.85 86.2409C428.94 85.4809 428.94 84.0409 428.94 82.3609V79.1609L428.95 79.1209Z" fill="white"/>
<path d="M440.16 87.3794C439.88 87.2494 439.83 87.1594 439.83 86.7594C439.83 85.7594 439.9 84.6694 439.92 84.3794C439.94 84.1094 439.99 83.9094 440.13 83.9094C440.29 83.9094 440.31 84.0694 440.31 84.2194C440.31 84.4594 440.38 84.8394 440.47 85.1494C440.86 86.4994 441.9 86.9894 442.99 86.9894C444.57 86.9894 445.35 85.8794 445.35 84.9194C445.35 84.0294 445.09 83.1894 443.62 82.0094L442.81 81.3594C440.87 79.7894 440.2 78.5194 440.2 77.0494C440.2 75.0494 441.82 73.6094 444.27 73.6094C445.42 73.6094 446.16 73.7894 446.61 73.9194C446.77 73.9594 446.86 74.0094 446.86 74.1394C446.86 74.3794 446.79 74.8994 446.79 76.3194C446.79 76.7194 446.74 76.8694 446.6 76.8694C446.48 76.8694 446.42 76.7594 446.42 76.5394C446.42 76.3794 446.33 75.8094 445.96 75.3394C445.69 74.9994 445.18 74.4494 444.04 74.4494C442.74 74.4494 441.94 75.2294 441.94 76.3194C441.94 77.1594 442.34 77.7894 443.81 78.9394L444.3 79.3194C446.43 80.9794 447.19 82.2294 447.19 83.9594C447.19 85.0094 446.8 86.2694 445.53 87.1294C444.65 87.7094 443.66 87.8794 442.73 87.8794C441.71 87.8794 440.91 87.7494 440.16 87.4094V87.3794Z" fill="white"/>
<path d="M451.47 87.3794C451.19 87.2494 451.14 87.1594 451.14 86.7594C451.14 85.7594 451.21 84.6694 451.23 84.3794C451.25 84.1094 451.3 83.9094 451.44 83.9094C451.6 83.9094 451.62 84.0694 451.62 84.2194C451.62 84.4594 451.69 84.8394 451.78 85.1494C452.17 86.4994 453.21 86.9894 454.3 86.9894C455.88 86.9894 456.66 85.8794 456.66 84.9194C456.66 84.0294 456.4 83.1894 454.93 82.0094L454.12 81.3594C452.18 79.7894 451.51 78.5194 451.51 77.0494C451.51 75.0494 453.13 73.6094 455.58 73.6094C456.73 73.6094 457.47 73.7894 457.92 73.9194C458.08 73.9594 458.17 74.0094 458.17 74.1394C458.17 74.3794 458.1 74.8994 458.1 76.3194C458.1 76.7194 458.05 76.8694 457.91 76.8694C457.79 76.8694 457.73 76.7594 457.73 76.5394C457.73 76.3794 457.64 75.8094 457.27 75.3394C457 74.9994 456.49 74.4494 455.35 74.4494C454.05 74.4494 453.25 75.2294 453.25 76.3194C453.25 77.1594 453.65 77.7894 455.12 78.9394L455.61 79.3194C457.74 80.9794 458.5 82.2294 458.5 83.9594C458.5 85.0094 458.11 86.2694 456.84 87.1294C455.96 87.7094 454.97 87.8794 454.04 87.8794C453.02 87.8794 452.22 87.7494 451.47 87.4094V87.3794Z" fill="white"/>
<path d="M489.35 63.5391H354.22V64.0691H489.35V63.5391Z" fill="white"/>
<path d="M332.42 63.5391H197.29V64.0691H332.42V63.5391Z" fill="white"/>
</g>
<defs>
<clipPath id="clip0_356_2248">
<rect width="489.88" height="88.94" fill="white"/>
</clipPath>
</defs>
</svg>
