<?xml version="1.0" encoding="UTF-8"?>
<svg id="Layer_2" data-name="Layer 2" xmlns="http://www.w3.org/2000/svg" viewBox="0 0 489.88 88.94">
  <defs>
    <style>
      .cls-1 {
        fill: #231f20;
      }

      .cls-1, .cls-2, .cls-3 {
        stroke-width: 0px;
      }

      .cls-2 {
        fill: #b2282d;
      }

      .cls-3 {
        fill: #fff;
      }
    </style>
  </defs>
  <g id="Layer_1-2" data-name="Layer 1">
    <g>
      <rect class="cls-2" y=".43" width="87.1" height="88.51"/>
      <rect class="cls-2" x="95.15" y=".43" width="87.1" height="88.51"/>
      <g>
        <g>
          <path class="cls-3" d="M138.7,23.81c11.38,0,21.01,6.5,24.05,15.36h1.59c-3.08-9.56-13.38-16.59-25.63-16.59s-22.55,7.03-25.63,16.59h1.59c3.04-8.86,12.66-15.36,24.05-15.36Z"/>
          <path class="cls-3" d="M115.53,39.17h9.42c1.29-6.56,4.63-11.82,8.92-14.11-8.74,1.5-15.77,6.99-18.34,14.11Z"/>
          <path class="cls-3" d="M138.28,24.66c-5.89.27-10.83,6.31-12.48,14.51h12.48v-14.51Z"/>
          <path class="cls-3" d="M143.52,25.05c4.29,2.29,7.63,7.56,8.92,14.11h9.42c-2.57-7.12-9.6-12.61-18.34-14.11Z"/>
          <path class="cls-3" d="M139.11,24.66v14.51h12.48c-1.65-8.2-6.59-14.24-12.48-14.51Z"/>
        </g>
        <g>
          <rect class="cls-3" x="134.51" y="39.92" width="3.64" height="1.47"/>
          <rect class="cls-3" x="129.79" y="39.92" width="3.64" height="1.47"/>
          <rect class="cls-3" x="110.87" y="39.92" width="3.65" height="1.47"/>
          <rect class="cls-3" x="115.61" y="39.92" width="3.64" height="1.47"/>
          <rect class="cls-3" x="120.34" y="39.92" width="3.64" height="1.47"/>
          <rect class="cls-3" x="125.06" y="39.92" width="3.64" height="1.47"/>
          <rect class="cls-3" x="153.42" y="39.92" width="3.64" height="1.47"/>
          <rect class="cls-3" x="158.14" y="39.92" width="3.64" height="1.47"/>
          <rect class="cls-3" x="162.87" y="39.92" width="3.65" height="1.47"/>
          <rect class="cls-3" x="143.97" y="39.92" width="3.64" height="1.47"/>
          <rect class="cls-3" x="148.69" y="39.92" width="3.64" height="1.47"/>
          <rect class="cls-3" x="139.24" y="39.92" width="3.64" height="1.47"/>
        </g>
        <polygon class="cls-3" points="170.81 43.16 106.59 43.16 105.75 42.08 171.64 42.08 170.81 43.16"/>
        <rect class="cls-3" x="106.68" y="43.65" width="64.03" height=".52"/>
        <rect class="cls-3" x="106.68" y="44.56" width="64.03" height=".52"/>
        <rect class="cls-3" x="106.68" y="45.47" width="64.03" height=".52"/>
        <rect class="cls-3" x="106.68" y="46.37" width="64.03" height=".52"/>
        <rect class="cls-3" x="106.68" y="47.28" width="64.03" height=".52"/>
        <rect class="cls-3" x="106.68" y="69.7" width="64.03" height=".97"/>
        <polygon class="cls-3" points="165.4 49.25 165.4 48.19 164.06 48.19 163.74 48.19 163.74 49.44 162.4 49.44 162.4 68.48 163.74 68.48 163.74 69.79 165.4 69.79 165.4 68.74 164.06 68.74 164.06 49.25 165.4 49.25"/>
        <g>
          <rect class="cls-3" x="157.18" y="48.19" width="5.85" height="1.05" transform="translate(320.21 97.44) rotate(180)"/>
          <rect class="cls-3" x="157.18" y="68.74" width="5.85" height="1.05" transform="translate(320.21 138.52) rotate(180)"/>
          <rect class="cls-3" x="158.52" y="48.19" width="3.17" height="20.69" transform="translate(320.21 117.07) rotate(180)"/>
        </g>
        <polygon class="cls-3" points="114.99 68.48 114.99 49.44 113.65 49.44 113.65 48.19 113.33 48.19 111.99 48.19 111.99 49.25 113.33 49.25 113.33 68.74 111.99 68.74 111.99 69.79 113.65 69.79 113.65 68.48 114.99 68.48"/>
        <g>
          <rect class="cls-3" x="114.36" y="48.19" width="5.85" height="1.05"/>
          <rect class="cls-3" x="114.36" y="68.74" width="5.85" height="1.05"/>
          <rect class="cls-3" x="115.7" y="48.19" width="3.17" height="20.69"/>
        </g>
        <g>
          <rect class="cls-3" x="114.36" y="48.19" width="5.85" height="1.05"/>
          <rect class="cls-3" x="114.36" y="68.74" width="5.85" height="1.05"/>
          <rect class="cls-3" x="115.7" y="48.19" width="3.17" height="20.69"/>
        </g>
        <g>
          <g>
            <rect class="cls-3" x="132.6" y="48.19" width="5.85" height="1.05"/>
            <rect class="cls-3" x="132.6" y="68.74" width="5.85" height="1.05"/>
            <rect class="cls-3" x="133.94" y="48.19" width="3.17" height="20.69"/>
          </g>
          <g>
            <rect class="cls-3" x="138.94" y="48.19" width="5.85" height="1.05"/>
            <rect class="cls-3" x="138.94" y="68.74" width="5.85" height="1.05"/>
            <rect class="cls-3" x="140.28" y="48.19" width="3.17" height="20.69"/>
          </g>
        </g>
        <rect class="cls-3" x="138.33" y="20.12" width=".73" height="2.87"/>
        <rect class="cls-3" x="138.11" y="16.08" width="1.16" height="6.4" transform="translate(157.97 -119.42) rotate(90)"/>
        <g>
          <rect class="cls-3" x="136.33" y="20.12" width=".73" height="2.87"/>
          <rect class="cls-3" x="140.33" y="20.12" width=".73" height="2.87"/>
        </g>
      </g>
      <g>
        <path class="cls-3" d="M11.58,55.31s-2.04-2.43.58-3.4c0,0,1.84-.56,3.2,1.21.98,1.28,2.14,1.41,2.14,1.41,0,0-3.73-.22-5.92.78"/>
        <path class="cls-3" d="M13.13,64.39s1.64-2.37,2.87-.29c0,0,.76,1.71-1.02,2.58,0,0-3.24,1.13-3.53-2.55,0,0,.07-2.14,2.33-2.95,0,0,2.45-.81,4.02.98,0,0,1.52,1.55,1.12,4.05,0,0-.78,3.93-5.2,4.22,0,0-5.97-.04-6.51-6.59,0,0-.51-4.37,3.86-7.06,0,0,6.26-3.97,12.45,1.96,0,0-2.95-4.11-9.03-3.6,0,0-7.35.87-7.68,8.48,0,0-.11,6.84,6.88,7.21,0,0,4.46,0,5.6-4.48,0,0,.44-2.73-1.24-4.48,0,0-1.78-2.04-4.4-1.06,0,0-2.44.69-2.51,3.31,0,0,.15,3.82,3.93,2.87,0,0,2.11-.66,1.24-2.98,0,0-1.35-2.44-3.17.36"/>
        <path class="cls-3" d="M22.01,55.84s-.15-1.67-1.97-2.77c0,0-2.28-1.06-1.67,1.02,0,0,.46,1.01,3.64,1.75"/>
        <path class="cls-3" d="M31.33,71.02l-1.67-1.64-.62-.25-.8-1.02s-1.13-1.89-2.77-1.31c0,0,1.24.25,1.27,1.31,0,0-1.46-.51-3.24,1.6,0,0,2.73-.55,7.82,1.31"/>
        <path class="cls-3" d="M25.1,67.56s-3.57-.98-4.19,1.97c0,0,1.38.47,4.19-1.97"/>
        <path class="cls-3" d="M20.7,57.59s1.56.11,2.8,2.18c0,0-1.27,1.06-1.78,0,0,0-.76-.88-1.02-2.18"/>
        <path class="cls-3" d="M21.5,60.57s1.49,1.09,2.77-.62c0,0,1.31,3.38,2.95,5.64,0,0-.95.51-1.42.36,0,0,.62-.33.33-1.02,0,0-1.86-.22-2.62-1.16,0,0,.62-.16.86-.81,0,0-2.09-.69-2.86-2.4"/>
        <path class="cls-3" d="M20.92,65.23s.22-.84,2.26-.36c0,0-.62.89-2.26.36"/>
        <path class="cls-3" d="M23.01,66.14s1.07-.99,2.24.54c0,0-1.78,0-2.24-.54"/>
        <path class="cls-3" d="M16.37,39.1s1.2.15,1.35-2.07c0,0,1.95,3.97,4.29,14.96,0,0-.47-1.86-2.11-2.66,0,0,.4-3.02-.22-4.04,0,0-.73.87-2.66.91,0,0,2.33-1.09,2.17-3.38,0,0-1.07-.29-1.4-.73,0,0,.4-.33.18-1.67,0,0-.91-.33-1.6-1.31"/>
        <path class="cls-3" d="M21.5,52.71s-.39-3.2-1.38-2.22c0,0-.81.87,1.38,2.22"/>
        <path class="cls-3" d="M14.4,49s-4.48-.73-4.62-5.09c0,0,.33-3.97,4-4.04,0,0,3.09-.25,3.28,3.13,0,0-.29,2.54-2.47,2.69,0,0-2.06-.04-2-2.22,0,0,.09-1.42,1.58-1.46,0,0,1.19,0,1.19,1.38,0,0-.47,1.27-1.64.22,0,0,.92,1.65,1.97-.11,0,0,.44-1.4-1.27-1.89,0,0-1.76-.25-2.16,1.76,0,0-.25,2.46,2.27,2.64,0,0,2.51.18,2.98-2.95,0,0,0-3.8-3.86-3.6,0,0-3.86-.04-4.22,4.37,0,0-.22,4.77,4.99,5.17"/>
        <path class="cls-3" d="M15.95,32.7h.88s2.29,1.16,4.09,8.92c0,0,4.17,19.37,11.76,26.42,0,0-7.43-3.85-12.22-26.14,0,0-.77-5.06-3.74-8.7h-.77v-.5Z"/>
        <path class="cls-3" d="M17.93,52.87s1.7-2.33,3.74.69c0,0,1.41,1.87,4.65,8.18,0,0,3.84,7.41,8.21,9.71,0,0-3.93-.87-8.55-9.5,0,0-1.85-4.11-4.48-8.12,0,0-1.62-2.72-3.57-.97"/>
        <path class="cls-3" d="M75.52,55.31s2.04-2.43-.58-3.4c0,0-1.84-.56-3.2,1.21-.98,1.28-2.13,1.41-2.13,1.41,0,0,3.73-.22,5.92.78"/>
        <path class="cls-3" d="M73.97,64.39s-1.64-2.37-2.87-.29c0,0-.76,1.71,1.02,2.58,0,0,3.24,1.13,3.53-2.55,0,0-.07-2.14-2.33-2.95,0,0-2.45-.81-4.02.98,0,0-1.52,1.55-1.12,4.05,0,0,.78,3.93,5.2,4.22,0,0,5.97-.04,6.51-6.59,0,0,.51-4.37-3.86-7.06,0,0-6.26-3.97-12.45,1.96,0,0,2.95-4.11,9.03-3.6,0,0,7.35.87,7.68,8.48,0,0,.11,6.84-6.88,7.21,0,0-4.46,0-5.6-4.48,0,0-.44-2.73,1.24-4.48,0,0,1.78-2.04,4.4-1.06,0,0,2.44.69,2.51,3.31,0,0-.15,3.82-3.93,2.87,0,0-2.11-.66-1.24-2.98,0,0,1.35-2.44,3.17.36"/>
        <path class="cls-3" d="M65.09,55.84s.15-1.67,1.97-2.77c0,0,2.28-1.06,1.67,1.02,0,0-.46,1.01-3.64,1.75"/>
        <path class="cls-3" d="M55.77,71.02l1.67-1.64.62-.25.8-1.02s1.13-1.89,2.77-1.31c0,0-1.24.25-1.27,1.31,0,0,1.46-.51,3.24,1.6,0,0-2.73-.55-7.82,1.31"/>
        <path class="cls-3" d="M62,67.56s3.57-.98,4.19,1.97c0,0-1.38.47-4.19-1.97"/>
        <path class="cls-3" d="M66.4,57.59s-1.56.11-2.8,2.18c0,0,1.27,1.06,1.78,0,0,0,.76-.88,1.02-2.18"/>
        <path class="cls-3" d="M65.6,60.57s-1.49,1.09-2.77-.62c0,0-1.31,3.38-2.95,5.64,0,0,.95.51,1.42.36,0,0-.62-.33-.33-1.02,0,0,1.86-.22,2.62-1.16,0,0-.62-.16-.86-.81,0,0,2.09-.69,2.86-2.4"/>
        <path class="cls-3" d="M66.18,65.23s-.22-.84-2.26-.36c0,0,.62.89,2.26.36"/>
        <path class="cls-3" d="M64.09,66.14s-1.07-.99-2.24.54c0,0,1.78,0,2.24-.54"/>
        <path class="cls-3" d="M70.73,39.1s-1.2.15-1.35-2.07c0,0-1.95,3.97-4.29,14.96,0,0,.47-1.86,2.11-2.66,0,0-.4-3.02.22-4.04,0,0,.73.87,2.66.91,0,0-2.33-1.09-2.17-3.38,0,0,1.07-.29,1.4-.73,0,0-.4-.33-.18-1.67,0,0,.91-.33,1.6-1.31"/>
        <path class="cls-3" d="M65.6,52.71s.39-3.2,1.38-2.22c0,0,.81.87-1.38,2.22"/>
        <path class="cls-3" d="M72.7,49s4.48-.73,4.62-5.09c0,0-.33-3.97-4-4.04,0,0-3.09-.25-3.28,3.13,0,0,.29,2.54,2.47,2.69,0,0,2.06-.04,2-2.22,0,0-.09-1.42-1.58-1.46,0,0-1.19,0-1.19,1.38,0,0,.47,1.27,1.64.22,0,0-.92,1.65-1.97-.11,0,0-.44-1.4,1.27-1.89,0,0,1.76-.25,2.16,1.76,0,0,.25,2.46-2.27,2.64,0,0-2.51.18-2.98-2.95,0,0,0-3.8,3.86-3.6,0,0,3.86-.04,4.22,4.37,0,0,.22,4.77-4.99,5.17"/>
        <path class="cls-3" d="M71.15,32.7h-.88s-2.29,1.16-4.09,8.92c0,0-4.17,19.37-11.76,26.42,0,0,7.43-3.85,12.22-26.14,0,0,.77-5.06,3.74-8.7h.77v-.5Z"/>
        <path class="cls-3" d="M69.17,52.87s-1.7-2.33-3.74.69c0,0-1.41,1.87-4.65,8.18,0,0-3.84,7.41-8.21,9.71,0,0,3.93-.87,8.55-9.5,0,0,1.85-4.11,4.48-8.12,0,0,1.62-2.72,3.57-.97"/>
        <path class="cls-3" d="M43.55,72.43h0s0,0,0,0c0,0,0,0,0,0h0c-.6-.36-20.73-12.45-19.1-39.7,0,0,7.05-3.48,19.1-3.48h0s0,0,0,0,0,0,0,0h0c12.04,0,19.1,3.48,19.1,3.48,1.64,27.26-18.5,39.34-19.1,39.7M65.08,30.9s-7.95-3.88-21.53-3.88h0s0,0,0,0h0c-13.58,0-21.53,3.88-21.53,3.88-1.84,30.38,20.86,43.85,21.53,44.25h0s0,0,0,0c0,0,0,0,0,0h0c.67-.4,23.37-13.87,21.53-44.25"/>
        <path class="cls-3" d="M43.55,70.78h0s0,0,0,0c0,0,0,0,0,0h0c-.56-.33-18.78-11.64-17.97-36.9,0,0,6.64-3.23,17.97-3.24h.01c11.33,0,17.97,3.24,17.97,3.24.89,25.07-17.41,36.57-17.97,36.89M61.91,33.53s-6.78-3.3-18.36-3.31h-.01c-11.58,0-18.36,3.31-18.36,3.31-.82,25.81,17.79,37.35,18.36,37.69h0s0,0,0,0c0,0,0,0,0,0h0c.57-.34,19.27-12.08,18.36-37.7"/>
        <path class="cls-3" d="M60.75,34.56s-6.36-3.08-17.21-3.08h-.01c-10.85,0-17.21,3.08-17.21,3.08-.1,24.09,16.67,34.79,17.21,35.1h0s0,0,0,0c0,0,0,0,0,0h0c.54-.32,17.47-10.97,17.21-35.11"/>
        <path class="cls-3" d="M37.7,26.5c.11-.01.22-.02.33-.03.02,0,.03,0,.05,0,1.77-.17,3.66-.27,5.62-.27s3.85.1,5.6.27c-.19-.61-.82-3.83,2.96-9.65,0,0-2.2,2.33-4.37,2.48,0,0,1.36,1.73.15,3.93,0,0-1.15,2.51-1.79.94,0,0-.33-.92.56-1.41,0,0-.6-.14-.64-1.23,0,0-.27,1-.98.93,0,0,1.09,1.39-.4,1.92,0,0-.51.04-.42-1.76,0,0-.18-2.96,2.05-4.9,0,0-2.1-1.2-2.91-3.51-.81,2.31-2.91,3.51-2.91,3.51,2.23,1.94,2.05,4.9,2.05,4.9.09,1.8-.42,1.76-.42,1.76-1.49-.53-.4-1.92-.4-1.92-.71.07-.98-.93-.98-.93-.04,1.09-.64,1.23-.64,1.23.89.49.56,1.41.56,1.41-.64,1.57-1.79-.94-1.79-.94-1.2-2.21.15-3.93.15-3.93-2.17-.15-4.37-2.48-4.37-2.48,3.86,5.94,3.11,9.17,2.95,9.68"/>
        <path class="cls-2" d="M40.52,46.05c0-2.66,0-3.14-.03-3.7-.03-.59-.17-.87-.75-1-.14-.04-.44-.05-.68-.05-.19,0-.3-.03-.3-.16s.12-.16.38-.16c.93,0,2.03.05,2.52.05.72,0,1.73-.05,2.53-.05,2.18,0,2.97.73,3.25,1,.38.37.87,1.15.87,2.08,0,2.48-1.82,4.23-4.3,4.23-.09,0-.28,0-.37-.02-.09-.02-.21-.04-.21-.16,0-.14.12-.19.49-.19.98,0,2.34-1.1,2.34-2.88,0-.58-.05-1.75-1.03-2.62-.63-.58-1.34-.68-1.75-.68-.26,0-.52.02-.68.07-.09.03-.14.14-.14.33v6.99c0,1.61,0,2.99.09,3.74.05.49.16.87.68.94.24.03.63.07.89.07.19,0,.28.05.28.14,0,.12-.14.17-.33.17-1.15,0-2.25-.05-2.71-.05-.4,0-1.5.05-2.2.05-.23,0-.35-.05-.35-.17,0-.09.07-.14.28-.14.26,0,.47-.04.63-.07.35-.07.44-.45.51-.96.09-.73.09-2.11.09-3.72v-3.07Z"/>
      </g>
      <g>
        <path class="cls-2" d="M200.93,12.71c0-6.29,0-7.45-.08-8.78-.08-1.41-.41-2.07-1.78-2.36-.33-.08-1.03-.12-1.61-.12-.46,0-.7-.08-.7-.37s.29-.37.91-.37c2.19,0,4.8.12,5.96.12,1.7,0,4.1-.12,6-.12,5.18,0,7.04,1.74,7.7,2.36.91.87,2.07,2.73,2.07,4.93,0,5.88-4.31,10.02-10.18,10.02-.21,0-.66,0-.87-.04-.21-.04-.5-.08-.5-.37,0-.33.29-.46,1.16-.46,2.32,0,5.55-2.61,5.55-6.83,0-1.37-.12-4.14-2.44-6.21-1.49-1.37-3.19-1.61-4.14-1.61-.62,0-1.24.04-1.61.17-.21.08-.33.33-.33.79v16.56c0,3.81,0,7.08.21,8.86.12,1.16.37,2.07,1.61,2.24.58.08,1.49.17,2.11.17.45,0,.66.12.66.33,0,.29-.33.41-.79.41-2.73,0-5.34-.12-6.42-.12-.95,0-3.56.12-5.22.12-.54,0-.83-.12-.83-.41,0-.21.17-.33.66-.33.62,0,1.12-.08,1.49-.17.83-.17,1.03-1.08,1.2-2.28.21-1.74.21-5.01.21-8.82v-7.29Z"/>
        <path class="cls-2" d="M230.69,15.98c0,.45.08.62.37.74.87.29,2.11.41,3.14.41,1.66,0,2.2-.16,2.94-.7,1.24-.91,2.44-2.81,2.44-6.21,0-5.88-3.89-7.58-6.34-7.58-1.03,0-1.78.04-2.19.17-.29.08-.37.25-.37.58v12.59ZM225.81,12.71c0-6.29,0-7.45-.08-8.78-.08-1.41-.41-2.07-1.78-2.36-.33-.08-1.03-.12-1.61-.12-.46,0-.71-.08-.71-.37s.29-.37.91-.37c2.19,0,4.8.12,5.67.12,1.41,0,4.56-.12,5.84-.12,2.61,0,5.38.25,7.62,1.78,1.16.79,2.82,2.9,2.82,5.67,0,3.06-1.28,5.88-5.47,9.27,3.69,4.64,6.54,8.32,8.98,10.89,2.32,2.4,4.02,2.69,4.64,2.82.46.08.83.12,1.16.12s.5.12.5.33c0,.33-.29.41-.79.41h-3.93c-2.32,0-3.35-.21-4.43-.79-1.78-.95-3.35-2.9-5.67-6.09-1.66-2.28-3.56-5.09-4.1-5.71-.21-.25-.45-.29-.74-.29l-3.6-.08c-.21,0-.33.08-.33.33v.58c0,3.85,0,7.12.21,8.86.12,1.2.37,2.11,1.61,2.28.62.08,1.53.17,2.03.17.33,0,.5.12.5.33,0,.29-.29.41-.83.41-2.4,0-5.46-.12-6.08-.12-.79,0-3.4.12-5.05.12-.54,0-.83-.12-.83-.41,0-.21.17-.33.66-.33.62,0,1.12-.08,1.49-.17.83-.17,1.03-1.08,1.2-2.28.21-1.74.21-5.01.21-8.82v-7.29Z"/>
        <path class="cls-2" d="M279.62,17.14c0-9.27-5.34-15.03-12.13-15.03-4.76,0-10.18,2.65-10.18,12.96,0,8.61,4.76,15.44,12.71,15.44,2.9,0,9.61-1.41,9.61-13.37M251.59,16.35c0-7.08,4.68-16.23,17.1-16.23,10.31,0,16.73,6,16.73,15.48s-6.62,16.97-17.14,16.97c-11.88,0-16.68-8.9-16.68-16.23"/>
        <path class="cls-2" d="M289.01,4.76c-.95-2.28-1.66-2.73-3.15-3.15-.62-.16-1.28-.16-1.61-.16-.37,0-.5-.12-.5-.37,0-.33.45-.37,1.08-.37,2.19,0,4.55.12,6,.12,1.04,0,3.02-.12,5.09-.12.5,0,.95.08.95.37s-.25.37-.62.37c-.66,0-1.28.04-1.62.29-.29.21-.41.5-.41.87,0,.54.37,1.7.95,3.19l7.12,18.8h.17c1.78-4.55,7.16-17.89,8.16-20.62.21-.54.37-1.16.37-1.53,0-.33-.16-.66-.54-.79-.5-.17-1.12-.21-1.66-.21-.37,0-.7-.04-.7-.33,0-.33.37-.41,1.16-.41,2.07,0,3.81.12,4.35.12.7,0,2.65-.12,3.89-.12.54,0,.87.08.87.37s-.25.37-.66.37-1.28,0-2.03.5c-.54.37-1.16,1.08-2.28,3.73-1.61,3.89-2.73,6.13-4.97,11.22-2.65,6.04-4.59,10.56-5.51,12.63-1.08,2.4-1.33,3.06-1.9,3.06-.54,0-.79-.58-1.57-2.53l-10.43-25.3Z"/>
        <path class="cls-2" d="M324.22,12.71c0-6.29,0-7.45-.08-8.78-.08-1.41-.5-2.11-1.41-2.32-.46-.12-.99-.17-1.49-.17-.41,0-.66-.08-.66-.41,0-.25.33-.33.99-.33,1.57,0,4.18.12,5.38.12,1.04,0,3.48-.12,5.05-.12.54,0,.87.08.87.33,0,.33-.25.41-.66.41s-.74.04-1.24.12c-1.12.21-1.45.91-1.53,2.36-.08,1.33-.08,2.48-.08,8.78v7.29c0,4.02,0,7.29.16,9.07.12,1.12.41,1.86,1.66,2.03.58.08,1.49.17,2.11.17.45,0,.66.12.66.33,0,.29-.33.41-.79.41-2.73,0-5.34-.12-6.46-.12-.95,0-3.56.12-5.22.12-.54,0-.83-.12-.83-.41,0-.21.16-.33.66-.33.62,0,1.12-.08,1.49-.17.83-.17,1.08-.87,1.2-2.07.21-1.74.21-5.01.21-9.02v-7.29Z"/>
        <path class="cls-2" d="M346.99,17.26c0,4.39.04,7.58.08,8.36.04,1.03.12,2.69.46,3.15.54.79,2.15,1.66,5.42,1.66,4.22,0,7.04-.83,9.52-2.98,2.65-2.28,3.48-6.04,3.48-10.31,0-5.26-2.19-8.65-3.97-10.35-3.81-3.64-8.53-4.14-11.76-4.14-.83,0-2.36.12-2.69.29-.37.17-.5.37-.5.83-.04,1.41-.04,5.01-.04,8.28v5.22ZM341.81,12.71c0-6.29,0-7.45-.08-8.78-.08-1.41-.41-2.07-1.78-2.36-.33-.08-1.03-.12-1.61-.12-.46,0-.7-.08-.7-.37s.29-.37.91-.37c2.19,0,4.8.12,5.96.12,1.28,0,3.89-.12,6.38-.12,5.17,0,12.09,0,16.6,4.72,2.07,2.15,4.02,5.59,4.02,10.52,0,5.22-2.19,9.19-4.51,11.55-1.9,1.95-6.21,4.89-13.87,4.89-1.49,0-3.19-.12-4.76-.25-1.57-.12-3.02-.25-4.06-.25-.45,0-1.37,0-2.36.04-.95,0-2.03.08-2.86.08-.54,0-.83-.12-.83-.41,0-.21.17-.33.66-.33.62,0,1.12-.08,1.49-.17.83-.17,1.03-1.08,1.2-2.28.21-1.74.21-5.01.21-8.82v-7.29Z"/>
        <path class="cls-2" d="M378.2,12.71c0-6.29,0-7.45-.08-8.78-.08-1.41-.41-2.07-1.78-2.36-.33-.08-1.03-.12-1.61-.12-.46,0-.7-.08-.7-.37s.29-.37.91-.37c1.12,0,2.32.04,3.35.04,1.08.04,2.03.08,2.61.08,1.33,0,9.56,0,10.35-.04.79-.08,1.45-.17,1.78-.25.21-.04.46-.16.66-.16s.25.16.25.37c0,.29-.21.79-.33,2.69-.04.41-.12,2.24-.21,2.73-.04.21-.12.46-.41.46s-.37-.21-.37-.58c0-.29-.04-.99-.25-1.49-.29-.74-.7-1.24-2.77-1.49-.7-.08-5.05-.17-5.88-.17-.21,0-.29.12-.29.41v10.47c0,.29.04.46.29.46.91,0,5.67,0,6.63-.08.99-.08,1.61-.21,1.99-.62.29-.33.46-.54.66-.54.17,0,.29.08.29.33s-.16.91-.33,3.02c-.04.83-.17,2.48-.17,2.77,0,.33,0,.79-.37.79-.29,0-.37-.17-.37-.37-.04-.41-.04-.95-.17-1.49-.21-.83-.79-1.45-2.32-1.62-.79-.08-4.89-.12-5.88-.12-.21,0-.25.17-.25.41v3.27c0,1.41-.04,5.22,0,6.42.08,2.86.74,3.48,4.97,3.48,1.08,0,2.82,0,3.89-.5,1.08-.5,1.57-1.37,1.86-3.06.08-.46.16-.62.45-.62.33,0,.33.33.33.75,0,.95-.33,3.77-.54,4.6-.29,1.08-.66,1.08-2.23,1.08-3.11,0-5.38-.08-7.16-.12-1.78-.08-3.06-.12-4.31-.12-.46,0-1.37,0-2.36.04-.95,0-2.03.08-2.86.08-.54,0-.83-.12-.83-.41,0-.21.17-.33.66-.33.62,0,1.12-.08,1.49-.17.83-.17,1.03-1.08,1.2-2.28.21-1.74.21-5.01.21-8.82v-7.29Z"/>
        <path class="cls-2" d="M405.79,26.37c.08,3.23.62,4.31,1.45,4.6.7.25,1.49.29,2.15.29.46,0,.7.08.7.33,0,.33-.37.41-.95.41-2.69,0-4.35-.12-5.13-.12-.37,0-2.32.12-4.47.12-.54,0-.91-.04-.91-.41,0-.25.25-.33.66-.33.54,0,1.28-.04,1.86-.21,1.08-.33,1.24-1.53,1.28-5.13l.37-24.51c0-.83.12-1.41.54-1.41.46,0,.83.54,1.53,1.28.5.54,6.79,7.29,12.83,13.29,2.82,2.81,8.4,8.78,9.11,9.44h.21l-.41-18.59c-.04-2.53-.41-3.31-1.41-3.73-.62-.25-1.61-.25-2.2-.25-.5,0-.66-.12-.66-.37,0-.33.45-.37,1.08-.37,2.15,0,4.14.12,5.01.12.46,0,2.03-.12,4.06-.12.54,0,.95.04.95.37,0,.25-.25.37-.75.37-.41,0-.74,0-1.24.12-1.16.33-1.49,1.2-1.53,3.52l-.46,26.13c0,.91-.16,1.28-.54,1.28-.45,0-.95-.46-1.41-.91-2.61-2.48-7.91-7.91-12.21-12.17-4.51-4.47-9.11-9.65-9.85-10.43h-.12l.46,17.39Z"/>
        <path class="cls-2" d="M441.35,28.07c-4.06-3.56-5.13-8.2-5.13-12.21,0-2.82.87-7.7,4.84-11.34,2.98-2.73,6.91-4.39,13.08-4.39,2.57,0,4.1.17,6,.41,1.57.21,2.9.58,4.14.7.46.04.62.25.62.5,0,.33-.12.83-.21,2.28-.08,1.37-.04,3.64-.12,4.47-.04.62-.12.95-.5.95-.33,0-.41-.33-.41-.91-.04-1.28-.58-2.73-1.61-3.81-1.37-1.45-4.6-2.57-8.4-2.57-3.6,0-5.96.91-7.78,2.57-3.02,2.77-3.81,6.71-3.81,10.72,0,9.85,7.49,14.74,13.04,14.74,3.68,0,5.92-.41,7.58-2.32.7-.79,1.24-1.99,1.41-2.73.12-.66.21-.83.54-.83.29,0,.37.29.37.62,0,.5-.5,4.1-.91,5.51-.21.7-.37.91-1.08,1.2-1.66.66-4.8.95-7.45.95-5.67,0-10.43-1.24-14.2-4.51"/>
        <path class="cls-2" d="M473.16,12.71c0-6.29,0-7.45-.08-8.78-.08-1.41-.41-2.07-1.78-2.36-.33-.08-1.03-.12-1.61-.12-.46,0-.7-.08-.7-.37s.29-.37.91-.37c1.12,0,2.32.04,3.35.04,1.08.04,2.03.08,2.61.08,1.33,0,9.56,0,10.35-.04.79-.08,1.45-.17,1.78-.25.21-.04.46-.16.66-.16s.25.16.25.37c0,.29-.21.79-.33,2.69-.04.41-.12,2.24-.21,2.73-.04.21-.12.46-.41.46s-.37-.21-.37-.58c0-.29-.04-.99-.25-1.49-.29-.74-.7-1.24-2.77-1.49-.7-.08-5.05-.17-5.88-.17-.21,0-.29.12-.29.41v10.47c0,.29.04.46.29.46.91,0,5.67,0,6.62-.08.99-.08,1.62-.21,1.99-.62.29-.33.46-.54.66-.54.16,0,.29.08.29.33s-.16.91-.33,3.02c-.04.83-.17,2.48-.17,2.77,0,.33,0,.79-.37.79-.29,0-.37-.17-.37-.37-.04-.41-.04-.95-.17-1.49-.21-.83-.79-1.45-2.32-1.62-.79-.08-4.89-.12-5.88-.12-.21,0-.25.17-.25.41v3.27c0,1.41-.04,5.22,0,6.42.08,2.86.74,3.48,4.97,3.48,1.08,0,2.82,0,3.89-.5,1.08-.5,1.57-1.37,1.86-3.06.08-.46.16-.62.46-.62.33,0,.33.33.33.75,0,.95-.33,3.77-.54,4.6-.29,1.08-.66,1.08-2.23,1.08-3.1,0-5.38-.08-7.16-.12-1.78-.08-3.06-.12-4.31-.12-.45,0-1.37,0-2.36.04-.95,0-2.03.08-2.86.08-.54,0-.83-.12-.83-.41,0-.21.16-.33.66-.33.62,0,1.12-.08,1.49-.17.83-.17,1.03-1.08,1.2-2.28.21-1.74.21-5.01.21-8.82v-7.29Z"/>
      </g>
      <g>
        <path class="cls-1" d="M199.55,50.04c-1.73-1.56-2.18-3.6-2.18-5.37,0-1.24.37-3.38,2.06-4.99,1.27-1.2,2.94-1.93,5.57-1.93,1.09,0,1.74.07,2.55.18.67.09,1.23.25,1.76.31.19.02.26.11.26.22,0,.15-.05.36-.09,1-.04.6-.02,1.6-.05,1.96-.02.27-.05.42-.21.42-.14,0-.18-.15-.18-.4-.02-.56-.25-1.2-.69-1.67-.58-.64-1.96-1.13-3.58-1.13-1.53,0-2.54.4-3.31,1.13-1.29,1.22-1.62,2.95-1.62,4.71,0,4.33,3.19,6.48,5.55,6.48,1.57,0,2.52-.18,3.22-1.02.3-.35.53-.87.6-1.2.05-.29.09-.36.23-.36.12,0,.16.13.16.27,0,.22-.21,1.8-.39,2.42-.09.31-.16.4-.46.53-.7.29-2.04.42-3.17.42-2.41,0-4.44-.55-6.04-1.98Z"/>
        <path class="cls-1" d="M212.51,44.89c0-3.11,1.99-7.13,7.28-7.13,4.39,0,7.12,2.64,7.12,6.8s-2.82,7.46-7.29,7.46c-5.06,0-7.1-3.91-7.1-7.13ZM224.44,45.24c0-4.08-2.27-6.6-5.16-6.6-2.03,0-4.33,1.16-4.33,5.69,0,3.79,2.03,6.79,5.41,6.79,1.23,0,4.09-.62,4.09-5.88Z"/>
        <path class="cls-1" d="M233.84,46.49c0,2.33,0,3.59.37,3.91.3.27.76.4,2.13.4.93,0,1.62-.02,2.06-.51.21-.24.42-.75.46-1.09.02-.16.05-.27.19-.27.12,0,.14.09.14.31,0,.2-.12,1.56-.26,2.09-.11.4-.19.49-1.11.49-1.27,0-2.18-.04-2.98-.05-.79-.04-1.43-.05-2.15-.05-.19,0-.58,0-1,.02-.4,0-.86.04-1.22.04-.23,0-.35-.05-.35-.18,0-.09.07-.15.28-.15.26,0,.48-.04.63-.07.35-.07.44-.47.51-1,.09-.76.09-2.2.09-3.88v-3.2c0-2.77,0-3.27-.03-3.86-.04-.62-.18-.91-.76-1.04-.14-.04-.35-.05-.58-.05-.19,0-.3-.04-.3-.16s.12-.16.39-.16c.83,0,1.94.05,2.41.05.42,0,1.71-.05,2.4-.05.25,0,.37.04.37.16s-.11.16-.32.16c-.19,0-.48.02-.69.05-.48.09-.62.4-.65,1.04-.04.58-.04,1.09-.04,3.86v3.2Z"/>
        <path class="cls-1" d="M245.55,46.49c0,2.33,0,3.59.37,3.91.3.27.76.4,2.13.4.93,0,1.62-.02,2.06-.51.21-.24.42-.75.46-1.09.02-.16.05-.27.19-.27.12,0,.14.09.14.31,0,.2-.12,1.56-.26,2.09-.11.4-.19.49-1.11.49-1.27,0-2.18-.04-2.98-.05-.79-.04-1.43-.05-2.15-.05-.19,0-.58,0-1,.02-.4,0-.86.04-1.21.04-.23,0-.35-.05-.35-.18,0-.09.07-.15.28-.15.26,0,.48-.04.63-.07.35-.07.44-.47.51-1,.09-.76.09-2.2.09-3.88v-3.2c0-2.77,0-3.27-.03-3.86-.03-.62-.18-.91-.76-1.04-.14-.04-.35-.05-.58-.05-.19,0-.3-.04-.3-.16s.12-.16.39-.16c.83,0,1.94.05,2.41.05.42,0,1.71-.05,2.4-.05.25,0,.37.04.37.16s-.11.16-.32.16c-.19,0-.48.02-.69.05-.48.09-.62.4-.65,1.04-.03.58-.03,1.09-.03,3.86v3.2Z"/>
        <path class="cls-1" d="M255.06,43.29c0-2.77,0-3.27-.03-3.86-.03-.62-.18-.91-.76-1.04-.14-.04-.44-.05-.69-.05-.19,0-.3-.04-.3-.16s.12-.16.39-.16c.48,0,.99.02,1.43.02.46.02.86.04,1.11.04.56,0,4.07,0,4.4-.02.34-.04.62-.07.76-.11.09-.02.19-.07.28-.07s.11.07.11.16c0,.13-.09.35-.14,1.18-.02.18-.05.98-.09,1.2-.02.09-.05.2-.18.2s-.16-.09-.16-.25c0-.13-.02-.44-.11-.66-.12-.33-.3-.55-1.18-.66-.3-.04-2.15-.07-2.5-.07-.09,0-.12.05-.12.18v4.6c0,.13.02.2.12.2.39,0,2.41,0,2.82-.04.42-.04.69-.09.85-.27.12-.15.19-.24.28-.24.07,0,.12.04.12.15s-.07.4-.14,1.33c-.02.36-.07,1.09-.07,1.22,0,.15,0,.35-.16.35-.12,0-.16-.07-.16-.16-.02-.18-.02-.42-.07-.65-.09-.36-.33-.64-.99-.71-.34-.04-2.08-.05-2.5-.05-.09,0-.11.07-.11.18v1.44c0,.62-.02,2.29,0,2.82.03,1.26.32,1.53,2.11,1.53.46,0,1.2,0,1.66-.22s.67-.6.79-1.35c.03-.2.07-.27.19-.27.14,0,.14.14.14.33,0,.42-.14,1.66-.23,2.02-.12.47-.28.47-.95.47-1.32,0-2.29-.04-3.05-.05-.76-.04-1.3-.05-1.83-.05-.19,0-.58,0-1,.02-.4,0-.86.04-1.21.04-.23,0-.35-.05-.35-.18,0-.09.07-.15.28-.15.26,0,.48-.04.63-.07.35-.07.44-.47.51-1,.09-.76.09-2.2.09-3.88v-3.2Z"/>
        <path class="cls-1" d="M277.94,50.55c0,.49-.02.53-.23.65-1.15.62-2.87.82-4.25.82-4.32,0-8.14-2.11-8.14-7.13,0-2.91,1.46-4.95,3.07-5.95,1.69-1.06,3.26-1.18,4.74-1.18,1.22,0,2.77.22,3.12.29.37.07.99.18,1.39.2.21.02.25.09.25.22,0,.2-.12.71-.12,2.98,0,.29-.05.38-.19.38-.12,0-.16-.09-.18-.24-.05-.42-.14-1-.6-1.51-.53-.58-1.94-1.42-3.93-1.42-.97,0-2.26.07-3.49,1.13-.99.86-1.62,2.22-1.62,4.46,0,3.91,2.41,6.84,6.13,6.84.46,0,1.08,0,1.5-.2.26-.13.34-.36.34-.67v-1.71c0-.91,0-1.6-.02-2.15-.02-.62-.18-.91-.76-1.04-.14-.04-.44-.05-.69-.05-.16,0-.26-.04-.26-.15,0-.15.12-.18.37-.18.92,0,2.03.05,2.55.05s1.48-.05,2.06-.05c.23,0,.35.04.35.18,0,.11-.11.15-.23.15-.14,0-.26.02-.48.05-.48.09-.65.4-.67,1.04-.02.55-.02,1.27-.02,2.18v2Z"/>
        <path class="cls-1" d="M283.91,43.29c0-2.77,0-3.27-.03-3.86-.04-.62-.18-.91-.76-1.04-.14-.04-.44-.05-.69-.05-.19,0-.3-.04-.3-.16s.12-.16.39-.16c.48,0,.99.02,1.43.02.46.02.86.04,1.11.04.56,0,4.07,0,4.4-.02.34-.04.62-.07.76-.11.09-.02.19-.07.28-.07s.1.07.1.16c0,.13-.09.35-.14,1.18-.02.18-.05.98-.09,1.2-.02.09-.05.2-.18.2s-.16-.09-.16-.25c0-.13-.02-.44-.11-.66-.12-.33-.3-.55-1.18-.66-.3-.04-2.15-.07-2.5-.07-.09,0-.12.05-.12.18v4.6c0,.13.02.2.12.2.39,0,2.41,0,2.82-.04.42-.04.69-.09.85-.27.12-.15.19-.24.28-.24.07,0,.12.04.12.15s-.07.4-.14,1.33c-.02.36-.07,1.09-.07,1.22,0,.15,0,.35-.16.35-.12,0-.16-.07-.16-.16-.02-.18-.02-.42-.07-.65-.09-.36-.33-.64-.99-.71-.34-.04-2.08-.05-2.5-.05-.09,0-.11.07-.11.18v1.44c0,.62-.02,2.29,0,2.82.03,1.26.32,1.53,2.11,1.53.46,0,1.2,0,1.66-.22s.67-.6.79-1.35c.03-.2.07-.27.19-.27.14,0,.14.14.14.33,0,.42-.14,1.66-.23,2.02-.12.47-.28.47-.95.47-1.32,0-2.29-.04-3.05-.05-.76-.04-1.3-.05-1.83-.05-.19,0-.58,0-1.01.02-.4,0-.86.04-1.21.04-.23,0-.35-.05-.35-.18,0-.09.07-.15.28-.15.26,0,.48-.04.63-.07.35-.07.44-.47.51-1,.09-.76.09-2.2.09-3.88v-3.2Z"/>
        <path class="cls-1" d="M300.52,44.89c0-3.11,1.99-7.13,7.28-7.13,4.39,0,7.12,2.64,7.12,6.8s-2.82,7.46-7.29,7.46c-5.06,0-7.1-3.91-7.1-7.13ZM312.45,45.24c0-4.08-2.27-6.6-5.16-6.6-2.03,0-4.33,1.16-4.33,5.69,0,3.79,2.03,6.79,5.41,6.79,1.23,0,4.09-.62,4.09-5.88Z"/>
        <path class="cls-1" d="M321.87,46.49c0,1.75,0,3.11.09,3.88.05.53.16.93.69,1,.25.04.63.07.88.07.23,0,.3.05.3.15,0,.13-.12.18-.39.18-1.11,0-2.22-.05-2.68-.05s-1.57.05-2.24.05c-.25,0-.37-.04-.37-.18,0-.09.07-.15.26-.15.26,0,.48-.04.63-.07.35-.07.44-.47.51-1,.09-.76.09-2.13.09-3.88v-3.2c0-2.77,0-3.27-.03-3.86-.03-.62-.18-.91-.76-1.04-.14-.04-.44-.05-.69-.05-.18,0-.3-.04-.3-.15,0-.15.14-.18.4-.18.46,0,.97.02,1.43.02.46.02.86.04,1.11.04.67,0,4.25,0,4.65-.02.34-.02.55-.02.72-.07.11-.04.19-.11.28-.11.07,0,.12.07.12.16,0,.13-.09.35-.14.82-.02.18-.05,1.26-.09,1.47-.02.15-.05.25-.18.25s-.16-.09-.18-.29c0-.15,0-.44-.11-.69-.12-.25-.49-.53-1.16-.55l-2.71-.05c-.11,0-.16.05-.16.25v4.55c0,.11.02.16.12.16l2.26-.02c.3,0,.55,0,.79-.02.34-.02.58-.09.76-.33.09-.11.12-.18.23-.18.07,0,.11.05.11.16s-.09.56-.14,1.13c-.04.36-.07,1.2-.07,1.33,0,.16,0,.35-.18.35-.11,0-.14-.13-.14-.25s-.04-.35-.11-.56c-.09-.25-.35-.58-.9-.66-.44-.05-2.31-.05-2.61-.05-.09,0-.12.04-.12.16v1.47Z"/>
        <path class="cls-1" d="M338,43.29c0-2.77,0-3.27-.03-3.86-.04-.62-.18-.91-.76-1.04-.14-.04-.44-.05-.69-.05-.19,0-.3-.04-.3-.16s.12-.16.39-.16c.48,0,.99.02,1.43.02.46.02.86.04,1.11.04.56,0,4.07,0,4.4-.02.34-.04.62-.07.76-.11.09-.02.19-.07.28-.07s.1.07.1.16c0,.13-.09.35-.14,1.18-.02.18-.05.98-.09,1.2-.02.09-.05.2-.18.2s-.16-.09-.16-.25c0-.13-.02-.44-.11-.66-.12-.33-.3-.55-1.18-.66-.3-.04-2.15-.07-2.5-.07-.09,0-.12.05-.12.18v4.6c0,.13.02.2.12.2.39,0,2.41,0,2.82-.04.42-.04.69-.09.85-.27.12-.15.19-.24.28-.24.07,0,.12.04.12.15s-.07.4-.14,1.33c-.02.36-.07,1.09-.07,1.22,0,.15,0,.35-.16.35-.12,0-.16-.07-.16-.16-.02-.18-.02-.42-.07-.65-.09-.36-.33-.64-.99-.71-.34-.04-2.08-.05-2.5-.05-.09,0-.11.07-.11.18v1.44c0,.62-.02,2.29,0,2.82.03,1.26.32,1.53,2.11,1.53.46,0,1.2,0,1.66-.22s.67-.6.79-1.35c.03-.2.07-.27.19-.27.14,0,.14.14.14.33,0,.42-.14,1.66-.23,2.02-.12.47-.28.47-.95.47-1.32,0-2.29-.04-3.05-.05-.76-.04-1.3-.05-1.83-.05-.19,0-.58,0-1.01.02-.4,0-.86.04-1.21.04-.23,0-.35-.05-.35-.18,0-.09.07-.15.28-.15.26,0,.48-.04.63-.07.35-.07.44-.47.51-1,.09-.76.09-2.2.09-3.88v-3.2Z"/>
        <path class="cls-1" d="M351.17,49.29c.03,1.42.26,1.89.62,2.02.3.11.63.13.92.13.19,0,.3.04.3.15,0,.15-.16.18-.41.18-1.15,0-1.85-.05-2.18-.05-.16,0-.99.05-1.9.05-.23,0-.39-.02-.39-.18,0-.11.1-.15.28-.15.23,0,.55-.02.79-.09.46-.15.53-.67.55-2.26l.16-10.72c0-.36.05-.62.23-.62.19,0,.35.24.65.56.21.24,2.89,3.15,5.46,5.79,1.2,1.24,3.58,3.86,3.88,4.15h.09l-.18-8.17c-.02-1.11-.18-1.46-.6-1.64-.26-.11-.69-.11-.93-.11-.21,0-.28-.05-.28-.16,0-.15.19-.16.46-.16.92,0,1.76.05,2.13.05.19,0,.86-.05,1.73-.05.23,0,.4.02.4.16,0,.11-.11.16-.32.16-.18,0-.32,0-.53.05-.49.15-.63.53-.65,1.55l-.19,11.48c0,.4-.07.56-.23.56-.19,0-.41-.2-.6-.4-1.11-1.09-3.37-3.47-5.2-5.35-1.92-1.97-3.88-4.18-4.19-4.53h-.05l.19,7.59Z"/>
        <path class="cls-1" d="M378.44,50.55c0,.49-.02.53-.23.65-1.15.62-2.87.82-4.25.82-4.32,0-8.14-2.11-8.14-7.13,0-2.91,1.46-4.95,3.07-5.95,1.69-1.06,3.26-1.18,4.74-1.18,1.22,0,2.77.22,3.12.29.37.07.99.18,1.39.2.21.02.25.09.25.22,0,.2-.12.71-.12,2.98,0,.29-.05.38-.19.38-.12,0-.16-.09-.18-.24-.05-.42-.14-1-.6-1.51-.53-.58-1.94-1.42-3.93-1.42-.97,0-2.26.07-3.49,1.13-.99.86-1.62,2.22-1.62,4.46,0,3.91,2.41,6.84,6.13,6.84.46,0,1.08,0,1.5-.2.26-.13.34-.36.34-.67v-1.71c0-.91,0-1.6-.02-2.15-.02-.62-.18-.91-.76-1.04-.14-.04-.44-.05-.69-.05-.16,0-.26-.04-.26-.15,0-.15.12-.18.37-.18.92,0,2.03.05,2.55.05s1.48-.05,2.06-.05c.23,0,.35.04.35.18,0,.11-.11.15-.23.15-.14,0-.26.02-.48.05-.48.09-.65.4-.67,1.04-.02.55-.02,1.27-.02,2.18v2Z"/>
        <path class="cls-1" d="M384.41,43.29c0-2.77,0-3.27-.03-3.86-.03-.62-.21-.93-.6-1.02-.19-.05-.42-.07-.63-.07-.18,0-.28-.04-.28-.18,0-.11.14-.15.42-.15.67,0,1.78.05,2.29.05.44,0,1.48-.05,2.15-.05.23,0,.37.04.37.15,0,.15-.1.18-.28.18s-.32.02-.53.05c-.48.09-.62.4-.65,1.04-.03.58-.03,1.09-.03,3.86v3.2c0,1.77,0,3.2.07,3.99.05.49.18.82.71.89.25.04.63.07.9.07.19,0,.28.05.28.15,0,.13-.14.18-.34.18-1.16,0-2.27-.05-2.75-.05-.4,0-1.52.05-2.22.05-.23,0-.35-.05-.35-.18,0-.09.07-.15.28-.15.26,0,.48-.04.63-.07.35-.07.46-.38.51-.91.09-.76.09-2.2.09-3.97v-3.2Z"/>
        <path class="cls-1" d="M394.41,49.29c.03,1.42.26,1.89.62,2.02.3.11.63.13.92.13.19,0,.3.04.3.15,0,.15-.16.18-.41.18-1.15,0-1.85-.05-2.18-.05-.16,0-.99.05-1.9.05-.23,0-.39-.02-.39-.18,0-.11.1-.15.28-.15.23,0,.55-.02.79-.09.46-.15.53-.67.55-2.26l.16-10.72c0-.36.05-.62.23-.62.19,0,.35.24.65.56.21.24,2.89,3.15,5.46,5.79,1.2,1.24,3.58,3.86,3.88,4.15h.09l-.18-8.17c-.02-1.11-.18-1.46-.6-1.64-.26-.11-.69-.11-.93-.11-.21,0-.28-.05-.28-.16,0-.15.19-.16.46-.16.92,0,1.76.05,2.13.05.19,0,.86-.05,1.73-.05.23,0,.4.02.4.16,0,.11-.11.16-.32.16-.18,0-.32,0-.53.05-.49.15-.63.53-.65,1.55l-.19,11.48c0,.4-.07.56-.23.56-.19,0-.41-.2-.6-.4-1.11-1.09-3.37-3.47-5.2-5.35-1.92-1.97-3.88-4.18-4.19-4.53h-.05l.19,7.59Z"/>
        <path class="cls-1" d="M411.16,43.29c0-2.77,0-3.27-.03-3.86-.04-.62-.18-.91-.76-1.04-.14-.04-.44-.05-.69-.05-.19,0-.3-.04-.3-.16s.12-.16.39-.16c.48,0,.99.02,1.43.02.46.02.86.04,1.11.04.56,0,4.07,0,4.4-.02.34-.04.62-.07.76-.11.09-.02.19-.07.28-.07s.1.07.1.16c0,.13-.09.35-.14,1.18-.02.18-.05.98-.09,1.2-.02.09-.05.2-.18.2s-.16-.09-.16-.25c0-.13-.02-.44-.11-.66-.12-.33-.3-.55-1.18-.66-.3-.04-2.15-.07-2.5-.07-.09,0-.12.05-.12.18v4.6c0,.13.02.2.12.2.39,0,2.41,0,2.82-.04.42-.04.69-.09.85-.27.12-.15.19-.24.28-.24.07,0,.12.04.12.15s-.07.4-.14,1.33c-.02.36-.07,1.09-.07,1.22,0,.15,0,.35-.16.35-.12,0-.16-.07-.16-.16-.02-.18-.02-.42-.07-.65-.09-.36-.33-.64-.99-.71-.34-.04-2.08-.05-2.5-.05-.09,0-.11.07-.11.18v1.44c0,.62-.02,2.29,0,2.82.03,1.26.32,1.53,2.11,1.53.46,0,1.2,0,1.66-.22s.67-.6.79-1.35c.03-.2.07-.27.19-.27.14,0,.14.14.14.33,0,.42-.14,1.66-.23,2.02-.12.47-.28.47-.95.47-1.32,0-2.29-.04-3.05-.05-.76-.04-1.3-.05-1.83-.05-.19,0-.58,0-1.01.02-.4,0-.86.04-1.21.04-.23,0-.35-.05-.35-.18,0-.09.07-.15.28-.15.26,0,.48-.04.63-.07.35-.07.44-.47.51-1,.09-.76.09-2.2.09-3.88v-3.2Z"/>
        <path class="cls-1" d="M423.35,43.29c0-2.77,0-3.27-.03-3.86-.04-.62-.18-.91-.76-1.04-.14-.04-.44-.05-.69-.05-.19,0-.3-.04-.3-.16s.12-.16.39-.16c.48,0,.99.02,1.43.02.46.02.86.04,1.11.04.56,0,4.07,0,4.4-.02.34-.04.62-.07.76-.11.09-.02.19-.07.28-.07s.1.07.1.16c0,.13-.09.35-.14,1.18-.02.18-.05.98-.09,1.2-.02.09-.05.2-.18.2s-.16-.09-.16-.25c0-.13-.02-.44-.11-.66-.12-.33-.3-.55-1.18-.66-.3-.04-2.15-.07-2.5-.07-.09,0-.12.05-.12.18v4.6c0,.13.02.2.12.2.39,0,2.41,0,2.82-.04.42-.04.69-.09.85-.27.12-.15.19-.24.28-.24.07,0,.12.04.12.15s-.07.4-.14,1.33c-.02.36-.07,1.09-.07,1.22,0,.15,0,.35-.16.35-.12,0-.16-.07-.16-.16-.02-.18-.02-.42-.07-.65-.09-.36-.33-.64-.99-.71-.34-.04-2.08-.05-2.5-.05-.09,0-.11.07-.11.18v1.44c0,.62-.02,2.29,0,2.82.03,1.26.32,1.53,2.11,1.53.46,0,1.2,0,1.66-.22s.67-.6.79-1.35c.03-.2.07-.27.19-.27.14,0,.14.14.14.33,0,.42-.14,1.66-.23,2.02-.12.47-.28.47-.95.47-1.32,0-2.29-.04-3.05-.05-.76-.04-1.3-.05-1.83-.05-.19,0-.58,0-1.01.02-.4,0-.86.04-1.21.04-.23,0-.35-.05-.35-.18,0-.09.07-.15.28-.15.26,0,.48-.04.63-.07.35-.07.44-.47.51-1,.09-.76.09-2.2.09-3.88v-3.2Z"/>
        <path class="cls-1" d="M435.53,43.29c0-2.77,0-3.27-.03-3.86-.03-.62-.18-.91-.76-1.04-.14-.04-.44-.05-.69-.05-.19,0-.3-.04-.3-.16s.12-.16.39-.16c.93,0,2.04.05,2.41.05.6,0,1.94-.05,2.48-.05,1.11,0,2.29.11,3.24.78.49.35,1.2,1.27,1.2,2.49,0,1.35-.55,2.58-2.32,4.08,1.57,2.04,2.78,3.66,3.82,4.79.99,1.05,1.71,1.18,1.97,1.24.19.04.35.05.49.05s.21.05.21.15c0,.15-.12.18-.34.18h-1.67c-.99,0-1.43-.09-1.89-.35-.76-.42-1.43-1.27-2.41-2.67-.7-1-1.52-2.24-1.74-2.51-.09-.11-.19-.13-.32-.13l-1.53-.04c-.09,0-.14.04-.14.15v.25c0,1.69,0,3.13.09,3.89.05.53.16.93.69,1,.26.04.65.07.86.07.14,0,.21.05.21.15,0,.13-.12.18-.35.18-1.02,0-2.33-.05-2.59-.05-.34,0-1.45.05-2.15.05-.23,0-.35-.05-.35-.18,0-.09.07-.15.28-.15.26,0,.48-.04.63-.07.35-.07.44-.47.51-1,.09-.76.09-2.2.09-3.88v-3.2ZM437.61,44.73c0,.2.03.27.16.33.37.13.9.18,1.34.18.7,0,.93-.07,1.25-.31.53-.4,1.04-1.24,1.04-2.73,0-2.58-1.66-3.33-2.7-3.33-.44,0-.76.02-.93.07-.12.04-.16.11-.16.25v5.53Z"/>
        <path class="cls-1" d="M449.89,43.29c0-2.77,0-3.27-.03-3.86-.03-.62-.21-.93-.6-1.02-.19-.05-.42-.07-.63-.07-.18,0-.28-.04-.28-.18,0-.11.14-.15.42-.15.67,0,1.78.05,2.29.05.44,0,1.48-.05,2.15-.05.23,0,.37.04.37.15,0,.15-.1.18-.28.18s-.32.02-.53.05c-.48.09-.62.4-.65,1.04-.03.58-.03,1.09-.03,3.86v3.2c0,1.77,0,3.2.07,3.99.05.49.18.82.71.89.25.04.63.07.9.07.19,0,.28.05.28.15,0,.13-.14.18-.34.18-1.16,0-2.27-.05-2.75-.05-.4,0-1.52.05-2.22.05-.23,0-.35-.05-.35-.18,0-.09.07-.15.28-.15.26,0,.48-.04.63-.07.35-.07.46-.38.51-.91.09-.76.09-2.2.09-3.97v-3.2Z"/>
        <path class="cls-1" d="M459.89,49.29c.03,1.42.26,1.89.62,2.02.3.11.63.13.92.13.19,0,.3.04.3.15,0,.15-.16.18-.41.18-1.15,0-1.85-.05-2.18-.05-.16,0-.99.05-1.9.05-.23,0-.39-.02-.39-.18,0-.11.1-.15.28-.15.23,0,.55-.02.79-.09.46-.15.53-.67.55-2.26l.16-10.72c0-.36.05-.62.23-.62.19,0,.35.24.65.56.21.24,2.89,3.15,5.46,5.79,1.2,1.24,3.58,3.86,3.88,4.15h.09l-.18-8.17c-.02-1.11-.18-1.46-.6-1.64-.26-.11-.69-.11-.93-.11-.21,0-.28-.05-.28-.16,0-.15.19-.16.46-.16.92,0,1.76.05,2.13.05.19,0,.86-.05,1.73-.05.23,0,.4.02.4.16,0,.11-.11.16-.32.16-.18,0-.32,0-.53.05-.49.15-.63.53-.65,1.55l-.19,11.48c0,.4-.07.56-.23.56-.19,0-.41-.2-.6-.4-1.11-1.09-3.37-3.47-5.2-5.35-1.92-1.97-3.88-4.18-4.19-4.53h-.05l.19,7.59Z"/>
        <path class="cls-1" d="M487.16,50.55c0,.49-.02.53-.23.65-1.15.62-2.87.82-4.25.82-4.32,0-8.14-2.11-8.14-7.13,0-2.91,1.46-4.95,3.07-5.95,1.69-1.06,3.26-1.18,4.74-1.18,1.22,0,2.77.22,3.12.29.37.07.99.18,1.39.2.21.02.25.09.25.22,0,.2-.12.71-.12,2.98,0,.29-.05.38-.19.38-.12,0-.16-.09-.18-.24-.05-.42-.14-1-.6-1.51-.53-.58-1.94-1.42-3.93-1.42-.97,0-2.26.07-3.49,1.13-.99.86-1.62,2.22-1.62,4.46,0,3.91,2.41,6.84,6.13,6.84.46,0,1.08,0,1.5-.2.26-.13.34-.36.34-.67v-1.71c0-.91,0-1.6-.02-2.15-.02-.62-.18-.91-.76-1.04-.14-.04-.44-.05-.69-.05-.16,0-.26-.04-.26-.15,0-.15.12-.18.37-.18.92,0,2.03.05,2.55.05s1.48-.05,2.06-.05c.23,0,.35.04.35.18,0,.11-.11.15-.23.15-.14,0-.26.02-.48.05-.48.09-.65.4-.67,1.04-.02.55-.02,1.27-.02,2.18v2Z"/>
        <path class="cls-1" d="M339.37,61.6c-.74-1.02-.88-1.76-.9-2.58-.02-1.44,1.22-3.35,4.28-3.35.86,0,1.66.18,2.13.38.3.11.3.25.3.47,0,.6-.14,2.06-.19,2.33-.03.27-.11.31-.21.31s-.12-.07-.12-.35c0-.47-.12-1.06-.51-1.53-.35-.44-.97-.82-1.95-.82-.74,0-1.89.53-1.89,2.07,0,1.71,1.52,3.17,2.92,4.78.6.71,2.77,2.73,3.1,3.04.35-.51.84-1.69.84-2.8,0-.27-.07-.6-.33-.84-.23-.22-.6-.27-.86-.27-.11,0-.21-.04-.21-.15,0-.15.14-.18.28-.18.42,0,1.13.02,2.11.13.34.04.6.14.6.36,0,1.4-.72,3.09-1.73,4.31,1.18,1,1.97,1.49,2.45,1.78.56.35,1.53.64,1.89.64.16,0,.25.02.25.16,0,.11-.14.16-.53.16h-1.36c-2.01,0-2.64-.2-4.16-1.4-.58.55-1.76,1.65-4.18,1.65-3.77,0-4.9-2.44-4.9-4.02,0-2.13,1.82-3.78,2.87-4.31ZM344.89,67.7c-1.02-.91-2.71-2.62-3.17-3.13-.46-.51-1.59-1.82-1.89-2.27-.6.45-1.22,1.31-1.22,2.77,0,2.27,1.55,3.73,3.38,3.73,1.36,0,2.52-.73,2.89-1.09Z"/>
        <path class="cls-1" d="M227.69,87.38c-.28-.13-.34-.22-.34-.62,0-1,.07-2.09.09-2.38.02-.27.07-.47.21-.47.16,0,.18.16.18.31,0,.24.07.62.16.93.39,1.35,1.43,1.84,2.52,1.84,1.59,0,2.36-1.11,2.36-2.07,0-.89-.26-1.73-1.73-2.91l-.81-.65c-1.94-1.57-2.61-2.84-2.61-4.31,0-2,1.62-3.44,4.07-3.44,1.15,0,1.89.18,2.34.31.16.04.25.09.25.22,0,.24-.07.76-.07,2.18,0,.4-.05.55-.19.55-.12,0-.18-.11-.18-.33,0-.16-.09-.73-.46-1.2-.26-.34-.77-.89-1.92-.89-1.3,0-2.1.78-2.1,1.87,0,.84.41,1.47,1.87,2.62l.49.38c2.13,1.66,2.89,2.91,2.89,4.64,0,1.05-.39,2.31-1.66,3.17-.88.58-1.87.75-2.8.75-1.02,0-1.81-.13-2.57-.47Z"/>
        <path class="cls-1" d="M240.23,85.87c-1.73-1.56-2.19-3.6-2.19-5.37,0-1.24.37-3.38,2.06-4.99,1.27-1.2,2.94-1.93,5.57-1.93,1.09,0,1.74.07,2.55.18.67.09,1.23.25,1.76.31.19.02.26.11.26.22,0,.15-.05.36-.09,1-.03.6-.02,1.6-.05,1.96-.02.27-.05.42-.21.42-.14,0-.18-.15-.18-.4-.02-.56-.25-1.2-.69-1.67-.58-.64-1.96-1.13-3.58-1.13-1.53,0-2.54.4-3.31,1.13-1.29,1.22-1.62,2.95-1.62,4.71,0,4.33,3.19,6.48,5.55,6.48,1.57,0,2.52-.18,3.22-1.02.3-.35.53-.87.6-1.2.05-.29.09-.36.23-.36.12,0,.16.13.16.27,0,.22-.21,1.8-.39,2.42-.09.31-.16.4-.46.53-.7.29-2.04.42-3.17.42-2.41,0-4.44-.55-6.04-1.98Z"/>
        <path class="cls-1" d="M264.15,79.63c.05,0,.11-.04.11-.13v-.38c0-2.77,0-3.27-.03-3.86-.04-.62-.18-.91-.76-1.04-.14-.04-.44-.05-.69-.05-.19,0-.3-.04-.3-.16s.12-.16.37-.16c.95,0,2.06.05,2.54.05.42,0,1.53-.05,2.22-.05.25,0,.37.04.37.16s-.11.16-.32.16c-.14,0-.3.02-.51.05-.48.09-.62.4-.65,1.04-.03.58-.03,1.09-.03,3.86v3.2c0,1.67,0,3.11.09,3.89.05.51.16.91.69.98.25.04.63.07.9.07.19,0,.28.05.28.15,0,.13-.14.18-.35.18-1.15,0-2.26-.05-2.75-.05-.4,0-1.52.05-2.2.05-.25,0-.37-.05-.37-.18,0-.09.07-.15.28-.15.26,0,.48-.04.63-.07.35-.07.44-.47.51-1,.09-.76.09-2.2.09-3.88v-1.6c0-.07-.05-.11-.11-.11h-6.73c-.05,0-.1.02-.1.11v1.6c0,1.67,0,3.11.09,3.89.05.51.16.91.69.98.25.04.63.07.9.07.19,0,.28.05.28.15,0,.13-.14.18-.35.18-1.15,0-2.26-.05-2.75-.05-.4,0-1.52.05-2.22.05-.23,0-.35-.05-.35-.18,0-.09.07-.15.28-.15.26,0,.48-.04.63-.07.35-.07.44-.47.51-1,.09-.76.09-2.2.09-3.88v-3.2c0-2.77,0-3.27-.03-3.86-.03-.62-.18-.91-.76-1.04-.14-.04-.44-.05-.69-.05-.19,0-.3-.04-.3-.16s.12-.16.37-.16c.95,0,2.06.05,2.54.05.42,0,1.53-.05,2.22-.05.25,0,.37.04.37.16s-.11.16-.32.16c-.14,0-.3.02-.51.05-.48.09-.62.4-.65,1.04-.03.58-.03,1.09-.03,3.86v.38c0,.09.05.13.1.13h6.73Z"/>
        <path class="cls-1" d="M271.19,80.72c0-3.11,1.99-7.13,7.28-7.13,4.39,0,7.12,2.64,7.12,6.8s-2.82,7.46-7.29,7.46c-5.06,0-7.1-3.91-7.1-7.13ZM283.12,81.06c0-4.08-2.27-6.6-5.16-6.6-2.03,0-4.33,1.16-4.33,5.69,0,3.78,2.03,6.79,5.41,6.79,1.23,0,4.09-.62,4.09-5.88Z"/>
        <path class="cls-1" d="M288.58,80.72c0-3.11,1.99-7.13,7.28-7.13,4.39,0,7.12,2.64,7.12,6.8s-2.82,7.46-7.29,7.46c-5.06,0-7.1-3.91-7.1-7.13ZM300.51,81.06c0-4.08-2.27-6.6-5.16-6.6-2.03,0-4.33,1.16-4.33,5.69,0,3.78,2.03,6.79,5.41,6.79,1.23,0,4.09-.62,4.09-5.88Z"/>
        <path class="cls-1" d="M309.91,82.32c0,2.33,0,3.58.37,3.91.3.27.76.4,2.13.4.93,0,1.62-.02,2.06-.51.21-.24.42-.75.46-1.09.02-.16.05-.27.19-.27.12,0,.14.09.14.31,0,.2-.12,1.56-.26,2.09-.11.4-.19.49-1.11.49-1.27,0-2.18-.04-2.98-.05-.79-.04-1.43-.05-2.15-.05-.19,0-.58,0-1.01.02-.4,0-.86.04-1.21.04-.23,0-.35-.05-.35-.18,0-.09.07-.15.28-.15.26,0,.48-.04.63-.07.35-.07.44-.47.51-1,.09-.76.09-2.2.09-3.88v-3.2c0-2.77,0-3.27-.03-3.86-.04-.62-.18-.91-.76-1.04-.14-.04-.35-.05-.58-.05-.19,0-.3-.04-.3-.16s.12-.16.39-.16c.83,0,1.94.05,2.41.05.42,0,1.71-.05,2.4-.05.25,0,.37.04.37.16s-.11.16-.32.16c-.19,0-.48.02-.69.05-.48.09-.62.4-.65,1.04-.03.58-.03,1.09-.03,3.86v3.2Z"/>
        <path class="cls-1" d="M323.84,80.72c0-3.11,1.99-7.13,7.28-7.13,4.39,0,7.12,2.64,7.12,6.8s-2.82,7.46-7.29,7.46c-5.06,0-7.1-3.91-7.1-7.13ZM335.77,81.06c0-4.08-2.27-6.6-5.16-6.6-2.03,0-4.33,1.16-4.33,5.69,0,3.78,2.03,6.79,5.41,6.79,1.23,0,4.09-.62,4.09-5.88Z"/>
        <path class="cls-1" d="M345.18,82.32c0,1.75,0,3.11.09,3.88.05.53.16.93.69,1,.25.04.63.07.88.07.23,0,.3.05.3.15,0,.13-.12.18-.39.18-1.11,0-2.22-.05-2.68-.05s-1.57.05-2.24.05c-.25,0-.37-.04-.37-.18,0-.09.07-.15.26-.15.26,0,.48-.04.63-.07.35-.07.44-.47.51-1,.09-.76.09-2.13.09-3.88v-3.2c0-2.77,0-3.27-.03-3.86-.04-.62-.18-.91-.76-1.04-.14-.04-.44-.05-.69-.05-.18,0-.3-.04-.3-.15,0-.15.14-.18.4-.18.46,0,.97.02,1.43.02.46.02.86.04,1.11.04.67,0,4.25,0,4.65-.02.34-.02.55-.02.72-.07.11-.04.19-.11.28-.11.07,0,.12.07.12.16,0,.13-.09.35-.14.82-.02.18-.05,1.25-.09,1.47-.02.15-.05.26-.18.26s-.16-.09-.18-.29c0-.15,0-.44-.11-.69-.12-.25-.49-.53-1.16-.55l-2.71-.05c-.11,0-.16.05-.16.25v4.55c0,.11.02.16.12.16l2.26-.02c.3,0,.55,0,.79-.02.34-.02.58-.09.76-.33.09-.11.12-.18.23-.18.07,0,.11.05.11.16s-.09.56-.14,1.13c-.04.36-.07,1.2-.07,1.33,0,.16,0,.35-.18.35-.11,0-.14-.13-.14-.25s-.04-.35-.11-.56c-.09-.25-.35-.58-.9-.66-.44-.05-2.31-.05-2.61-.05-.09,0-.12.04-.12.16v1.47Z"/>
        <path class="cls-1" d="M361.32,79.12c0-2.77,0-3.27-.03-3.86-.03-.62-.18-.91-.76-1.04-.14-.04-.44-.05-.69-.05-.19,0-.3-.04-.3-.16s.12-.16.39-.16c.93,0,2.04.05,2.4.05.86,0,1.55-.05,2.15-.05,3.19,0,3.75,1.76,3.75,2.73,0,1.49-.83,2.38-1.8,3.18,1.44.51,3.21,1.8,3.21,3.93,0,1.95-1.46,3.97-4.7,3.97-.21,0-.72-.04-1.23-.05-.53-.04-1.06-.05-1.32-.05-.19,0-.58,0-1,.02-.4,0-.86.04-1.21.04-.23,0-.35-.05-.35-.18,0-.09.07-.15.28-.15.26,0,.48-.04.63-.07.35-.07.44-.47.51-1,.09-.76.09-2.2.09-3.88v-3.2ZM363.43,79.43c0,.15.05.18.12.2.16.04.42.05.83.05.58,0,.97-.07,1.27-.35.46-.38.72-1.04.72-1.93,0-1.22-.69-2.82-2.2-2.82-.25,0-.4,0-.58.04-.12.04-.16.11-.16.31v4.49ZM365.76,80.88c-.37-.27-.78-.4-1.46-.44-.32-.02-.49-.02-.76-.02-.07,0-.11.04-.11.13v4.31c0,1.2.05,1.51.62,1.75.48.2.88.22,1.29.22.79,0,2.13-.44,2.13-2.33,0-1.13-.37-2.66-1.71-3.62Z"/>
        <path class="cls-1" d="M374.07,79.12c0-2.77,0-3.27-.03-3.86-.04-.62-.18-.91-.76-1.04-.14-.04-.44-.05-.69-.05-.19,0-.3-.04-.3-.16s.12-.16.39-.16c.93,0,2.04.05,2.57.05.42,0,1.53-.05,2.17-.05.26,0,.39.04.39.16s-.11.16-.28.16c-.19,0-.3.02-.51.05-.47.09-.62.4-.65,1.04-.03.58-.03,1.09-.03,3.86v2.55c0,2.64.51,3.75,1.37,4.48.79.67,1.6.75,2.2.75.77,0,1.73-.26,2.43-.98.97-1,1.02-2.64,1.02-4.51v-2.27c0-2.77,0-3.27-.03-3.86-.03-.62-.18-.91-.76-1.04-.14-.04-.44-.05-.63-.05s-.3-.04-.3-.16.12-.16.37-.16c.9,0,2.01.05,2.03.05.21,0,1.32-.05,2.01-.05.25,0,.37.04.37.16s-.1.16-.32.16c-.19,0-.3.02-.51.05-.48.09-.62.4-.65,1.04-.04.58-.04,1.09-.04,3.86v1.95c0,2.02-.19,4.17-1.67,5.48-1.25,1.11-2.52,1.31-3.66,1.31-.93,0-2.63-.05-3.91-1.25-.9-.84-1.57-2.18-1.57-4.82v-2.66Z"/>
        <path class="cls-1" d="M389.92,87.38c-.28-.13-.33-.22-.33-.62,0-1,.07-2.09.09-2.38.02-.27.07-.47.21-.47.16,0,.18.16.18.31,0,.24.07.62.16.93.39,1.35,1.43,1.84,2.52,1.84,1.58,0,2.36-1.11,2.36-2.07,0-.89-.26-1.73-1.73-2.91l-.81-.65c-1.94-1.57-2.61-2.84-2.61-4.31,0-2,1.62-3.44,4.07-3.44,1.15,0,1.89.18,2.34.31.16.04.25.09.25.22,0,.24-.07.76-.07,2.18,0,.4-.05.55-.19.55-.12,0-.18-.11-.18-.33,0-.16-.09-.73-.46-1.2-.27-.34-.78-.89-1.92-.89-1.3,0-2.1.78-2.1,1.87,0,.84.4,1.47,1.87,2.62l.49.38c2.13,1.66,2.89,2.91,2.89,4.64,0,1.05-.39,2.31-1.66,3.17-.88.58-1.87.75-2.8.75-1.02,0-1.82-.13-2.57-.47Z"/>
        <path class="cls-1" d="M402.19,79.12c0-2.77,0-3.27-.03-3.86-.04-.62-.21-.93-.6-1.02-.19-.05-.42-.07-.63-.07-.18,0-.28-.04-.28-.18,0-.11.14-.15.42-.15.67,0,1.78.05,2.29.05.44,0,1.48-.05,2.15-.05.23,0,.37.04.37.15,0,.15-.1.18-.28.18s-.32.02-.53.05c-.48.09-.62.4-.65,1.04-.04.58-.04,1.09-.04,3.86v3.2c0,1.76,0,3.2.07,3.98.05.49.18.82.71.89.25.04.63.07.9.07.19,0,.28.05.28.15,0,.13-.14.18-.34.18-1.16,0-2.27-.05-2.75-.05-.41,0-1.52.05-2.22.05-.23,0-.35-.05-.35-.18,0-.09.07-.15.28-.15.26,0,.48-.04.63-.07.35-.07.46-.38.51-.91.09-.76.09-2.2.09-3.97v-3.2Z"/>
        <path class="cls-1" d="M412.2,85.12c.03,1.42.26,1.89.62,2.02.3.11.63.13.92.13.19,0,.3.04.3.15,0,.15-.16.18-.41.18-1.15,0-1.85-.05-2.18-.05-.16,0-.99.05-1.9.05-.23,0-.39-.02-.39-.18,0-.11.1-.15.28-.15.23,0,.55-.02.79-.09.46-.15.53-.67.55-2.26l.16-10.72c0-.36.05-.62.23-.62.19,0,.35.24.65.56.21.24,2.89,3.15,5.46,5.79,1.2,1.24,3.58,3.86,3.88,4.15h.09l-.18-8.17c-.02-1.11-.18-1.46-.6-1.64-.26-.11-.69-.11-.93-.11-.21,0-.28-.05-.28-.16,0-.15.19-.16.46-.16.92,0,1.76.05,2.13.05.19,0,.86-.05,1.73-.05.23,0,.4.02.4.16,0,.11-.11.16-.32.16-.18,0-.32,0-.53.05-.49.15-.63.53-.65,1.55l-.19,11.48c0,.4-.07.56-.23.56-.19,0-.41-.2-.6-.4-1.11-1.09-3.37-3.47-5.2-5.35-1.92-1.96-3.88-4.18-4.19-4.53h-.05l.19,7.59Z"/>
        <path class="cls-1" d="M428.95,79.12c0-2.77,0-3.27-.03-3.86-.03-.62-.18-.91-.76-1.04-.14-.04-.44-.05-.69-.05-.19,0-.3-.04-.3-.16s.12-.16.39-.16c.48,0,.99.02,1.43.02.46.02.86.04,1.11.04.56,0,4.07,0,4.4-.02.34-.04.62-.07.76-.11.09-.02.19-.07.28-.07s.11.07.11.16c0,.13-.09.35-.14,1.18-.02.18-.05.98-.09,1.2-.02.09-.05.2-.18.2s-.16-.09-.16-.25c0-.13-.02-.44-.11-.66-.12-.33-.3-.55-1.18-.65-.3-.04-2.15-.07-2.5-.07-.09,0-.12.05-.12.18v4.6c0,.13.02.2.12.2.39,0,2.41,0,2.82-.04.42-.04.69-.09.85-.27.12-.15.19-.24.28-.24.07,0,.12.04.12.15s-.07.4-.14,1.33c-.02.36-.07,1.09-.07,1.22,0,.15,0,.35-.16.35-.12,0-.16-.07-.16-.16-.02-.18-.02-.42-.07-.65-.09-.36-.33-.64-.99-.71-.34-.04-2.08-.05-2.5-.05-.09,0-.11.07-.11.18v1.44c0,.62-.02,2.29,0,2.82.03,1.26.32,1.53,2.11,1.53.46,0,1.2,0,1.66-.22s.67-.6.79-1.35c.03-.2.07-.27.19-.27.14,0,.14.14.14.33,0,.42-.14,1.66-.23,2.02-.12.47-.28.47-.95.47-1.32,0-2.29-.04-3.05-.05-.76-.04-1.3-.05-1.83-.05-.19,0-.58,0-1,.02-.4,0-.86.04-1.21.04-.23,0-.35-.05-.35-.18,0-.09.07-.15.28-.15.26,0,.48-.04.63-.07.35-.07.44-.47.51-1,.09-.76.09-2.2.09-3.88v-3.2Z"/>
        <path class="cls-1" d="M440.16,87.38c-.28-.13-.33-.22-.33-.62,0-1,.07-2.09.09-2.38.02-.27.07-.47.21-.47.16,0,.18.16.18.31,0,.24.07.62.16.93.39,1.35,1.43,1.84,2.52,1.84,1.58,0,2.36-1.11,2.36-2.07,0-.89-.26-1.73-1.73-2.91l-.81-.65c-1.94-1.57-2.61-2.84-2.61-4.31,0-2,1.62-3.44,4.07-3.44,1.15,0,1.89.18,2.34.31.16.04.25.09.25.22,0,.24-.07.76-.07,2.18,0,.4-.05.55-.19.55-.12,0-.18-.11-.18-.33,0-.16-.09-.73-.46-1.2-.27-.34-.78-.89-1.92-.89-1.3,0-2.1.78-2.1,1.87,0,.84.4,1.47,1.87,2.62l.49.38c2.13,1.66,2.89,2.91,2.89,4.64,0,1.05-.39,2.31-1.66,3.17-.88.58-1.87.75-2.8.75-1.02,0-1.82-.13-2.57-.47Z"/>
        <path class="cls-1" d="M451.47,87.38c-.28-.13-.33-.22-.33-.62,0-1,.07-2.09.09-2.38.02-.27.07-.47.21-.47.16,0,.18.16.18.31,0,.24.07.62.16.93.39,1.35,1.43,1.84,2.52,1.84,1.58,0,2.36-1.11,2.36-2.07,0-.89-.26-1.73-1.73-2.91l-.81-.65c-1.94-1.57-2.61-2.84-2.61-4.31,0-2,1.62-3.44,4.07-3.44,1.15,0,1.89.18,2.34.31.16.04.25.09.25.22,0,.24-.07.76-.07,2.18,0,.4-.05.55-.19.55-.12,0-.18-.11-.18-.33,0-.16-.09-.73-.46-1.2-.27-.34-.78-.89-1.92-.89-1.3,0-2.1.78-2.1,1.87,0,.84.4,1.47,1.87,2.62l.49.38c2.13,1.66,2.89,2.91,2.89,4.64,0,1.05-.39,2.31-1.66,3.17-.88.58-1.87.75-2.8.75-1.02,0-1.82-.13-2.57-.47Z"/>
      </g>
      <g>
        <rect class="cls-1" x="354.22" y="63.54" width="135.13" height=".53"/>
        <rect class="cls-1" x="197.29" y="63.54" width="135.13" height=".53"/>
      </g>
    </g>
  </g>
</svg>