<svg width="421" height="325" viewBox="0 0 421 325" fill="none" xmlns="http://www.w3.org/2000/svg">
<path d="M216.643 183.57C223.286 189.696 228.947 196.935 236.273 202.226C243.598 207.518 253.368 210.668 261.73 207.244C269.01 204.264 273.693 196.904 275.649 189.274C281.032 168.405 266.229 144.578 245.146 140.13C236.954 138.402 228.099 139.201 220.581 135.543C211.022 130.898 205.545 119.965 195.739 115.872C186.135 111.86 174.979 115.549 166.2 121.146C159.022 125.719 152.514 131.76 148.997 139.506C146.583 144.82 145.771 151.332 148.772 156.336C152.863 163.158 162.077 164.59 170.022 164.303C189.042 163.607 202.468 170.501 216.643 183.57Z" stroke="#F5F5F5" stroke-width="0.766346" stroke-miterlimit="10"/>
<path d="M160.584 119.036C153.133 123.762 146.467 130.131 142.919 138.196C140.488 143.725 139.725 150.426 142.735 155.677C146.952 163.046 156.336 165.214 164.662 165.51C169.877 165.672 175.066 166.334 180.156 167.485C182.578 168.041 184.937 168.707 187.234 169.482C197.152 172.798 205.563 178.875 214.328 187.097C217.302 189.884 220.2 192.855 223.139 195.678C227.176 199.583 231.895 203.523 236.336 205.552C237.04 205.875 237.717 206.171 238.404 206.45C239.395 206.845 240.404 207.195 241.494 207.549C244.695 208.611 247.946 209.51 251.238 210.242C256.97 211.44 263.053 211.261 268.145 208.492C275.43 204.538 279.691 196.639 281.037 188.547C281.934 183.046 281.657 177.417 280.225 172.031C278.758 166.457 276.125 161.188 272.81 156.238C266.494 146.813 257.468 139.008 246.608 136.118C238.211 133.874 229.001 134.161 221.039 130.315C210.888 125.423 204.648 114.53 194.187 111.465C190.123 110.267 185.911 110.545 181.586 111.259C174.36 112.457 166.9 115.051 160.584 119.036Z" stroke="#F5F5F5" stroke-width="0.766346" stroke-miterlimit="10"/>
<path d="M154.963 116.932C147.225 121.797 140.411 128.502 136.84 136.885C134.391 142.635 133.669 149.524 136.688 155.022C141.035 162.938 150.594 165.842 159.301 166.722C164.801 167.265 170.255 168.203 175.62 169.527C178.201 170.167 180.721 170.893 183.179 171.704C193.972 175.2 202.755 181.828 212.041 190.621C215.454 193.865 218.886 197.312 222.358 200.494C227.077 204.798 233.124 209.205 238.251 210.296C239.059 210.467 239.808 210.597 240.561 210.695C241.642 210.83 242.728 210.915 243.948 211.046C247.2 211.382 251.251 212.199 255.252 212.841C261.891 213.869 269.006 213.442 274.582 209.753C281.889 204.919 285.711 196.401 286.451 187.833C286.927 182.012 286.2 176.155 284.316 170.626C282.378 164.882 279.207 159.586 275.555 154.371C268.598 144.43 259.406 135.732 248.053 132.124C239.426 129.372 229.858 129.135 221.416 125.095C210.672 119.957 203.594 109.158 192.554 107.049C188.01 106.183 183.452 107.139 178.648 108.202C170.659 110.002 162.113 112.43 154.963 116.932Z" stroke="#F5F5F5" stroke-width="0.766346" stroke-miterlimit="10"/>
<path d="M149.338 114.822C141.322 119.844 134.36 126.891 130.758 135.579C128.291 141.544 127.618 148.626 130.641 154.366C135.127 162.835 144.835 166.484 153.941 167.938C159.715 168.859 165.439 170.073 171.09 171.573C173.817 172.297 176.494 173.08 179.12 173.921C190.783 177.596 199.947 184.786 209.704 194.157C213.562 197.864 217.518 201.787 221.537 205.31C226.92 210.022 234.326 214.901 240.127 215.026C240.976 215.045 241.825 215.012 242.67 214.928C243.845 214.811 245.007 214.631 246.357 214.537C249.946 214.272 254.643 214.883 259.227 215.408C266.768 216.27 274.927 215.628 280.974 210.978C288.331 205.337 291.695 196.141 291.821 187.084C291.883 180.948 290.714 174.862 288.385 169.186C285.967 163.275 282.262 157.966 278.274 152.463C270.675 142.011 261.313 132.424 249.471 128.093C240.66 124.871 230.733 124.095 221.829 119.867C210.493 114.481 202.54 103.84 190.958 102.633C185.92 102.108 181.04 103.732 175.778 105.146C166.954 107.552 157.337 109.836 149.338 114.822Z" stroke="#F5F5F5" stroke-width="0.766346" stroke-miterlimit="10"/>
<path d="M143.717 112.717C135.418 117.888 128.304 125.252 124.679 134.26C122.19 140.444 121.539 147.724 124.598 153.707C129.187 162.727 139.083 167.072 148.58 169.141C154.721 170.487 160.732 171.959 166.559 173.606C169.439 174.42 172.28 175.261 175.082 176.129C187.642 179.984 197.147 187.739 207.406 197.671C211.708 201.841 216.185 206.248 220.756 210.108C226.826 215.228 235.559 220.583 242.041 219.739C242.981 219.614 243.91 219.414 244.818 219.142C246.088 218.769 247.326 218.325 248.802 218.006C252.754 217.145 258.074 217.558 263.237 217.975C271.684 218.675 280.884 217.845 287.406 212.208C294.83 205.795 297.724 195.881 297.226 186.339C296.878 179.891 295.268 173.573 292.489 167.745C289.6 161.668 285.356 156.314 281.028 150.556C272.792 139.596 263.259 129.13 250.928 124.077C241.911 120.374 231.639 119.054 222.263 114.652C210.336 109.024 201.485 98.5891 189.378 98.23C183.838 98.0685 178.639 100.326 172.906 102.099C163.239 105.079 152.559 107.211 143.717 112.717Z" stroke="#F5F5F5" stroke-width="0.766346" stroke-miterlimit="10"/>
<path d="M138.096 110.612C129.515 115.935 122.252 123.628 118.596 132.963C116.093 139.363 115.492 146.835 118.551 153.06C123.262 162.638 133.328 167.7 143.223 170.362C149.58 172.076 155.887 173.835 162.032 175.657C165.065 176.555 168.055 177.453 171.004 178.35C184.43 182.389 194.33 190.71 205.096 201.217C209.842 205.844 214.844 210.736 219.962 214.932C226.691 220.466 236.775 226.3 243.939 224.483C244.977 224.213 245.988 223.846 246.958 223.388C248.347 222.68 249.775 222.053 251.237 221.512C255.535 220.048 261.496 220.241 267.238 220.574C276.586 221.112 286.85 220.125 293.821 213.469C301.335 206.288 303.73 195.647 302.622 185.643C301.859 178.884 299.809 172.333 296.584 166.345C293.215 160.106 288.438 154.721 283.773 148.698C274.895 137.226 265.192 125.89 252.372 120.078C243.149 115.899 232.5 114.032 222.68 109.423C210.138 103.553 200.377 93.3605 187.763 93.8138C181.716 94.0292 176.203 96.915 170.004 99.0378C159.556 102.624 147.781 104.599 138.096 110.612Z" stroke="#F5F5F5" stroke-width="0.766346" stroke-miterlimit="10"/>
<path d="M132.472 108.49C123.617 113.97 116.197 121.985 112.514 131.643C109.993 138.259 109.433 145.924 112.514 152.392C117.337 162.526 127.582 168.297 137.864 171.564C144.435 173.651 151.034 175.693 157.503 177.691C160.688 178.669 163.841 179.634 166.954 180.563C181.255 184.777 191.501 193.663 202.769 204.735C207.95 209.829 213.477 215.202 219.147 219.739C226.566 225.681 237.987 231.996 245.819 229.204C246.955 228.787 248.045 228.253 249.071 227.611C250.537 226.634 252.067 225.758 253.651 224.99C258.294 222.93 264.893 222.916 271.213 223.15C281.468 223.522 292.813 222.373 300.219 214.703C307.844 206.813 309.729 195.405 307.997 184.889C306.823 177.825 304.332 171.044 300.654 164.9C296.823 158.504 291.494 153.092 286.505 146.8C276.987 134.821 267.109 122.618 253.808 116.061C244.388 111.407 233.367 108.988 223.09 104.19C209.973 98.073 199.315 88.1769 186.18 89.4022C179.627 90.0125 173.809 93.5267 167.134 95.9861C155.838 100.191 143.005 101.991 132.472 108.49Z" stroke="#F5F5F5" stroke-width="0.766346" stroke-miterlimit="10"/>
<path d="M126.851 106.398C117.713 112.035 110.141 120.374 106.436 130.346C103.893 137.182 103.368 145.045 106.463 151.75C111.397 162.44 121.827 168.921 132.481 172.79C139.268 175.249 146.162 177.574 152.949 179.746C156.287 180.81 159.602 181.833 162.872 182.793C178.052 187.187 188.661 196.648 200.432 208.281C206.057 213.837 212.095 219.685 218.326 224.568C226.4 230.918 239.167 237.718 247.69 233.948C248.928 233.381 250.1 232.68 251.184 231.856C252.723 230.721 254.19 229.482 256.056 228.495C261.048 225.834 268.284 225.614 275.188 225.748C286.344 225.959 298.788 224.671 306.611 215.964C314.349 207.356 315.717 195.167 313.34 184.176C311.755 176.808 308.826 169.796 304.7 163.49C300.411 156.915 294.58 151.471 289.233 144.91C279.072 132.42 269.02 119.36 255.235 112.049C245.586 106.932 234.228 103.97 223.489 98.966C209.785 92.602 198.211 83.02 184.57 84.9903C177.509 86.0091 171.382 90.1246 164.231 92.9341C152.133 97.7183 138.227 99.3834 126.851 106.398Z" stroke="#F5F5F5" stroke-width="0.766346" stroke-miterlimit="10"/>
<path d="M121.23 104.293C111.81 110.083 104.09 118.745 100.353 129.04C97.796 136.091 97.3026 144.151 100.42 151.094C105.467 162.346 116.076 169.531 127.133 173.983C134.14 176.815 141.326 179.423 148.436 181.77C151.926 182.919 155.392 183.993 158.834 184.993C174.889 189.588 185.857 199.597 198.135 211.808C204.199 217.831 210.776 224.16 217.545 229.384C226.31 236.147 240.422 243.427 249.605 238.678C250.943 237.962 252.194 237.093 253.332 236.089C254.965 234.697 256.508 233.194 258.505 231.982C263.843 228.724 271.702 228.32 279.202 228.32C291.255 228.378 304.812 226.973 313.043 217.199C320.907 207.881 321.75 194.916 318.771 183.44C316.774 175.77 313.407 168.524 308.831 162.054C304.036 155.322 297.652 149.847 291.973 143.012C281.171 130.032 270.939 116.119 256.674 108.041C246.806 102.462 235.098 98.9212 223.906 93.7465C209.605 87.1356 197.139 77.8858 182.973 80.5831C175.409 82.0103 168.977 86.7227 161.351 89.8778C148.427 95.2859 133.449 96.7759 121.23 104.293Z" stroke="#F5F5F5" stroke-width="0.766346" stroke-miterlimit="10"/>
<path d="M115.596 102.206C105.902 108.153 98.0252 117.143 94.2661 127.757C91.6867 135.023 91.2292 143.281 94.3648 150.462C99.5235 162.274 110.321 170.164 121.764 175.236C128.991 178.44 136.469 181.33 143.893 183.857C147.538 185.093 151.163 186.225 154.766 187.254C171.7 192.007 183.027 202.604 195.811 215.363C202.316 221.853 209.421 228.657 216.738 234.213C226.158 241.394 241.616 249.153 251.494 243.422C252.932 242.554 254.262 241.517 255.455 240.334C257.182 238.692 258.801 236.919 260.927 235.487C266.611 231.628 275.125 230.999 283.186 230.927C296.145 230.824 310.823 229.271 319.449 218.469C327.461 208.429 327.775 194.66 324.186 182.722C321.781 174.75 317.972 167.273 312.94 160.64C307.674 153.733 300.752 148.236 294.732 141.136C283.294 127.627 272.878 112.861 258.137 104.024C248.062 97.9876 235.995 93.8811 224.346 88.5179C209.453 81.6602 196.085 72.7604 181.398 76.1668C173.324 78.0383 166.573 83.3208 158.485 86.8259C144.722 92.8309 128.677 94.1683 115.596 102.206Z" stroke="#F5F5F5" stroke-width="0.766346" stroke-miterlimit="10"/>
<path d="M109.984 100.079C100.012 106.183 91.9827 115.491 88.1922 126.424C85.5949 133.91 85.1732 142.365 88.3312 149.784C93.5976 162.153 104.579 170.748 116.412 176.429C123.884 180.001 131.549 183.155 139.371 185.877C143.166 187.196 146.961 188.395 150.72 189.467C168.528 194.404 180.214 205.57 193.51 218.891C200.45 225.843 208.071 233.145 215.939 239.033C226.032 246.636 242.854 254.867 253.387 248.157C254.927 247.135 256.339 245.929 257.59 244.567C259.406 242.668 261.102 240.635 263.354 238.975C269.387 234.522 278.538 233.679 287.183 233.513C301.044 233.248 316.852 231.574 325.864 219.712C334.014 208.981 333.781 194.449 329.547 182.013C326.739 173.732 322.495 166.011 317.009 159.204C311.262 152.131 303.807 146.602 297.451 139.233C285.37 125.212 274.77 109.612 259.554 99.9984C249.273 93.5176 236.847 88.8501 224.736 83.2939C209.251 76.1759 194.995 67.6487 179.779 71.7597C171.224 74.0665 164.137 79.9189 155.556 83.7741C141.017 90.3805 123.899 91.5653 109.984 100.079Z" stroke="#F5F5F5" stroke-width="0.766346" stroke-miterlimit="10"/>
<path d="M104.381 97.9742C94.1307 104.23 85.9441 113.866 82.1267 125.118C79.5159 132.819 79.1212 141.477 82.3016 149.129C87.6846 162.063 98.8498 171.353 111.069 177.641C118.759 181.588 126.701 185.022 134.844 187.919C138.791 189.323 142.743 190.58 146.664 191.666C165.352 196.783 177.396 208.523 191.199 222.4C198.578 229.823 206.724 237.601 215.153 243.831C225.919 251.846 244.073 260.557 255.297 252.869C256.936 251.695 258.425 250.325 259.733 248.79C261.644 246.631 263.416 244.333 265.798 242.453C272.177 237.399 281.947 236.367 291.188 236.084C305.96 235.689 322.907 233.867 332.287 220.946C340.594 209.511 339.809 194.188 334.947 181.263C331.728 172.695 327.042 164.754 321.099 157.795C314.882 150.556 306.888 144.995 300.195 137.357C287.469 122.829 276.69 106.389 260.998 96.0039C250.488 89.052 237.726 83.8145 225.157 78.0518C209.075 70.7004 193.958 62.5277 178.186 67.3299C169.142 70.0811 161.723 76.499 152.693 80.7043C137.311 87.9255 119.126 88.9577 104.381 97.9742Z" stroke="#F5F5F5" stroke-width="0.766346" stroke-miterlimit="10"/>
<path d="M98.7379 95.8693C88.2097 102.283 79.8975 112.242 76.0308 123.807C73.3976 131.729 73.0343 140.584 76.2416 148.491C81.7188 161.987 93.0858 171.973 105.691 178.871C113.607 183.188 121.836 186.902 130.309 189.983C134.409 191.469 138.523 192.788 142.605 193.906C162.167 199.197 174.571 211.512 188.88 225.95C196.699 233.836 205.37 242.107 214.351 248.664C225.789 257.088 245.303 266.284 257.186 257.64C258.932 256.297 260.502 254.739 261.86 253.004C263.865 250.594 265.713 248.027 268.225 245.922C274.954 240.272 285.379 239.033 295.18 238.651C310.854 238.095 328.95 236.156 338.693 222.176C347.157 210.031 345.821 193.901 340.33 180.518C336.706 171.651 331.581 163.475 325.181 156.35C318.484 148.949 309.957 143.362 302.927 135.449C289.56 120.414 278.587 103.135 262.43 91.9737C251.695 84.5685 238.587 78.761 225.561 72.8233C208.9 65.252 192.908 57.4518 176.603 62.9362C167.07 66.1361 159.323 73.115 149.822 77.6659C133.606 85.4751 114.349 86.3547 98.7379 95.8693Z" stroke="#F5F5F5" stroke-width="0.766346" stroke-miterlimit="10"/>
<path d="M93.1174 93.7599C82.311 100.335 73.8284 110.612 69.9482 122.483C67.3015 130.62 66.9651 139.672 70.1949 147.8C75.7797 161.897 87.3352 172.561 100.344 180.069C108.478 184.754 116.99 188.747 125.792 192.007C130.045 193.578 134.315 194.956 138.559 196.105C159 201.576 171.754 214.465 186.557 229.46C194.815 237.817 204.016 246.55 213.543 253.457C225.655 262.299 246.505 271.979 259.074 262.33C260.925 260.852 262.583 259.146 264.009 257.254C266.104 254.588 268.046 251.756 270.666 249.432C277.74 243.18 288.806 241.735 299.191 241.254C315.788 240.536 335.019 238.485 345.126 223.437C353.752 210.592 351.854 193.695 345.74 179.809C341.71 170.645 336.145 162.236 329.286 154.945C322.109 147.374 313.052 141.759 305.686 133.582C291.677 118.036 280.512 99.8996 263.892 87.9794C252.933 80.1208 239.48 73.7433 225.996 67.6172C208.73 59.7811 191.904 52.3579 175.001 58.5245C164.989 62.1822 156.906 69.7131 146.929 74.614C129.901 83.0201 109.576 83.7472 93.1174 93.7599Z" stroke="#F5F5F5" stroke-width="0.766346" stroke-miterlimit="10"/>
<path d="M87.4966 91.6551C76.4256 98.3871 67.759 108.988 63.8698 121.195C61.2007 129.548 60.8957 138.802 64.1524 147.168C69.8359 161.781 81.5932 173.162 94.9654 181.277C103.317 186.329 112.115 190.603 121.248 194.045C125.653 195.706 130.085 197.137 134.49 198.318C155.806 203.968 168.923 217.432 184.255 232.988C192.944 241.807 202.674 251.02 212.754 258.269C225.543 267.518 247.743 277.684 260.976 267.056C262.921 265.423 264.651 263.55 266.126 261.482C268.315 258.56 270.316 255.468 273.083 252.919C280.507 246.066 292.211 244.392 303.17 243.835C320.664 242.938 341.066 240.792 351.527 224.68C360.319 211.131 357.87 193.444 351.114 179.077C346.684 169.608 340.682 160.959 333.364 153.496C325.715 145.785 316.111 140.139 308.409 131.693C293.763 115.635 282.392 96.6862 265.319 83.9671C254.135 75.6598 240.342 68.7078 226.395 62.3932C208.537 54.3147 190.841 47.273 173.391 54.1128C162.903 58.2238 154.474 66.3022 144.031 71.5622C126.196 80.5697 104.83 81.1756 87.4966 91.6551Z" stroke="#F5F5F5" stroke-width="0.766346" stroke-miterlimit="10"/>
<path d="M81.8711 89.5501C70.522 96.4572 61.7118 107.363 57.7867 119.885C55.0953 128.452 54.8261 137.909 58.1052 146.512C63.8919 161.691 75.8466 173.768 89.6046 182.493C98.1711 187.911 107.253 192.468 116.717 196.096C121.206 197.819 125.783 199.302 130.43 200.539C152.626 206.373 166.097 220.408 181.94 236.524C191.069 245.81 201.328 255.499 211.955 263.089C225.412 272.751 248.963 283.397 262.873 271.791C264.918 270.004 266.727 267.963 268.256 265.719C270.54 262.546 272.617 259.184 275.514 256.41C283.284 248.96 295.624 247.102 307.166 246.425C325.558 245.383 347.13 243.112 357.941 225.928C366.913 211.674 363.889 193.201 356.506 178.355C351.669 168.596 345.229 159.72 337.454 152.095C329.331 144.196 319.193 138.519 311.15 129.803C295.862 113.238 284.307 93.4502 266.74 79.9547C255.333 71.1986 241.171 63.6722 226.794 57.169C208.362 48.8392 189.813 42.188 171.794 49.6965C160.83 54.2698 152.056 62.9002 141.147 68.5013C122.49 78.1146 100.043 78.5724 81.8711 89.5501Z" stroke="#F5F5F5" stroke-width="0.766346" stroke-miterlimit="10"/>
<path d="M76.2509 87.4408C64.6237 94.505 55.6611 105.734 51.7091 118.579C49.0176 127.362 48.7529 137.02 52.059 145.857C57.9488 161.596 70.1054 174.369 84.2446 183.704C93.0225 189.488 102.387 194.326 112.182 198.138C116.818 199.944 121.552 201.488 126.362 202.761C149.437 208.77 163.262 223.379 179.613 240.052C189.181 249.809 199.965 259.974 211.144 267.904C225.278 277.975 250.197 289.133 264.758 276.517C266.904 274.577 268.793 272.37 270.379 269.951C272.752 266.522 274.905 262.896 277.928 259.902C286.048 251.851 299.012 249.786 311.146 249.01C330.435 247.807 353.191 245.419 364.338 227.175C373.481 212.217 369.901 192.95 361.885 177.628C356.65 167.574 349.774 158.466 341.542 150.677C332.942 142.599 322.253 136.903 313.891 127.923C297.962 110.846 286.209 90.2234 268.199 75.9515C256.567 66.751 242.096 58.6412 227.225 51.9405C208.183 43.3684 188.791 37.1031 170.197 45.2938C158.763 50.3293 149.648 59.5073 138.258 65.454C118.785 75.6642 95.2707 75.9649 76.2509 87.4408Z" stroke="#F5F5F5" stroke-width="0.766346" stroke-miterlimit="10"/>
<path d="M70.626 85.3359C58.7251 92.5527 49.6055 104.109 45.6265 117.268C42.9037 126.271 42.6839 136.118 46.0168 145.202C52.0054 161.507 64.3593 174.971 78.8843 184.921C87.8732 191.067 97.5226 196.185 107.652 200.18C112.443 202.072 117.343 203.675 122.325 204.982C146.279 211.171 160.427 226.386 177.321 243.579C187.306 253.821 198.642 264.444 210.368 272.715C225.171 283.199 251.44 294.837 266.674 281.243C269.002 279.183 270.823 276.755 272.532 274.179C274.999 270.494 277.229 266.603 280.382 263.385C288.847 254.741 302.466 252.465 315.165 251.59C335.351 250.244 359.288 247.735 370.789 228.414C380.106 212.751 375.957 192.698 367.308 176.892C361.669 166.541 354.352 157.199 345.655 149.245C336.581 141.01 325.375 135.279 316.655 126.024C300.084 108.436 288.129 86.9785 269.661 71.9302C257.796 62.263 242.962 53.6056 227.643 46.7209C208.004 37.8975 187.773 32.0227 168.6 40.882C156.7 46.3843 147.23 56.1054 135.374 62.4245C115.08 73.2093 90.4757 73.3619 70.626 85.3359Z" stroke="#F5F5F5" stroke-width="0.766346" stroke-miterlimit="10"/>
<path d="M65.0042 83.2311C52.8207 90.6049 43.5486 102.48 39.5427 115.962C36.8019 125.181 36.609 135.261 39.9913 144.546C46.0651 161.412 58.6254 175.572 73.5227 186.133C82.7255 192.642 92.6628 198.044 103.129 202.227C108.066 204.199 113.123 205.858 118.269 207.195C143.098 213.568 157.605 229.352 175.01 247.111C185.43 257.82 197.291 268.923 209.55 277.536C225.049 288.428 252.65 300.546 268.561 285.978C270.988 283.77 272.881 281.144 274.653 278.415C277.214 274.479 279.52 270.337 282.804 266.881C291.614 257.636 305.87 255.154 319.139 254.18C340.222 252.659 365.342 250.055 377.172 229.666C386.664 213.294 381.949 192.452 372.686 176.169C366.643 165.523 358.886 155.947 349.727 147.827C340.177 139.426 328.438 133.663 319.376 124.139C302.169 106.044 290.012 83.7472 271.087 67.9224C258.975 57.8154 243.844 48.57 228.063 41.4969C207.837 32.4266 186.767 26.9422 167.011 36.4703C154.644 42.4394 144.825 52.7035 132.498 59.3592C111.374 70.7588 85.7196 70.7543 65.0042 83.2311Z" stroke="#F5F5F5" stroke-width="0.766346" stroke-miterlimit="10"/>
<path d="M59.3842 81.1127C46.8893 88.691 37.6526 100.642 33.4652 114.647C30.7064 124.072 30.5405 134.336 33.9138 143.882C40.0997 161.314 52.8618 176.165 68.1495 187.335C77.5586 194.206 87.778 199.89 98.5767 204.26C103.662 206.316 108.877 208.036 114.187 209.407C139.895 215.955 154.761 232.296 172.673 250.634C183.533 261.81 195.923 273.389 208.748 282.342C224.897 293.643 253.862 306.245 270.441 290.699C272.971 288.338 274.927 285.547 276.775 282.621C279.422 278.429 281.809 274.008 285.218 270.341C294.378 260.499 309.271 257.815 323.132 256.738C345.112 255.055 371.426 252.344 383.583 230.883C393.254 213.828 387.997 192.155 378.056 175.415C371.617 164.475 363.419 154.672 353.792 146.4C343.766 137.837 331.489 132.038 322.091 122.25C304.242 103.647 291.884 80.5113 272.505 63.9056C260.182 53.3498 244.693 43.53 228.454 36.2683C207.649 26.9557 185.749 21.8708 165.388 32.0586C152.554 38.4989 142.385 49.3016 129.583 56.2939C107.669 68.3039 80.943 68.1513 59.3842 81.1127Z" stroke="#F5F5F5" stroke-width="0.766346" stroke-miterlimit="10"/>
<path d="M53.7592 79.0168C40.9948 86.7673 31.587 99.0115 27.3827 113.346C24.606 122.999 24.4669 133.457 27.8806 143.236C34.1607 161.233 47.1696 176.748 62.8026 188.565C72.4268 195.791 82.9319 201.76 94.0642 206.329C99.298 208.47 104.673 210.248 110.15 211.651C136.733 218.383 151.963 235.303 170.377 254.193C181.677 265.831 194.6 277.886 207.968 287.18C224.794 298.899 255.1 311.977 272.357 295.456C274.986 292.948 277.022 289.981 278.924 286.902C281.665 282.45 284.123 277.765 287.667 273.887C297.173 263.443 312.707 260.553 327.142 259.377C350.02 257.533 377.527 254.714 390.011 232.184C399.88 214.398 394.048 191.962 383.457 174.737C376.62 163.49 367.982 153.444 357.888 145C347.387 136.266 334.562 130.445 324.841 120.387C306.351 101.273 293.786 77.3024 273.954 59.9202C260.42 48.1465 245.236 38.4181 228.885 31.0443C207.474 21.4848 184.74 16.7813 163.81 27.6513C150.514 34.5539 139.985 45.8997 126.716 53.2331C103.964 65.8534 76.1703 65.5437 53.7592 79.0168Z" stroke="#F5F5F5" stroke-width="0.766346" stroke-miterlimit="10"/>
<path d="M48.1387 76.9119C35.1019 84.8338 25.5223 97.3742 21.3046 112.04C18.5054 121.913 18.3933 132.563 21.8384 142.558C28.2172 161.116 41.4055 177.336 57.4378 189.75C67.2701 197.332 78.0606 203.581 89.5292 208.335C94.9106 210.558 100.444 212.394 106.086 213.828C133.548 220.74 149.15 238.23 168.058 257.681C179.797 269.798 193.241 282.32 207.165 291.956C224.66 304.073 256.32 317.641 274.25 300.146C276.982 297.489 279.09 294.348 281.051 291.094C283.886 286.391 286.434 281.44 290.094 277.325C299.963 266.284 316.112 263.187 331.135 261.913C354.941 259.907 383.619 256.976 396.426 233.382C406.46 214.887 400.046 191.644 388.849 173.966C381.612 162.425 372.539 152.145 361.988 143.532C351.011 134.655 337.644 128.807 327.591 118.476C308.455 98.8494 295.688 74.0665 275.403 55.89C262.623 44.4366 246.456 33.4499 229.303 25.8202C207.295 16.0364 183.74 11.7009 162.213 23.2396C148.459 30.6135 137.577 42.5157 123.832 50.1902C100.259 63.3985 71.3931 62.9407 48.1387 76.9119Z" stroke="#F5F5F5" stroke-width="0.766346" stroke-miterlimit="10"/>
<path d="M42.5172 74.8026C29.2079 82.8991 19.4557 95.7365 15.2211 110.734C12.4085 120.818 12.3053 131.679 15.7908 141.926C22.2414 161.058 35.6584 177.964 52.0765 190.984C62.1126 198.93 73.1894 205.462 84.9978 210.399C90.5325 212.706 96.23 214.601 102.044 216.068C130.381 223.159 146.328 241.223 165.742 261.235C177.917 273.802 191.886 286.817 206.361 296.794C224.533 309.333 257.535 323.372 276.138 304.899C278.973 302.09 281.153 298.782 283.181 295.349C286.106 290.389 288.716 285.174 292.52 280.839C302.716 269.197 319.525 265.894 335.135 264.52C359.843 262.353 389.71 259.323 402.84 234.648C413.063 215.448 406.065 191.442 394.245 173.261C386.6 161.434 377.088 150.927 366.078 142.15C354.622 133.066 340.738 127.187 330.331 116.568C310.553 96.4349 297.585 70.8217 276.842 51.8598C263.833 39.9576 247.326 28.4099 229.741 20.5783C207.106 10.5475 182.735 6.61153 160.615 18.8279C146.404 26.673 135.158 39.1004 120.943 47.1384C96.5533 60.9481 66.6195 60.3332 42.5172 74.8026Z" stroke="#F5F5F5" stroke-width="0.766346" stroke-miterlimit="10"/>
<path d="M36.8921 72.6976C23.3141 80.9679 13.3911 94.0986 9.13844 109.423C6.3079 119.746 6.24061 130.786 9.74851 141.288C16.3023 160.964 29.9167 178.575 46.7161 192.196C56.9561 200.5 68.3172 207.316 80.4628 212.441C86.1387 214.825 91.987 216.776 97.9574 218.276C127.174 225.542 143.484 244.176 163.419 264.754C176.033 277.769 190.531 291.278 205.55 301.596C224.39 314.544 258.747 329.063 278.027 309.616C280.96 306.658 283.212 303.176 285.303 299.567C288.322 294.352 291.009 288.872 294.938 284.308C305.484 272.069 322.934 268.56 339.11 267.087C364.724 264.758 395.784 261.621 409.237 235.878C419.644 215.964 412.063 191.177 399.615 172.516C391.576 160.384 381.626 149.635 370.152 140.687C358.224 131.459 343.807 125.549 333.054 114.679C312.639 94.0336 299.433 67.6171 278.269 47.8474C265.013 35.5143 248.187 23.3787 230.118 15.3541C206.94 5.0765 181.739 1.53993 159.018 14.4161C144.35 22.7324 132.74 35.6983 118.058 44.0864C92.8481 58.493 61.8422 57.7255 36.8921 72.6976Z" stroke="#F5F5F5" stroke-width="0.766346" stroke-miterlimit="10"/>
<path d="M75.9323 214.488C81.7603 216.961 87.7733 218.974 93.9159 220.506C124.007 227.956 140.676 247.156 161.118 268.295C174.176 281.795 189.194 295.766 204.765 306.443C224.287 319.804 259.985 334.803 279.933 314.378C287.353 306.784 290.515 295.928 297.383 287.836C308.275 275 326.361 271.279 343.138 269.704C369.654 267.218 401.902 263.973 415.683 237.157C426.274 216.539 418.11 190.966 405.038 171.82C396.596 159.397 386.208 148.417 374.274 139.3C361.867 129.902 346.911 123.964 335.827 112.821C314.766 91.6551 301.358 64.3903 279.723 43.8621C248.941 14.6361 198.902 -14.0963 157.426 10.0044C142.3 18.7965 130.327 32.2964 115.174 41.0301C89.1564 56.0381 57.0694 55.1225 31.2895 70.5928C7.96328 84.5775 -4.97379 114.198 3.71971 140.606C14.4498 173.283 43.778 200.912 75.9323 214.488Z" stroke="#F5F5F5" stroke-width="0.766346" stroke-miterlimit="10"/>
</svg>
